<svg width="26" height="26" viewBox="0 0 26 26" fill="none" xmlns="http://www.w3.org/2000/svg">
<path fill-rule="evenodd" clip-rule="evenodd" d="M21.64 18.836C21.256 18.836 20.872 18.548 20.872 18.068C20.872 17.588 21.16 17.3 21.64 17.3H23.464V3.86H2.44V17.396H4.264C4.648 17.396 5.032 17.684 5.032 18.164C5.032 18.644 4.744 18.932 4.264 18.932H1.768C1.384 18.932 1 18.644 1 18.164V3.188C1 2.708 1.288 2.42 1.768 2.42H24.232C24.616 2.42 25 2.708 25 3.188V18.164C25 18.548 24.712 18.932 24.232 18.932H21.64V18.836Z" fill="#4360EF"/>
<path fill-rule="evenodd" clip-rule="evenodd" d="M12.712 22.58C12.424 22.58 12.136 22.388 12.04 22.1L7.04801 9.62C6.95201 9.332 7.04801 9.044 7.24001 8.852C7.33601 8.756 7.52801 8.66 7.72001 8.66C7.81601 8.66 7.91201 8.66 8.00801 8.756L20.488 13.748C20.776 13.844 20.968 14.132 20.968 14.516C20.968 14.804 20.68 15.092 20.392 15.188L14.632 16.34L13.48 22.1C13.288 22.292 13.096 22.58 12.712 22.58ZM8.96801 10.676L12.424 19.316L13.192 15.476C13.288 15.188 13.48 14.996 13.768 14.9L17.608 14.132L8.96801 10.676Z" fill="#4360EF"/>
</svg>
