<svg fill="none" height="90" viewBox="0 0 330 90" width="330" xmlns="http://www.w3.org/2000/svg" xmlns:xlink="http://www.w3.org/1999/xlink"><filter id="a" color-interpolation-filters="sRGB" filterUnits="userSpaceOnUse" height="53.0762" width="173.094" x="119.598" y="10.7559"><feFlood flood-opacity="0" result="BackgroundImageFix"/><feColorMatrix in="SourceAlpha" result="hardAlpha" type="matrix" values="0 0 0 0 0 0 0 0 0 0 0 0 0 0 0 0 0 0 127 0"/><feOffset dx="4" dy="6"/><feGaussianBlur stdDeviation="5"/><feComposite in2="hardAlpha" operator="out"/><feColorMatrix type="matrix" values="0 0 0 0 0 0 0 0 0 0 0 0 0 0 0 0 0 0 0.25 0"/><feBlend in2="BackgroundImageFix" mode="normal" result="effect1_dropShadow_3901_1448"/><feBlend in="SourceGraphic" in2="effect1_dropShadow_3901_1448" mode="normal" result="shape"/></filter><linearGradient id="b" gradientUnits="userSpaceOnUse" x1="125.598" x2="278.691" y1="31.2939" y2="31.2939"><stop offset="0" stop-color="#ff790c"/><stop offset="1" stop-color="#ff18ae"/></linearGradient><g filter="url(#a)"><path d="m125.598 22.7559c0-4.4183 3.581-8 8-8h137.093c4.419 0 8 3.5817 8 8v17.0761c0 4.4183-3.581 8-8 8h-137.093c-4.419 0-8-3.5817-8-8z" fill="url(#b)"/></g><path d="m12.7244 21.5455h3.162v11.4034c0 1.25-.2955 2.3494-.8864 3.2983-.5852.9488-1.4091 1.6903-2.4716 2.2244-1.0625.5284-2.304.7926-3.72442.7926-1.42614 0-2.67046-.2642-3.73296-.7926-1.0625-.5341-1.88636-1.2756-2.47159-2.2244-.58523-.9489-.87784-2.0483-.87784-3.2983v-11.4034h3.16193v11.1392c0 .7272.15909 1.375.47728 1.9431.32386.5682.7784 1.0142 1.36363 1.3381.58523.3182 1.27841.4773 2.07955.4773.80113 0 1.49432-.1591 2.07952-.4773.5909-.3239 1.0455-.7699 1.3637-1.3381.3181-.5681.4772-1.2159.4772-1.9431zm6.4624 22.3636v-18h3.0341v2.1648h.179c.159-.3182.3835-.6563.6733-1.0142.2897-.3637.6818-.6733 1.1761-.929.4943-.2614 1.125-.3921 1.892-.3921 1.0114 0 1.9233.2586 2.7358.7756.8182.5114 1.4659 1.2699 1.9432 2.2756.483 1 .7244 2.2272.7244 3.6818 0 1.4375-.2358 2.6591-.7073 3.6648-.4716 1.0056-1.1137 1.7727-1.9262 2.3011s-1.7329.7926-2.7613.7926c-.75 0-1.3722-.125-1.8665-.375s-.8921-.5511-1.1932-.9034c-.2955-.358-.5256-.696-.6903-1.0142h-.1279v6.9716zm3.0256-11.4546c0 .8466.1193 1.5881.3579 2.2245.2443.6363.5938 1.1335 1.0483 1.4915.4602.3522 1.0171.5284 1.6705.5284.6818 0 1.2528-.1819 1.713-.5455.4603-.3693.8068-.8722 1.0398-1.5085.2386-.6421.358-1.3722.358-2.1904 0-.8125-.1165-1.534-.3495-2.1647-.2329-.6307-.5795-1.125-1.0397-1.483-.4603-.3579-1.0341-.5369-1.7216-.5369-.6591 0-1.2188.1733-1.679.5199s-.8097.8324-1.0483 1.4574c-.233.625-.3494 1.3608-.3494 2.2073zm16.8323 6.7756c-1.0284 0-1.9488-.2642-2.7613-.7926s-1.4546-1.2955-1.9262-2.3011c-.4715-1.0057-.7073-2.2273-.7073-3.6648 0-1.4546.2386-2.6818.7159-3.6818.4829-1.0057 1.1335-1.7642 1.9517-2.2756.8182-.517 1.7301-.7756 2.7358-.7756.767 0 1.3977.1307 1.892.3921.4943.2557.8864.5653 1.1761.929.2898.3579.5143.696.6733 1.0142h.1279v-6.5284h3.0937v17.4545h-3.0341v-2.0625h-.1875c-.159.3182-.3892.6562-.6903 1.0142-.3011.3523-.6989.6534-1.1932.9034s-1.1165.375-1.8665.375zm.8608-2.5312c.6534 0 1.2103-.1762 1.6705-.5284.4602-.358.8097-.8552 1.0483-1.4915.2386-.6364.3579-1.3779.3579-2.2245 0-.8465-.1193-1.5823-.3579-2.2073-.233-.625-.5796-1.1108-1.0398-1.4574-.4545-.3466-1.0142-.5199-1.679-.5199-.6875 0-1.2613.179-1.7216.5369-.4602.358-.8068.8523-1.0397 1.483-.233.6307-.3495 1.3522-.3495 2.1647 0 .8182.1165 1.5483.3495 2.1904.2386.6363.588 1.1392 1.0483 1.5085.4659.3636 1.0369.5455 1.713.5455zm13.1655 2.5653c-.8295 0-1.5767-.1477-2.2415-.4432-.659-.3011-1.1818-.7443-1.5681-1.3295-.3807-.5853-.5711-1.3068-.5711-2.1648 0-.7386.1364-1.3494.4091-1.8324.2728-.4829.6449-.8693 1.1165-1.1591.4716-.2897 1.0029-.5085 1.5938-.6562.5966-.1534 1.213-.2642 1.8494-.3324.767-.0796 1.3892-.1506 1.8665-.2131.4772-.0682.8238-.1704 1.0397-.3068.2216-.142.3324-.3608.3324-.6562v-.0512c0-.642-.1903-1.1392-.571-1.4915-.3807-.3522-.929-.5284-1.6449-.5284-.7557 0-1.3551.1648-1.7983.4944-.4375.3295-.7329.7187-.8863 1.1676l-2.8807-.4091c.2273-.7955.6023-1.4603 1.125-1.9943.5227-.5398 1.1619-.9432 1.9176-1.2103.7557-.2727 1.5909-.4091 2.5057-.4091.6307 0 1.2585.0739 1.8835.2216.625.1478 1.196.3921 1.7131.733.517.3352.9318.7926 1.2443 1.3721.3182.5796.4773 1.304.4773 2.1733v8.7614h-2.966v-1.7983h-.1022c-.1875.3636-.4517.7045-.7926 1.0227-.3353.3125-.7586.5654-1.2699.7586-.5057.1875-1.0995.2812-1.7813.2812zm.8012-2.267c.6193 0 1.1562-.1222 1.6108-.3665.4545-.25.8039-.5796 1.0482-.9887.25-.409.375-.8551.375-1.338v-1.5426c-.0965.0795-.2613.1534-.4943.2216-.2272.0681-.4829.1278-.767.1789-.2841.0512-.5654.0966-.8438.1364s-.5198.0739-.7244.1023c-.4602.0625-.8722.1647-1.2358.3068-.3636.142-.6506.3409-.8608.5966-.2102.25-.3153.5738-.3153.9716 0 .5682.2074.9971.6221 1.2869.4148.2898.9432.4347 1.5853.4347zm15.75-11.0881v2.3864h-7.5256v-2.3864zm-5.6677-3.1364h3.0853v12.2898c0 .4148.0625.733.1875.9545.1307.216.3011.3637.5113.4432.2103.0796.4432.1193.6989.1193.1932 0 .3693-.0142.5284-.0426.1648-.0284.2898-.0539.375-.0767l.5199 2.412c-.1648.0568-.4006.1193-.7074.1875-.3011.0681-.6704.1079-1.1079.1193-.7728.0227-1.4688-.0938-2.0881-.3495-.6193-.2613-1.1108-.6647-1.4744-1.2102-.358-.5454-.5341-1.2273-.5285-2.0454zm13.9027 16.483c-1.3125 0-2.446-.2727-3.4005-.8182-.9489-.5511-1.679-1.3295-2.1904-2.3352-.5113-1.0114-.767-2.2017-.767-3.5711 0-1.3465.2557-2.5284.767-3.5454.5171-1.0227 1.2387-1.8182 2.1648-2.3864.9261-.5738 2.0142-.8608 3.2642-.8608.8068 0 1.5682.1307 2.2841.3921.7216.2557 1.358.6534 1.9091 1.1932.5568.5397.9943 1.2272 1.3125 2.0625.3182.8295.4773 1.8181.4773 2.9659v.946h-10.7301v-2.0795h7.7727c-.0057-.591-.1335-1.1165-.3835-1.5768-.25-.4659-.5995-.8323-1.0483-1.0994-.4432-.267-.9603-.4006-1.5512-.4006-.6307 0-1.1846.1535-1.6619.4603-.4773.3011-.8494.6988-1.1165 1.1932-.2613.4886-.3949 1.0255-.4006 1.6107v1.8154c0 .7614.1393 1.4148.4177 1.9602.2784.5398.6676.9546 1.1676 1.2443.5.2841 1.0852.4262 1.7557.4262.4488 0 .8551-.0625 1.2187-.1875.3636-.1307.679-.321.946-.571.2671-.25.4688-.5597.6051-.929l2.8807.3238c-.1818.7614-.5284 1.4262-1.0397 1.9944-.5057.5625-1.1535 1-1.9432 1.3125-.7898.3068-1.6932.4602-2.7103.4602zm13.7536-15.0597v-2.6505h13.9262v2.6505h-5.395v14.804h-3.1363v-14.804zm20.2862 15.0597c-1.278 0-2.386-.2813-3.324-.8438-.937-.5625-1.665-1.3494-2.182-2.3608-.511-1.0113-.767-2.1931-.767-3.5454s.256-2.537.767-3.554c.517-1.017 1.245-1.8068 2.182-2.3693.938-.5625 2.046-.8438 3.324-.8438s2.386.2813 3.324.8438c.937.5625 1.662 1.3523 2.173 2.3693.517 1.017.776 2.2017.776 3.554s-.259 2.5341-.776 3.5454c-.511 1.0114-1.236 1.7983-2.173 2.3608-.938.5625-2.046.8438-3.324.8438zm.017-2.4716c.693 0 1.273-.1904 1.739-.571.466-.3864.812-.9034 1.039-1.5512.233-.6477.35-1.3693.35-2.1647 0-.8012-.117-1.5256-.35-2.1733-.227-.6534-.573-1.1733-1.039-1.5597s-1.046-.5795-1.739-.5795c-.71 0-1.301.1931-1.773.5795-.466.3864-.815.9063-1.048 1.5597-.227.6477-.341 1.3721-.341 2.1733 0 .7954.114 1.517.341 2.1647.233.6478.582 1.1648 1.048 1.5512.472.3806 1.063.571 1.773.571zm26.87 2.2159v-17.4545h6.546c1.34 0 2.465.25 3.375.75.914.5 1.605 1.1875 2.071 2.0625.471.8693.707 1.8579.707 2.9659 0 1.1193-.236 2.1136-.707 2.9829-.472.8693-1.168 1.554-2.088 2.054-.921.4943-2.054.7415-3.401.7415h-4.338v-2.5995h3.912c.784 0 1.426-.1363 1.926-.409.5-.2728.869-.6478 1.108-1.125.244-.4773.366-1.0256.366-1.6449 0-.6194-.122-1.1648-.366-1.6364-.239-.4716-.611-.8381-1.117-1.0994-.5-.2671-1.144-.4006-1.934-.4006h-2.898v14.8125zm15.309 0v-13.0909h2.992v2.1818h.136c.239-.7557.648-1.3381 1.227-1.7471.585-.4148 1.253-.6222 2.003-.6222.17 0 .361.0085.571.0256.216.0113.395.0312.537.0596v2.8381c-.131-.0455-.338-.0852-.622-.1193-.279-.0398-.549-.0597-.81-.0597-.562 0-1.068.1222-1.517.3665-.443.2386-.793.571-1.048.9971-.256.4262-.384.9177-.384 1.4745v7.696zm14.687.2557c-1.279 0-2.387-.2813-3.324-.8438-.938-.5625-1.665-1.3494-2.182-2.3608-.511-1.0113-.767-2.1931-.767-3.5454s.256-2.537.767-3.554c.517-1.017 1.244-1.8068 2.182-2.3693.937-.5625 2.045-.8438 3.324-.8438 1.278 0 2.386.2813 3.324.8438.937.5625 1.662 1.3523 2.173 2.3693.517 1.017.776 2.2017.776 3.554s-.259 2.5341-.776 3.5454c-.511 1.0114-1.236 1.7983-2.173 2.3608-.938.5625-2.046.8438-3.324.8438zm.017-2.4716c.693 0 1.273-.1904 1.739-.571.465-.3864.812-.9034 1.039-1.5512.233-.6477.35-1.3693.35-2.1647 0-.8012-.117-1.5256-.35-2.1733-.227-.6534-.574-1.1733-1.039-1.5597-.466-.3864-1.046-.5795-1.739-.5795-.71 0-1.301.1931-1.773.5795-.466.3864-.815.9063-1.048 1.5597-.227.6477-.341 1.3721-.341 2.1733 0 .7954.114 1.517.341 2.1647.233.6478.582 1.1648 1.048 1.5512.472.3806 1.063.571 1.773.571zm17.299-15.2386 4.542 13.7386h.179l4.535-13.7386h3.477l-6.154 17.4545h-3.903l-6.145-17.4545zm19.285 17.7102c-1.313 0-2.446-.2727-3.401-.8182-.949-.5511-1.679-1.3295-2.19-2.3352-.512-1.0114-.767-2.2017-.767-3.5711 0-1.3465.255-2.5284.767-3.5454.517-1.0227 1.238-1.8182 2.165-2.3864.926-.5738 2.014-.8608 3.264-.8608.807 0 1.568.1307 2.284.3921.721.2557 1.358.6534 1.909 1.1932.557.5397.994 1.2272 1.312 2.0625.319.8295.478 1.8181.478 2.9659v.946h-10.73v-2.0795h7.772c-.005-.591-.133-1.1165-.383-1.5768-.25-.4659-.6-.8323-1.049-1.0994-.443-.267-.96-.4006-1.551-.4006-.63 0-1.184.1535-1.662.4603-.477.3011-.849.6988-1.116 1.1932-.261.4886-.395 1.0255-.401 1.6107v1.8154c0 .7614.14 1.4148.418 1.9602.278.5398.668.9546 1.168 1.2443.5.2841 1.085.4262 1.755.4262.449 0 .855-.0625 1.219-.1875.364-.1307.679-.321.946-.571s.469-.5597.605-.929l2.881.3238c-.182.7614-.529 1.4262-1.04 1.9944-.506.5625-1.153 1-1.943 1.3125-.79.3068-1.693.4602-2.71.4602zm8.431-.2557v-13.0909h2.991v2.1818h.137c.238-.7557.647-1.3381 1.227-1.7471.585-.4148 1.253-.6222 2.003-.6222.17 0 .361.0085.571.0256.216.0113.395.0312.537.0596v2.8381c-.131-.0455-.338-.0852-.622-.1193-.279-.0398-.549-.0597-.81-.0597-.563 0-1.068.1222-1.517.3665-.443.2386-.793.571-1.048.9971-.256.4262-.384.9177-.384 1.4745v7.696zm19.862-9.6307-2.812.3068c-.08-.2841-.219-.5511-.418-.8011-.193-.25-.455-.4517-.784-.6051-.33-.1534-.733-.2301-1.21-.2301-.642 0-1.182.1392-1.62.4176-.432.2784-.645.6392-.639 1.0824-.006.3807.134.6903.418.929.289.2386.767.4346 1.431.588l2.233.4773c1.239.267 2.16.6903 2.762 1.2699.608.5795.915 1.338.92 2.2755-.005.8239-.247 1.5512-.724 2.1819-.472.625-1.128 1.1136-1.969 1.4659-.841.3522-1.807.5284-2.898.5284-1.602 0-2.892-.3352-3.869-1.0057-.977-.6761-1.56-1.6165-1.747-2.821l3.008-.2898c.137.5909.427 1.0369.87 1.3381.443.3011 1.02.4517 1.73.4517.733 0 1.321-.1506 1.764-.4517.449-.3012.673-.6733.673-1.1165 0-.375-.145-.6847-.434-.929-.284-.2443-.728-.4318-1.33-.5625l-2.233-.4687c-1.256-.2614-2.184-.7017-2.787-1.3211-.602-.625-.9-1.4147-.895-2.3693-.005-.8068.213-1.5057.657-2.0966.448-.5966 1.071-1.0568 1.866-1.3806.801-.3296 1.725-.4944 2.77-.4944 1.534 0 2.741.3267 3.622.9802.886.6534 1.435 1.5369 1.645 2.6505zm2.825 9.6307v-13.0909h3.086v13.0909zm1.551-14.9489c-.488 0-.909-.1619-1.261-.4858-.352-.3295-.528-.7244-.528-1.1846 0-.4659.176-.8608.528-1.1847.352-.3295.773-.4943 1.261-.4943.495 0 .915.1648 1.262.4943.352.3239.528.7188.528 1.1847 0 .4602-.176.8551-.528 1.1846-.347.3239-.767.4858-1.262.4858zm10.417 15.2046c-1.278 0-2.386-.2813-3.324-.8438-.937-.5625-1.664-1.3494-2.181-2.3608-.512-1.0113-.767-2.1931-.767-3.5454s.255-2.537.767-3.554c.517-1.017 1.244-1.8068 2.181-2.3693.938-.5625 2.046-.8438 3.324-.8438 1.279 0 2.387.2813 3.324.8438.938.5625 1.662 1.3523 2.173 2.3693.518 1.017.776 2.2017.776 3.554s-.258 2.5341-.776 3.5454c-.511 1.0114-1.235 1.7983-2.173 2.3608-.937.5625-2.045.8438-3.324.8438zm.017-2.4716c.694 0 1.273-.1904 1.739-.571.466-.3864.813-.9034 1.04-1.5512.233-.6477.349-1.3693.349-2.1647 0-.8012-.116-1.5256-.349-2.1733-.227-.6534-.574-1.1733-1.04-1.5597s-1.045-.5795-1.739-.5795c-.71 0-1.301.1931-1.772.5795-.466.3864-.816.9063-1.049 1.5597-.227.6477-.341 1.3721-.341 2.1733 0 .7954.114 1.517.341 2.1647.233.6478.583 1.1648 1.049 1.5512.471.3806 1.062.571 1.772.571zm11.96-5.4546v7.6705h-3.085v-13.0909h2.949v2.2244h.153c.301-.7329.781-1.3153 1.44-1.7471.665-.4319 1.486-.6478 2.463-.6478.904 0 1.691.1932 2.361.5796.676.3863 1.199.946 1.568 1.679.375.7329.56 1.6221.554 2.6676v8.3352h-3.085v-7.858c0-.875-.227-1.5596-.682-2.0539-.449-.4944-1.071-.7415-1.866-.7415-.54 0-1.02.1193-1.441.3579-.414.233-.741.5711-.98 1.0143-.233.4431-.349.9801-.349 1.6107zm-247.0292 35.7898c-.1421-.4602-.3381-.8721-.5881-1.2358-.2443-.3693-.5398-.6846-.8864-.946-.3409-.2614-.7329-.4574-1.1761-.5881-.4432-.1363-.92613-.2045-1.44886-.2045-.9375 0-1.77273.2358-2.50568.7074-.73296.4716-1.30966 1.1647-1.73011 2.0795-.41478.9091-.62216 2.0171-.62216 3.3239 0 1.3182.20738 2.4346.62216 3.3494.41477.9148.99147 1.6108 1.73011 2.0881.73864.4716 1.59659.7074 2.57386.7074.88638 0 1.65338-.1705 2.30118-.5114.6534-.3409 1.1562-.8239 1.5085-1.4489.3523-.6306.5284-1.3693.5284-2.2159l.7159.1108h-4.73864v-2.4716h7.08234v2.0966c0 1.4943-.3181 2.787-.9545 3.8779s-1.5114 1.9318-2.625 2.5227c-1.1136.5852-2.392.8778-3.83522.8778-1.60796 0-3.01989-.3608-4.2358-1.0824-1.21023-.7272-2.15625-1.7585-2.83807-3.0937-.67613-1.3409-1.0142-2.9318-1.0142-4.7727 0-1.4091.19886-2.6676.59659-3.7756.40341-1.108.96591-2.0483 1.6875-2.821.72159-.7784 1.56818-1.3693 2.53977-1.7727.97159-.4091 2.02841-.6137 3.17046-.6137.96587 0 1.86647.1421 2.70167.4262.8353.2784 1.5767.6761 2.2245 1.1931.6534.5171 1.1903 1.1307 1.6108 1.8409.4204.7103.696 1.4944.8267 2.3523zm12.0831 12.1364c-1.3125 0-2.4461-.2727-3.4006-.8182-.9489-.5511-1.679-1.3295-2.1903-2.3352-.5114-1.0114-.7671-2.2017-.7671-3.5711 0-1.3465.2557-2.5284.7671-3.5454.517-1.0227 1.2386-1.8182 2.1647-2.3864.9262-.5738 2.0142-.8608 3.2642-.8608.8069 0 1.5682.1307 2.2841.3921.7216.2557 1.358.6534 1.9091 1.1932.5568.5397.9943 1.2272 1.3125 2.0625.3182.8295.4773 1.8181.4773 2.9659v.946h-10.7301v-2.0795h7.7727c-.0057-.591-.1335-1.1165-.3835-1.5768-.25-.4659-.5994-.8323-1.0483-1.0994-.4432-.267-.9602-.4006-1.5511-.4006-.6307 0-1.1847.1535-1.662.4603-.4773.3011-.8494.6988-1.1165 1.1932-.2613.4886-.3948 1.0255-.4005 1.6107v1.8154c0 .7614.1392 1.4148.4176 1.9602.2784.5398.6676.9546 1.1676 1.2443.5.2841 1.0852.4262 1.7557.4262.4488 0 .8551-.0625 1.2187-.1875.3637-.1307.679-.321.9461-.571.267-.25.4687-.5597.6051-.929l2.8807.3238c-.1819.7614-.5285 1.4262-1.0398 1.9944-.5057.5625-1.1534 1-1.9432 1.3125-.7898.3068-1.6932.4602-2.7102.4602zm14.968-13.3466v2.3864h-7.5256v-2.3864zm-5.6676-3.1364h3.0852v12.2898c0 .4148.0625.733.1875.9545.1307.216.3012.3637.5114.4432.2102.0796.4432.1193.6988.1193.1932 0 .3694-.0142.5285-.0426.1647-.0284.2897-.0539.375-.0767l.5198 2.412c-.1647.0568-.4005.1193-.7073.1875-.3012.0681-.6705.1079-1.108.1193-.7727.0227-1.4687-.0938-2.0881-.3495-.6193-.2613-1.1108-.6647-1.4744-1.2102-.3579-.5454-.5341-1.2273-.5284-2.0454zm14.3374-1.2272h3.8693l5.1818 12.6477h.2045l5.1819-12.6477h3.8693v17.4545h-3.0341v-11.9915h-.162l-4.8238 11.9404h-2.2671l-4.8238-11.9659h-.162v12.017h-3.034zm27.3238 17.7102c-1.2784 0-2.3863-.2813-3.3238-.8438s-1.6648-1.3494-2.1819-2.3608c-.5113-1.0113-.767-2.1931-.767-3.5454s.2557-2.537.767-3.554c.5171-1.017 1.2444-1.8068 2.1819-2.3693s2.0454-.8438 3.3238-.8438 2.3864.2813 3.3239.8438 1.6619 1.3523 2.1733 2.3693c.517 1.017.7755 2.2017.7755 3.554s-.2585 2.5341-.7755 3.5454c-.5114 1.0114-1.2358 1.7983-2.1733 2.3608s-2.0455.8438-3.3239.8438zm.0171-2.4716c.6931 0 1.2727-.1904 1.7386-.571.4659-.3864.8125-.9034 1.0398-1.5512.2329-.6477.3494-1.3693.3494-2.1647 0-.8012-.1165-1.5256-.3494-2.1733-.2273-.6534-.5739-1.1733-1.0398-1.5597s-1.0455-.5795-1.7386-.5795c-.7103 0-1.3012.1931-1.7728.5795-.4659.3864-.8153.9063-1.0483 1.5597-.2272.6477-.3409 1.3721-.3409 2.1733 0 .7954.1137 1.517.3409 2.1647.233.6478.5824 1.1648 1.0483 1.5512.4716.3806 1.0625.571 1.7728.571zm8.8743 2.2159v-13.0909h2.9914v2.1818h.1364c.2386-.7557.6477-1.3381 1.2273-1.7471.5852-.4148 1.2528-.6222 2.0028-.6222.1705 0 .3608.0085.571.0256.2159.0113.3949.0312.537.0596v2.8381c-.1307-.0455-.3381-.0852-.6222-.1193-.2784-.0398-.5483-.0597-.8097-.0597-.5625 0-1.0681.1222-1.517.3665-.4432.2386-.7926.571-1.0483.9971-.2557.4262-.3835.9177-.3835 1.4745v7.696zm14.7721.2557c-1.3126 0-2.4462-.2727-3.4007-.8182-.9489-.5511-1.679-1.3295-2.1903-2.3352-.5114-1.0114-.7671-2.2017-.7671-3.5711 0-1.3465.2557-2.5284.7671-3.5454.517-1.0227 1.2386-1.8182 2.1647-2.3864.9262-.5738 2.0142-.8608 3.2642-.8608.8071 0 1.5681.1307 2.2841.3921.722.2557 1.358.6534 1.909 1.1932.557.5397.994 1.2272 1.313 2.0625.318.8295.477 1.8181.477 2.9659v.946h-10.7302v-2.0795h7.7732c-.006-.591-.134-1.1165-.384-1.5768-.25-.4659-.599-.8323-1.048-1.0994-.443-.267-.961-.4006-1.551-.4006-.6311 0-1.1851.1535-1.6624.4603-.4773.3011-.8494.6988-1.1165 1.1932-.2613.4886-.3948 1.0255-.4005 1.6107v1.8154c0 .7614.1392 1.4148.4176 1.9602.2784.5398.6676.9546 1.1676 1.2443.5.2841 1.0852.4262 1.7552.4262.449 0 .856-.0625 1.219-.1875.364-.1307.679-.321.946-.571s.469-.5597.605-.929l2.881.3238c-.182.7614-.528 1.4262-1.04 1.9944-.505.5625-1.153 1-1.943 1.3125-.79.3068-1.693.4602-2.71.4602zm14.52-.2557v-17.4545h11.353v2.6505h-8.191v4.7387h7.603v2.6505h-7.603v4.7642h8.259v2.6506zm16.965-13.0909 2.642 4.8324 2.685-4.8324h3.264l-3.946 6.5454 4.014 6.5455h-3.247l-2.77-4.7131-2.744 4.7131h-3.273l3.989-6.5455-3.887-6.5454zm16.195 13.3466c-1.307 0-2.429-.2869-3.366-.8608-.932-.5739-1.651-1.3665-2.156-2.3779-.5-1.017-.75-2.1875-.75-3.5113 0-1.3296.255-2.5029.767-3.5199.511-1.0227 1.233-1.8182 2.164-2.3864.938-.5738 2.046-.8608 3.324-.8608 1.063 0 2.003.1961 2.821.5881.824.3864 1.48.9347 1.969 1.6449.489.7045.767 1.5284.835 2.4716h-2.949c-.119-.6307-.403-1.1563-.852-1.5767-.443-.4262-1.037-.6392-1.781-.6392-.631 0-1.185.1704-1.662.5113-.477.3353-.85.8182-1.117 1.4489-.261.6307-.392 1.3864-.392 2.267 0 .8921.131 1.6591.392 2.3012.262.6363.628 1.1278 1.1 1.4744.477.3409 1.037.5114 1.679.5114.454 0 .861-.0853 1.219-.2557.363-.1761.667-.429.912-.7585.244-.3296.411-.7301.502-1.2017h2.949c-.074.9261-.346 1.7471-.818 2.463-.472.7103-1.114 1.2671-1.926 1.6705-.813.3977-1.767.5966-2.864.5966zm11.227-17.7102v17.4545h-3.085v-17.4545zm11.516 11.9488v-7.5852h3.085v13.0909h-2.991v-2.3267h-.136c-.296.7329-.782 1.3324-1.458 1.7983-.67.4659-1.497.6989-2.48.6989-.858 0-1.616-.1904-2.276-.5711-.653-.3863-1.164-.946-1.534-1.6789-.369-.7387-.554-1.6307-.554-2.6762v-8.3352h3.086v7.8579c0 .8296.227 1.4887.681 1.9773.455.4887 1.052.733 1.79.733.455 0 .895-.1108 1.321-.3324s.776-.5511 1.049-.9887c.278-.4431.417-.9971.417-1.6619zm16.605-4.125-2.813.3068c-.079-.2841-.219-.5511-.418-.8011-.193-.25-.454-.4517-.784-.6051-.329-.1534-.733-.2301-1.21-.2301-.642 0-1.182.1392-1.619.4176-.432.2784-.645.6392-.639 1.0824-.006.3807.133.6903.417.929.29.2386.767.4346 1.432.588l2.233.4773c1.239.267 2.159.6903 2.761 1.2699.608.5795.915 1.338.921 2.2755-.006.8239-.247 1.5512-.725 2.1819-.471.625-1.127 1.1136-1.968 1.4659-.841.3522-1.807.5284-2.898.5284-1.602 0-2.892-.3352-3.869-1.0057-.978-.6761-1.56-1.6165-1.748-2.821l3.009-.2898c.136.5909.426 1.0369.869 1.3381.443.3011 1.02.4517 1.73.4517.733 0 1.321-.1506 1.765-.4517.448-.3012.673-.6733.673-1.1165 0-.375-.145-.6847-.435-.929-.284-.2443-.727-.4318-1.329-.5625l-2.233-.4687c-1.256-.2614-2.185-.7017-2.787-1.3211-.602-.625-.901-1.4147-.895-2.3693-.006-.8068.213-1.5057.656-2.0966.449-.5966 1.071-1.0568 1.867-1.3806.801-.3296 1.724-.4944 2.77-.4944 1.534 0 2.741.3267 3.622.9802.886.6534 1.434 1.5369 1.645 2.6505zm2.825 9.6307v-13.0909h3.085v13.0909zm1.551-14.9489c-.489 0-.909-.1619-1.261-.4858-.353-.3295-.529-.7244-.529-1.1846 0-.4659.176-.8608.529-1.1847.352-.3295.772-.4943 1.261-.4943.494 0 .915.1648 1.261.4943.353.3239.529.7188.529 1.1847 0 .4602-.176.8551-.529 1.1846-.346.3239-.767.4858-1.261.4858zm16.4 1.858-4.662 13.0909h-3.409l-4.662-13.0909h3.29l3.008 9.7244h.137l3.017-9.7244zm7.485 13.3466c-1.313 0-2.446-.2727-3.401-.8182-.948-.5511-1.679-1.3295-2.19-2.3352-.511-1.0114-.767-2.2017-.767-3.5711 0-1.3465.256-2.5284.767-3.5454.517-1.0227 1.239-1.8182 2.165-2.3864.926-.5738 2.014-.8608 3.264-.8608.807 0 1.568.1307 2.284.3921.722.2557 1.358.6534 1.909 1.1932.557.5397.995 1.2272 1.313 2.0625.318.8295.477 1.8181.477 2.9659v.946h-10.73v-2.0795h7.773c-.006-.591-.134-1.1165-.384-1.5768-.25-.4659-.599-.8323-1.048-1.0994-.443-.267-.96-.4006-1.551-.4006-.631 0-1.185.1535-1.662.4603-.478.3011-.85.6988-1.117 1.1932-.261.4886-.395 1.0255-.4 1.6107v1.8154c0 .7614.139 1.4148.417 1.9602.279.5398.668.9546 1.168 1.2443.5.2841 1.085.4262 1.756.4262.448 0 .855-.0625 1.218-.1875.364-.1307.679-.321.946-.571s.469-.5597.605-.929l2.881.3238c-.182.7614-.528 1.4262-1.04 1.9944-.505.5625-1.153 1-1.943 1.3125-.79.3068-1.693.4602-2.71.4602zm14.521-.2557v-17.4545h11.181v2.6505h-8.02v4.7387h7.253v2.6505h-7.253v7.4148zm18.76.2557c-1.312 0-2.446-.2727-3.4-.8182-.949-.5511-1.679-1.3295-2.191-2.3352-.511-1.0114-.767-2.2017-.767-3.5711 0-1.3465.256-2.5284.767-3.5454.517-1.0227 1.239-1.8182 2.165-2.3864.926-.5738 2.014-.8608 3.264-.8608.807 0 1.568.1307 2.284.3921.722.2557 1.358.6534 1.909 1.1932.557.5397.995 1.2272 1.313 2.0625.318.8295.477 1.8181.477 2.9659v.946h-10.73v-2.0795h7.773c-.006-.591-.134-1.1165-.384-1.5768-.25-.4659-.599-.8323-1.048-1.0994-.443-.267-.96-.4006-1.551-.4006-.631 0-1.185.1535-1.662.4603-.477.3011-.849.6988-1.117 1.1932-.261.4886-.394 1.0255-.4 1.6107v1.8154c0 .7614.139 1.4148.417 1.9602.279.5398.668.9546 1.168 1.2443.5.2841 1.085.4262 1.756.4262.449 0 .855-.0625 1.219-.1875.363-.1307.679-.321.946-.571s.468-.5597.605-.929l2.88.3238c-.181.7614-.528 1.4262-1.039 1.9944-.506.5625-1.154 1-1.944 1.3125-.789.3068-1.693.4602-2.71.4602zm12.198.0085c-.829 0-1.576-.1477-2.241-.4432-.659-.3011-1.182-.7443-1.568-1.3295-.381-.5853-.571-1.3068-.571-2.1648 0-.7386.136-1.3494.409-1.8324.272-.4829.645-.8693 1.116-1.1591.472-.2897 1.003-.5085 1.594-.6562.597-.1534 1.213-.2642 1.849-.3324.767-.0796 1.39-.1506 1.867-.2131.477-.0682.824-.1704 1.04-.3068.221-.142.332-.3608.332-.6562v-.0512c0-.642-.19-1.1392-.571-1.4915-.381-.3522-.929-.5284-1.645-.5284-.756 0-1.355.1648-1.798.4944-.438.3295-.733.7187-.887 1.1676l-2.88-.4091c.227-.7955.602-1.4603 1.125-1.9943.523-.5398 1.162-.9432 1.917-1.2103.756-.2727 1.591-.4091 2.506-.4091.631 0 1.259.0739 1.884.2216.625.1478 1.196.3921 1.713.733.517.3352.931.7926 1.244 1.3721.318.5796.477 1.304.477 2.1733v8.7614h-2.966v-1.7983h-.102c-.187.3636-.452.7045-.793 1.0227-.335.3125-.758.5654-1.269.7586-.506.1875-1.1.2812-1.782.2812zm.801-2.267c.62 0 1.157-.1222 1.611-.3665.455-.25.804-.5796 1.049-.9887.25-.409.375-.8551.375-1.338v-1.5426c-.097.0795-.262.1534-.495.2216-.227.0681-.483.1278-.767.1789-.284.0512-.565.0966-.844.1364-.278.0398-.519.0739-.724.1023-.46.0625-.872.1647-1.236.3068-.363.142-.65.3409-.861.5966-.21.25-.315.5738-.315.9716 0 .5682.207.9971.622 1.2869s.943.4347 1.585.4347zm15.75-11.0881v2.3864h-7.525v-2.3864zm-5.667-3.1364h3.085v12.2898c0 .4148.063.733.188.9545.13.216.301.3637.511.4432.21.0796.443.1193.699.1193.193 0 .369-.0142.528-.0426.165-.0284.29-.0539.375-.0767l.52 2.412c-.165.0568-.4.1193-.707.1875-.301.0681-.671.1079-1.108.1193-.773.0227-1.469-.0938-2.088-.3495-.62-.2613-1.111-.6647-1.475-1.2102-.358-.5454-.534-1.2273-.528-2.0454zm16.591 10.7216v-7.5852h3.086v13.0909h-2.992v-2.3267h-.136c-.296.7329-.781 1.3324-1.458 1.7983-.67.4659-1.497.6989-2.48.6989-.858 0-1.616-.1904-2.275-.5711-.654-.3863-1.165-.946-1.534-1.6789-.37-.7387-.554-1.6307-.554-2.6762v-8.3352h3.085v7.8579c0 .8296.227 1.4887.682 1.9773.454.4887 1.051.733 1.79.733.454 0 .894-.1108 1.321-.3324.426-.2216.775-.5511 1.048-.9887.278-.4431.417-.9971.417-1.6619zm6.258 5.5057v-13.0909h2.992v2.1818h.136c.239-.7557.648-1.3381 1.227-1.7471.586-.4148 1.253-.6222 2.003-.6222.171 0 .361.0085.571.0256.216.0113.395.0312.537.0596v2.8381c-.13-.0455-.338-.0852-.622-.1193-.278-.0398-.548-.0597-.81-.0597-.562 0-1.068.1222-1.517.3665-.443.2386-.792.571-1.048.9971-.256.4262-.383.9177-.383 1.4745v7.696zm14.772.2557c-1.312 0-2.446-.2727-3.4-.8182-.949-.5511-1.679-1.3295-2.191-2.3352-.511-1.0114-.767-2.2017-.767-3.5711 0-1.3465.256-2.5284.767-3.5454.517-1.0227 1.239-1.8182 2.165-2.3864.926-.5738 2.014-.8608 3.264-.8608.807 0 1.569.1307 2.284.3921.722.2557 1.358.6534 1.91 1.1932.556.5397.994 1.2272 1.312 2.0625.318.8295.477 1.8181.477 2.9659v.946h-10.73v-2.0795h7.773c-.006-.591-.134-1.1165-.384-1.5768-.25-.4659-.599-.8323-1.048-1.0994-.443-.267-.96-.4006-1.551-.4006-.631 0-1.185.1535-1.662.4603-.477.3011-.849.6988-1.116 1.1932-.262.4886-.395 1.0255-.401 1.6107v1.8154c0 .7614.139 1.4148.418 1.9602.278.5398.667.9546 1.167 1.2443.5.2841 1.085.4262 1.756.4262.449 0 .855-.0625 1.219-.1875.363-.1307.679-.321.946-.571s.468-.5597.605-.929l2.88.3238c-.181.7614-.528 1.4262-1.039 1.9944-.506.5625-1.154 1-1.943 1.3125-.79.3068-1.694.4602-2.711.4602zm18.778-9.8864-2.812.3068c-.08-.2841-.219-.5511-.418-.8011-.193-.25-.455-.4517-.784-.6051-.33-.1534-.733-.2301-1.21-.2301-.642 0-1.182.1392-1.62.4176-.432.2784-.645.6392-.639 1.0824-.006.3807.134.6903.418.929.289.2386.767.4346 1.431.588l2.233.4773c1.239.267 2.16.6903 2.762 1.2699.608.5795.915 1.338.92 2.2755-.005.8239-.247 1.5512-.724 2.1819-.472.625-1.128 1.1136-1.969 1.4659-.841.3522-1.807.5284-2.898.5284-1.602 0-2.892-.3352-3.869-1.0057-.977-.6761-1.56-1.6165-1.747-2.821l3.008-.2898c.137.5909.427 1.0369.87 1.3381.443.3011 1.02.4517 1.73.4517.733 0 1.321-.1506 1.764-.4517.449-.3012.673-.6733.673-1.1165 0-.375-.145-.6847-.434-.929-.284-.2443-.728-.4318-1.33-.5625l-2.233-.4687c-1.256-.2614-2.184-.7017-2.787-1.3211-.602-.625-.9-1.4147-.895-2.3693-.005-.8068.213-1.5057.657-2.0966.448-.5966 1.071-1.0568 1.866-1.3806.801-.3296 1.725-.4944 2.77-.4944 1.534 0 2.741.3267 3.622.9802.886.6534 1.435 1.5369 1.645 2.6505z" fill="#fff"/><g stroke="#fff" stroke-linecap="round" stroke-width="1.39994"><path d="m278.561 9.61254 4.427-7.96119"/><path d="m283.982 19.6025 10.343.3698"/><path d="m282.01 14.1189 14.684-9.12339"/></g></svg>