<svg fill="none" height="57" viewBox="0 0 211 57" width="211" xmlns="http://www.w3.org/2000/svg" xmlns:xlink="http://www.w3.org/1999/xlink"><filter id="a" color-interpolation-filters="sRGB" filterUnits="userSpaceOnUse" height="71.9688" width="225.367" x="-7.17578" y="-7.53516"><feFlood flood-opacity="0" result="BackgroundImageFix"/><feGaussianBlur in="BackgroundImageFix" stdDeviation="4"/><feComposite in2="SourceAlpha" operator="in" result="effect1_backgroundBlur_2359_9491"/><feBlend in="SourceGraphic" in2="effect1_backgroundBlur_2359_9491" mode="normal" result="shape"/></filter><linearGradient id="b" gradientUnits="userSpaceOnUse" x1=".824219" x2="203.671" y1=".464844" y2="67.6426"><stop offset="0" stop-color="#828282" stop-opacity=".8"/><stop offset="1" stop-color="#1a1a1a" stop-opacity=".4"/></linearGradient><g filter="url(#a)"><rect fill="url(#b)" height="55.9678" rx="27.9839" width="209.367" x=".824219" y=".464844"/></g><g fill="#fff"><path clip-rule="evenodd" d="m107 18.9531c1.069 0 2.165.0275 3.227.0725l1.256.06 1.201.0713 1.125.0762 1.027.08c1.115.0849 2.165.5606 2.964 1.3433s1.296 1.8222 1.404 2.9355l.05.5312.093 1.1375c.088 1.1788.153 2.4638.153 3.6925 0 1.2288-.065 2.5138-.153 3.6925l-.093 1.1375-.05.5313c-.108 1.1134-.605 2.1531-1.405 2.9359-.799.7827-1.849 1.2582-2.964 1.3428l-1.025.0788-1.125.0775-1.202.0712-1.256.06c-1.075.0466-2.151.0708-3.227.0725-1.076-.0017-2.152-.0259-3.227-.0725l-1.256-.06-1.201-.0712-1.125-.0775-1.0273-.0788c-1.1152-.0848-2.1647-.5605-2.9636-1.3432-.799-.7827-1.2961-1.8223-1.4039-2.9355l-.0499-.5313-.0938-1.1375c-.0952-1.2286-.1461-2.4602-.1525-3.6925 0-1.2287.065-2.5137.1525-3.6925l.0938-1.1375.0499-.5312c.1077-1.1131.6047-2.1525 1.4034-2.9351.7987-.7827 1.8479-1.2585 2.9629-1.3437l1.0265-.08 1.125-.0762 1.202-.0713 1.255-.06c1.076-.0466 2.152-.0707 3.229-.0725zm-2.5 6.9688v6.0625c0 .5775.625.9375 1.125.65l5.25-3.0313c.114-.0657.209-.1604.275-.2746.066-.1141.101-.2436.101-.3754s-.035-.2613-.101-.3754-.161-.2088-.275-.2746l-5.25-3.03c-.114-.0658-.243-.1005-.375-.1005-.132.0001-.261.0348-.375.1006-.114.0659-.209.1607-.275.2748-.065.114-.1.2434-.1.3751z" fill-rule="evenodd"/><path d="m125.336 23.7674h2.083l2.49 4.5043h.1l2.491-4.5043h2.083l-3.704 6.3835v3.7983h-1.84v-3.7983zm12.383 10.331c-.746 0-1.392-.1641-1.939-.4922s-.971-.7872-1.273-1.3772c-.298-.5899-.448-1.2793-.448-2.0681 0-.7889.15-1.4799.448-2.0732.302-.5933.726-1.054 1.273-1.3821s1.193-.4922 1.939-.4922c.745 0 1.392.1641 1.938.4922.547.3281.97.7888 1.268 1.3821.302.5933.453 1.2843.453 2.0732 0 .7888-.151 1.4782-.453 2.0681-.298.59-.721 1.0491-1.268 1.3772-.546.3281-1.193.4922-1.938.4922zm.01-1.4418c.404 0 .742-.111 1.014-.3331.272-.2254.474-.527.606-.9048.136-.3779.204-.7988.204-1.2628 0-.4673-.068-.8899-.204-1.2678-.132-.3811-.334-.6844-.606-.9098-.272-.2253-.61-.338-1.014-.338-.415 0-.759.1127-1.035.338-.271.2254-.475.5287-.611.9098-.133.3779-.199.8005-.199 1.2678 0 .464.066.8849.199 1.2628.136.3778.34.6794.611.9048.276.2221.62.3331 1.035.3331zm10.043-1.919v-4.4247h1.8v7.6363h-1.745v-1.3572h-.079c-.173.4275-.456.7772-.851 1.049-.391.2718-.873.4077-1.446.4077-.501 0-.943-.1111-1.328-.3331-.381-.2254-.679-.5519-.895-.9794-.215-.4309-.323-.9513-.323-1.5611v-4.8622h1.8v4.5838c0 .4839.132.8683.398 1.1534.265.285.613.4275 1.044.4275.265 0 .522-.0646.77-.1939.249-.1292.453-.3215.612-.5767.162-.2585.243-.5816.243-.9694zm2.572-5.424v-1.5462h8.124v1.5462h-3.148v8.6356h-1.829v-8.6356zm13.438 5.424v-4.4247h1.8v7.6363h-1.745v-1.3572h-.08c-.172.4275-.455.7772-.85 1.049-.391.2718-.873.4077-1.447.4077-.5 0-.943-.1111-1.327-.3331-.381-.2254-.679-.5519-.895-.9794-.215-.4309-.323-.9513-.323-1.5611v-4.8622h1.8v4.5838c0 .4839.132.8683.397 1.1534.266.285.614.4275 1.044.4275.266 0 .522-.0646.771-.1939.249-.1292.452-.3215.612-.5767.162-.2585.243-.5816.243-.9694zm3.73 3.2116v-10.1818h1.8v3.8082h.074c.093-.1856.224-.3828.393-.5916.169-.2121.398-.3927.686-.5419.289-.1524.656-.2287 1.104-.2287.59 0 1.122.1508 1.596.4524.477.2983.855.7408 1.133 1.3275.282.5833.423 1.2992.423 2.1477 0 .8385-.138 1.5511-.413 2.1378-.275.5866-.649 1.0341-1.123 1.3423s-1.011.4624-1.611.4624c-.438 0-.801-.073-1.089-.2188s-.52-.3215-.696-.527c-.172-.2088-.307-.406-.403-.5916h-.104v1.2031zm1.765-3.8182c0 .4939.07.9264.209 1.2976.142.3712.346.6612.611.8701.269.2054.594.3082.975.3082.397 0 .731-.1061.999-.3182.268-.2154.471-.5088.607-.88.139-.3745.208-.8004.208-1.2777 0-.4739-.068-.8948-.203-1.2627-.136-.3679-.339-.6563-.607-.8651s-.603-.3132-1.004-.3132c-.385 0-.711.1011-.98.3033-.268.2021-.472.4855-.611.8501-.136.3646-.204.7938-.204 1.2876zm10.355 3.9674c-.766 0-1.427-.1591-1.984-.4773-.554-.3215-.979-.7756-1.278-1.3622-.298-.59-.447-1.2843-.447-2.0831 0-.7855.149-1.4749.447-2.0682.302-.5966.723-1.0606 1.263-1.392.54-.3348 1.175-.5022 1.904-.5022.471 0 .915.0763 1.332.2287.421.1492.793.3812 1.114.696.325.3149.58.7159.766 1.2032.185.4839.278 1.0606.278 1.7301v.5518h-6.259v-1.213h4.534c-.003-.3447-.078-.6513-.224-.9198-.146-.2718-.349-.4855-.611-.6413-.259-.1558-.56-.2337-.905-.2337-.368 0-.691.0895-.969.2685-.279.1756-.496.4076-.652.696-.152.285-.23.5982-.233.9396v1.059c0 .4441.081.8253.243 1.1434.163.3149.39.5569.681.7259.292.1657.633.2486 1.024.2486.262 0 .499-.0365.711-.1094.212-.0762.396-.1873.552-.3331s.274-.3265.353-.5419l1.681.1889c-.106.4442-.309.8319-.607 1.1634-.295.3281-.673.5833-1.133.7656-.461.179-.988.2685-1.581.2685z"/><path d="m26.1744 33.9492-2.8736-10.1818h1.9836l1.8346 7.4822h.0944l1.9588-7.4822h1.8047l1.9638 7.4872h.0895l1.8345-7.4872h1.9837l-2.8736 10.1818h-1.8196l-2.0384-7.1442h-.0795l-2.0433 7.1442zm13.2915.1541c-.4839 0-.9197-.0861-1.3075-.2585-.3845-.1756-.6894-.4342-.9148-.7756-.2221-.3413-.3331-.7623-.3331-1.2627 0-.4309.0796-.7872.2386-1.0689.1591-.2818.3762-.5071.6513-.6762.2751-.169.585-.2966.9297-.3828.348-.0895.7076-.1541 1.0788-.1939.4475-.0464.8104-.0878 1.0888-.1243.2784-.0397.4806-.0994.6066-.1789.1292-.0829.1939-.2105.1939-.3828v-.0299c0-.3745-.1111-.6645-.3331-.87-.2221-.2055-.5419-.3082-.9596-.3082-.4408 0-.7904.0961-1.049.2883-.2552.1922-.4275.4193-.517.6811l-1.6804-.2386c.1326-.464.3513-.8518.6562-1.1634.305-.3148.6778-.5502 1.1186-.7059.4409-.1591.9281-.2387 1.4617-.2387.3679 0 .7341.0431 1.0987.1293s.6977.2287.9993.4275c.3016.1956.5436.4624.7259.8005.1856.338.2784.7606.2784 1.2677v5.1108h-1.7301v-1.049h-.0597c-.1094.2121-.2635.411-.4624.5966-.1955.1823-.4424.3298-.7407.4425-.295.1094-.6414.164-1.0391.164zm.4673-1.3224c.3613 0 .6745-.0713.9397-.2138.2651-.1458.469-.3381.6115-.5767.1458-.2386.2187-.4988.2187-.7805v-.8999c-.0563.0464-.1524.0895-.2883.1293-.1326.0397-.2818.0745-.4475.1044-.1657.0298-.3298.0563-.4922.0795s-.3032.0431-.4225.0597c-.2685.0364-.5088.0961-.7209.179-.2121.0828-.3795.1988-.5022.348-.1226.1458-.1839.3347-.1839.5667 0 .3315.121.5817.3629.7507.242.1691.5502.2536.9247.2536zm9.1875-6.468v1.392h-4.3899v-1.392zm-3.3061-1.8296h1.7997v7.169c0 .242.0365.4276.1094.5569.0763.1259.1757.2121.2983.2585s.2585.0696.4077.0696c.1127 0 .2154-.0083.3082-.0249.0961-.0165.1691-.0315.2188-.0447l.3032 1.4069c-.0961.0332-.2336.0696-.4126.1094-.1757.0398-.3911.063-.6463.0696-.4508.0133-.8568-.0547-1.218-.2038-.3613-.1525-.648-.3878-.8601-.706-.2088-.3182-.3116-.7159-.3083-1.1932zm8.0602 9.6151c-.7623 0-1.4169-.1674-1.9638-.5022-.5435-.3347-.9628-.7971-1.2578-1.387-.2916-.5933-.4375-1.2761-.4375-2.0483 0-.7756.1492-1.46.4475-2.0533.2983-.5966.7192-1.0606 1.2628-1.392.5468-.3348 1.1931-.5022 1.9389-.5022.6198 0 1.1683.1144 1.6456.3431.4806.2253.8634.5452 1.1484.9595.2851.411.4475.8916.4872 1.4417h-1.7201c-.0696-.3679-.2354-.6744-.4972-.9197-.2585-.2486-.6049-.3729-1.0391-.3729-.3679 0-.691.0995-.9694.2983-.2784.1956-.4955.4773-.6513.8452-.1525.3679-.2287.8087-.2287 1.3224 0 .5204.0762.9678.2287 1.3424.1525.3712.3662.6579.6413.8601.2784.1988.6049.2982.9794.2982.2652 0 .5022-.0497.711-.1491.2121-.1027.3894-.2502.5319-.4425.1426-.1922.2403-.4259.2934-.701h1.7201c-.0431.5403-.2021 1.0192-.4772 1.4368-.2751.4143-.6497.7391-1.1236.9745-.474.232-1.0308.348-1.6705.348zm6.5489-4.6236v4.4744h-1.7998v-10.1818h1.76v3.843h.0895c.1789-.4308.4557-.7706.8302-1.0191.3779-.2519.8585-.3779 1.4418-.3779.5303 0 .9926.1111 1.3871.3331.3944.2221.6993.5469.9147.9745.2188.4275.3282.9495.3282 1.566v4.8622h-1.7998v-4.5838c0-.5137-.1325-.9131-.3977-1.1981-.2618-.2884-.6297-.4326-1.1037-.4326-.3182 0-.6032.0696-.8551.2088-.2486.1359-.4441.3331-.5866.5917-.1392.2585-.2088.5717-.2088.9396zm19.4364-.6165c0 1.0971-.2055 2.0367-.6165 2.8189-.4077.7789-.9645 1.3755-1.6704 1.7898-.7027.4143-1.4998.6214-2.3914.6214s-1.6903-.2071-2.3963-.6214c-.7026-.4176-1.2595-1.0159-1.6704-1.7948-.4077-.7822-.6115-1.7201-.6115-2.8139 0-1.0971.2038-2.035.6115-2.8139.4109-.7822.9678-1.3805 1.6704-1.7948.706-.4143 1.5047-.6214 2.3963-.6214s1.6887.2071 2.3914.6214c.7059.4143 1.2627 1.0126 1.6704 1.7948.411.7789.6165 1.7168.6165 2.8139zm-1.8544 0c0-.7722-.121-1.4235-.3629-1.9538-.2387-.5336-.5701-.9363-.9944-1.2081-.4242-.2751-.9131-.4127-1.4666-.4127s-1.0424.1376-1.4666.4127c-.4242.2718-.7573.6745-.9993 1.2081-.2386.5303-.3579 1.1816-.3579 1.9538 0 .7723.1193 1.4252.3579 1.9588.242.5303.5751.933.9993 1.2081.4242.2718.9131.4077 1.4666.4077s1.0424-.1359 1.4666-.4077c.4243-.2751.7557-.6778.9944-1.2081.2419-.5336.3629-1.1865.3629-1.9588zm5.3183.6165v4.4744h-1.7997v-7.6363h1.7202v1.2975h.0895c.1756-.4275.4557-.7672.8402-1.0191.3878-.2519.8667-.3779 1.4368-.3779.527 0 .986.1127 1.3771.3381.3944.2254.6993.5518.9148.9794.2187.4276.3264.9463.3231 1.5561v4.8622h-1.7997v-4.5838c0-.5104-.1326-.9098-.3977-1.1981-.2619-.2884-.6248-.4326-1.0888-.4326-.3149 0-.5949.0696-.8402.2088-.2419.1359-.4325.3331-.5717.5917-.1359.2585-.2039.5717-.2039.9396z"/></g></svg>