<svg fill="none" height="82" viewBox="0 0 96 82" width="96" xmlns="http://www.w3.org/2000/svg" xmlns:xlink="http://www.w3.org/1999/xlink"><filter id="a" color-interpolation-filters="sRGB" filterUnits="userSpaceOnUse" height="81.3301" width="94.6641" x=".667969" y=".289062"><feFlood flood-opacity="0" result="BackgroundImageFix"/><feColorMatrix in="SourceAlpha" result="hardAlpha" type="matrix" values="0 0 0 0 0 0 0 0 0 0 0 0 0 0 0 0 0 0 127 0"/><feOffset dy="7"/><feGaussianBlur stdDeviation="7"/><feComposite in2="hardAlpha" operator="out"/><feColorMatrix type="matrix" values="0 0 0 0 0 0 0 0 0 0 0 0 0 0 0 0 0 0 0.5 0"/><feBlend in2="BackgroundImageFix" mode="normal" result="effect1_dropShadow_2359_9500"/><feBlend in="SourceGraphic" in2="effect1_dropShadow_2359_9500" mode="normal" result="shape"/></filter><g filter="url(#a)"><path d="m61.3477 33.9004-20.0186 11.5577v-23.1154z" fill="#fff"/><path d="m48.8146 7.28906c1.78.01 6.2334.05334 10.9667.24334l1.68.07333c4.7633.22333 9.5233.61 11.8867 1.26667 3.15.88666 5.6233 3.4667 6.46 6.74 1.3333 5.2 1.5 15.34 1.52 17.7967l.0033.5066v.58c-.0233 2.4567-.19 12.6-1.5233 17.7967-.8467 3.2833-3.3234 5.8667-6.46 6.74-2.3634.6567-7.1234 1.0433-11.8867 1.2667l-1.68.0766c-4.7333.1867-9.1867.2334-10.9667.24l-.7833.0034h-.85c-3.7667-.0234-19.52-.1934-24.5333-1.5867-3.1467-.8867-5.6234-3.4667-6.46-6.74-1.3334-5.2-1.5-15.34-1.52-17.7967v-1.0866c.02-2.4567.1866-12.6 1.52-17.7967.8466-3.2833 3.3233-5.86667 6.4633-6.73667 5.01-1.39667 20.7667-1.56667 24.5333-1.58667zm-7.4833 15.00004v23.3333l20-11.6667z" fill="#dc0000"/></g></svg>