<svg width="24" height="24" viewBox="0 0 24 24" fill="none" xmlns="http://www.w3.org/2000/svg">
<g clip-path="url(#clip0_204_159)">
<path fill-rule="evenodd" clip-rule="evenodd" d="M18.3152 4.69995C19.2152 4.69995 19.9152 5.40002 20.0152 6.30005L21.0152 19.8C21.1152 20.9 20.8152 22 20.0152 22.8C19.3152 23.6 18.2152 24.1 17.1152 24.1H5.9152C4.81523 24.1 3.71522 23.6 3.01521 22.8C2.31523 22 1.9152 20.9 2.01521 19.8L3.11521 6.30005C3.21522 5.40002 3.9152 4.69995 4.81523 4.69995H6.9152C6.9152 2.09998 8.9152 0 11.5152 0C14.1152 0 16.2152 2.09998 16.2152 4.69995H18.3152ZM14.8152 4.69995C14.8152 2.90002 13.4152 1.5 11.6152 1.5C9.81523 1.5 8.4152 2.90002 8.4152 4.69995H14.8152ZM17.2152 22.6C17.9152 22.6 18.5152 22.3 19.0152 21.8C19.4152 21.3 19.7152 20.6 19.6152 20L18.8152 6.5C18.8152 6.46106 18.8 6.42212 18.7756 6.38904C18.7373 6.33728 18.6762 6.30005 18.6152 6.30005H16.5152V8C16.5152 8.5 16.1152 8.80005 15.7152 8.80005C15.2152 8.80005 14.9152 8.40002 14.9152 8V6.30005H8.51521V8C8.51521 8.5 8.11521 8.80005 7.71522 8.80005C7.21522 8.80005 6.9152 8.40002 6.9152 8V6.30005H4.81523C4.71522 6.30005 4.61521 6.40002 4.61521 6.5L3.61521 19.9C3.51521 20.6 3.71522 21.3 4.21522 21.8C4.71522 22.3 5.31523 22.6 6.01521 22.6H17.2152ZM14.3152 15.1C14.5152 15 14.7152 14.9 14.9152 14.9C15.1152 14.9 15.3152 15 15.5152 15.1C15.8152 15.5 15.8152 16 15.5152 16.3L12.2152 19.6C12.1152 19.7 12.0152 19.8 11.9152 19.8C11.8333 19.882 11.7513 19.8967 11.6693 19.8994C11.6513 19.9 11.6332 19.9 11.6152 19.9C11.4152 19.9 11.2152 19.8 11.0152 19.7L7.71522 16.4C7.61521 16.2 7.51521 16 7.51521 15.8C7.51521 15.6 7.51521 15.4 7.71522 15.2C7.9152 15.1 8.11521 15 8.31523 15C8.51521 15 8.71522 15 8.9152 15.2L10.9152 17.2L10.8152 11.3C10.8152 10.9 11.2152 10.5 11.6152 10.5C12.0152 10.5 12.4152 10.8 12.4152 11.3V17.2L14.3152 15.1Z" fill="#3354F4"/>
</g>
<defs>
<clipPath id="clip0_204_159">
<rect width="24" height="24" fill="white"/>
</clipPath>
</defs>
</svg>
