<svg width="34" height="24" viewBox="0 0 34 24" fill="none" xmlns="http://www.w3.org/2000/svg">
<g clip-path="url(#clip0_204_194)">
<path fill-rule="evenodd" clip-rule="evenodd" d="M31.5 8.90002L33.8 11.8C33.85 11.8501 33.9 11.925 33.95 12C34 12.075 34.05 12.1499 34.1 12.2V19.3C34.1 19.8 33.7 20.1 33.3 20.1H29.9L29.8 20.3C29.3 22.1 27.7 23.3 25.9 23.3C24.1 23.3 22.5 22.1 22 20.3L21.9 20.1H14.9L14.8 20.3C14.3 22.1 12.7 23.3 10.9 23.3C9.10001 23.3 7.5 22.1 7 20.3V20.4H3.90001C3.40001 20.4 3.10001 20.1 3.10001 19.6C3.10001 19.1 3.5 18.8 3.90001 18.8H6.8L6.90001 18.6C7.40001 16.8 9 15.5 10.8 15.5C12.6 15.5 14.2 16.8 14.7 18.6L14.8 18.8H21.8L21.9 18.6C22.4 16.8 24 15.5 25.8 15.5C27.6 15.5 29.2 16.8 29.7 18.6L29.8 18.8H32.5V12.7L30.7 10.4H22.1C21.6 10.4 21.3 10 21.3 9.59998V1.59998H3.90001C3.40001 1.59998 3.10001 1.30005 3.10001 0.800049C3.10001 0.300049 3.40001 0 3.90001 0H22C22.5 0 22.8 0.300049 22.8 0.800049V2.30005H27.8C28.1 2.30005 28.4 2.40002 28.5 2.69995L31.6 8.90002H31.5ZM22.8 3.69995V8.69995H29.8L27.3 3.69995H22.8ZM8.40001 19.3C8.40001 20.7 9.5 21.8 10.9 21.8C12.3 21.8 13.4 20.7 13.4 19.3C13.4 17.9 12.3 16.8 10.9 16.8C9.5 16.8 8.40001 17.9 8.40001 19.3ZM23.3 19.3C23.3 20.7 24.4 21.8 25.8 21.8C27.2 21.8 28.3 20.7 28.3 19.3C28.3 17.9 27.2 16.8 25.8 16.8C24.4 16.8 23.3 17.9 23.3 19.3ZM10 8.69995C10.5 8.69995 10.8 9.09998 10.8 9.5C10.8 9.8999 10.5 10.2999 10.1 10.2999H0.800003C0.300003 10.2999 0 9.8999 0 9.5C0 9.09998 0.300003 8.79993 0.800003 8.69995H10Z" fill="#3354F4"/>
</g>
<defs>
<clipPath id="clip0_204_194">
<rect width="34" height="24" fill="white"/>
</clipPath>
</defs>
</svg>
