<svg width="43" height="24" viewBox="0 0 43 24" fill="none" xmlns="http://www.w3.org/2000/svg">
<g clip-path="url(#clip0_204_136)">
<path fill-rule="evenodd" clip-rule="evenodd" d="M40.8 0H2.3C1 0 0 1 0 2.30005V14C0 15.3 1 16.3 2.3 16.3H15.2V16.1C15.1 15.7 15.1 15.3 15.2 14.9H2.3C1.8 14.9 1.39999 14.5 1.39999 14V2.30005C1.39999 1.80005 1.8 1.40002 2.3 1.40002H40.8C41.3 1.40002 41.7 1.80005 41.7 2.30005V14C41.7 14.5 41.3 14.9 40.8 14.9H25.9C26.2 15.3 26.5 15.8 26.6 16.3H40.9C42.2 16.3 43.2 15.3 43.2 14V2.30005C43.1 1 42.1 0 40.8 0ZM10.8 4.90002C10.3 4.59998 9.8 4.5 9.2 4.5C8.60001 4.5 8.10001 4.59998 7.60001 4.90002C7.2 5.19995 6.90001 5.59998 6.60001 6.09998C6.40001 6.69995 6.3 7.30005 6.3 8V8.30005C6.3 9 6.40001 9.59998 6.7 10.1C7 10.6 7.3 11 7.8 11.3C8.3 11.6 8.8 11.7 9.40001 11.7C10 11.7 10.5 11.6 11 11.3C11.5 11 11.8 10.6 12.1 10.1C12.3 9.59998 12.5 9 12.5 8.30005V8C12.5 7.30005 12.4 6.69995 12.1 6.19995L12.0336 6.12012L11.9637 6.03552L11.943 6.01062C11.5322 5.51392 11.2455 5.16724 10.8 4.90002ZM10.8 8.30005C10.8 9 10.7 9.59998 10.4 10C10.1 10.4 9.8 10.6 9.3 10.6C8.8 10.6 8.40001 10.4 8.2 10C8 9.59998 7.7 9 7.7 8.30005V7.90002C7.7 7.19995 7.8 6.59998 8.10001 6.19995C8.40001 5.80005 8.7 5.59998 9.2 5.59998C9.7 5.59998 10.1 5.80005 10.3 6.19995C10.6 6.59998 10.7 7.09998 10.7 7.90002V8.30005H10.8ZM18.2 7.90002C18.4 7.59998 18.5 7.19995 18.5 6.69995C18.5 6 18.3 5.5 17.8 5.09998C17.3 4.69995 16.7 4.5 15.9 4.5H13.3V11.5H14.8V9.09998H16L17.3 11.7H18.9V11.6L17.4 8.69995C17.7 8.5 18 8.19995 18.2 7.90002ZM16.8 7.59998C16.6 7.80005 16.3 7.90002 16 7.90002H14.8V5.80005H16C16.4 5.80005 16.7 5.90002 16.9 6.09998C17.1 6.30005 17.2 6.59998 17.2 6.90002C17.1 7.19995 17 7.40002 16.8 7.59998ZM25 8.29993C25 8.90002 24.9 9.5 24.6 10C24.3 10.5 24 10.9 23.5 11.2C23 11.5 22.4 11.6 21.8 11.6H19.6V4.59998H21.8C22.5 4.59998 23 4.69995 23.5 5C23.9 5.29993 24.3 5.69995 24.6 6.19995C24.9 6.79993 25 7.29993 25 8V8.29993ZM21.1 10.5H21.8C22.3 10.5 22.7 10.4 23 10C23.3 9.59998 23.5 9.09998 23.5 8.40002V8C23.5 7.29993 23.4 6.79993 23.1 6.40002C22.8 6 22.4 5.79993 21.8 5.79993H21.1V10.5ZM30.8 5.79993V4.59998H26.1V11.6H30.8V10.5H27.5V8.59998H30.3V7.40002H27.5V5.79993H30.8ZM36.8 6.69995C36.8 7.19995 36.7 7.59998 36.5 7.90002C36.3 8.19995 36 8.5 35.7 8.69995L37.2 11.6V11.7H35.6L34.3 9.09998H33.1V11.5H31.6V4.5H34.2C35 4.5 35.6 4.69995 36.1 5.09998C36.6 5.5 36.8 6 36.8 6.69995ZM34.3 7.90002C34.6 7.90002 34.9 7.80005 35.1 7.59998C35.3 7.40002 35.4 7.19995 35.5 6.90002C35.5 6.59998 35.4 6.30005 35.2 6.09998C35 5.90002 34.7 5.80005 34.3 5.80005H33.1V7.90002H34.3ZM24.5 18L24 18.3L26.2 20.2001C26.5 20.5 26.6 20.8 26.6 21.2001C26.6 21.6 26.5 21.9 26.2 22.2001L24.9 23.5C24.6 23.8 24.3 23.9 23.9 23.9C23.5 23.9 23.2 23.8 22.9 23.5L20.7 21.4L20.4 22C20.1 22.5 19.5 22.8 18.9 22.7001C18.4 22.6 17.9 22.1 17.8 21.6L16.5 15.7001C16.4 15.3 16.6 14.8 16.9 14.5C17.2 14.1 17.7 14 18.2 14.1L24.1 15.3C24.7 15.5 25.1 15.9 25.2 16.5C25.3 17.1 25 17.7001 24.5 18ZM24.2 22.3L24.9 21.6C25.1 21.5 25.1 21.2001 24.7 21.1L21.8 18.4C21.7 18.2001 21.7 17.9 21.9 17.8L23.6 16.8L17.8 15.5L19.1 21.4L20.1 19.6C20.2 19.4 20.5 19.3 20.7 19.5L23.6 22.3C23.8 22.5 24 22.5 24.2 22.3Z" fill="#3354F4"/>
</g>
<defs>
<clipPath id="clip0_204_136">
<rect width="43" height="24" fill="white"/>
</clipPath>
</defs>
</svg>
