<svg width="24" height="24" viewBox="0 0 24 24" fill="none" xmlns="http://www.w3.org/2000/svg">
<g clip-path="url(#clip0_204_183)">
<path d="M20.0152 6.3C19.9152 5.4 19.2152 4.7 18.3152 4.7H16.2152C16.2152 2.1 14.1152 0 11.5152 0C8.91521 0 6.91521 2.1 6.91521 4.7H4.81521C3.91521 4.7 3.21521 5.4 3.11521 6.3L2.01521 19.8C1.91521 20.9 2.31521 22 3.01521 22.8C3.71521 23.6 4.81521 24.1 5.91521 24.1H17.1152C18.2152 24.1 19.3152 23.6 20.0152 22.8C20.8152 22 21.1152 20.9 21.0152 19.8L20.0152 6.3ZM11.6152 1.5C13.4152 1.5 14.8152 2.9 14.8152 4.7H8.41521C8.41521 2.9 9.81521 1.5 11.6152 1.5ZM19.0152 21.8C18.5152 22.3 17.9152 22.6 17.2152 22.6H6.01521C5.31521 22.6 4.71521 22.3 4.21521 21.8C3.71521 21.3 3.51521 20.6 3.61521 19.9L4.61521 6.5C4.61521 6.4 4.71521 6.3 4.81521 6.3H6.91521V8C6.91521 8.4 7.21521 8.8 7.71521 8.8C8.11521 8.8 8.51521 8.5 8.51521 8V6.3H14.9152V8C14.9152 8.4 15.2152 8.8 15.7152 8.8C16.1152 8.8 16.5152 8.5 16.5152 8V6.3H18.6152C18.7152 6.3 18.8152 6.4 18.8152 6.5L19.6152 20C19.7152 20.6 19.4152 21.3 19.0152 21.8Z" fill="#3354F4"/>
</g>
<defs>
<clipPath id="clip0_204_183">
<rect width="24" height="24" fill="white"/>
</clipPath>
</defs>
</svg>
