<svg width="24" height="24" viewBox="0 0 24 24" fill="none" xmlns="http://www.w3.org/2000/svg">
<g clip-path="url(#clip0_204_215)">
<path fill-rule="evenodd" clip-rule="evenodd" d="M24 6.30154C24 7.08923 23.3108 7.77846 22.5231 7.77846H18.1908C17.3046 7.77846 16.7138 7.08923 16.7138 6.30154V3.05231C16.7138 2.56 16.9108 2.16615 17.3046 1.87077L19.4708 0.295385C20.0615 -0.0984615 20.7508 -0.0984615 21.2431 0.295385L23.4092 1.87077C23.8031 2.16615 24 2.56 24 3.05231V6.30154ZM20.3569 1.47692L18.1908 3.05231V6.30154H19.6677V5.61231C19.6677 5.21846 19.9631 4.92308 20.3569 4.92308C20.7508 4.92308 21.0462 5.21846 21.0462 5.61231V6.30154H22.5231V3.05231L20.3569 1.47692ZM17.4031 16.4431H23.2123C23.6061 16.4431 23.9015 16.7385 23.9015 17.1323V22.9415C23.9015 23.3354 23.6061 23.6308 23.2123 23.6308H7.35999C6.96615 23.6308 6.67076 23.3354 6.67076 22.9415C6.67076 22.5477 6.96615 22.2523 7.35999 22.2523H22.5231V17.92H16.7138C16.32 17.92 16.0246 17.6246 16.0246 17.2308V12.8985C16.0246 12.5046 16.32 12.2092 16.7138 12.2092H19.5692V10.0431C19.5692 9.64923 19.8646 9.35384 20.2584 9.35384C20.6523 9.35384 20.9477 9.64923 20.9477 10.0431V12.8985C20.9477 13.2923 20.6523 13.5877 20.2584 13.5877H17.4031V16.4431ZM8.73846 20.6769L12.48 16.9354C15.3354 14.08 15.3354 9.45233 12.48 6.59695C9.62461 3.74156 4.99692 3.74156 2.14154 6.59695C-0.713846 9.45233 -0.713846 14.08 2.14154 16.9354L5.88308 20.6769L6.17846 20.8739C6.47384 21.0708 6.86769 21.2677 7.26154 21.2677C7.85231 21.2677 8.34461 21.0708 8.73846 20.6769ZM7.06461 19.5939L6.76923 19.3969L3.22461 15.7539C0.96 13.4893 0.96 9.94464 3.22461 7.68002C5.48923 5.41541 9.03384 5.41541 11.2985 7.68002C13.5631 9.94464 13.5631 13.4893 11.2985 15.7539L7.55692 19.4954C7.45846 19.6923 7.16307 19.6923 7.06461 19.5939ZM7.36001 8.86154C8.93539 8.86154 10.2154 10.1415 10.2154 11.7169C10.2154 13.2923 8.93539 14.5723 7.36001 14.5723C5.78463 14.5723 4.50463 13.2923 4.50463 11.7169C4.50463 10.1415 5.78463 8.86154 7.36001 8.86154ZM6.08001 11.7169C6.08001 12.4061 6.67078 12.9969 7.36001 12.9969C8.04924 12.9969 8.64001 12.4061 8.64001 11.7169C8.64001 11.0277 8.04924 10.4369 7.36001 10.4369C6.67078 10.4369 6.08001 11.0277 6.08001 11.7169Z" fill="#3354F4"/>
</g>
<defs>
<clipPath id="clip0_204_215">
<rect width="24" height="24" fill="white"/>
</clipPath>
</defs>
</svg>
