<svg width="24" height="24" viewBox="0 0 24 24" fill="none" xmlns="http://www.w3.org/2000/svg">
<g clip-path="url(#clip0_203_66)">
<path fill-rule="evenodd" clip-rule="evenodd" d="M10.1 12.2027C5.5 12.2027 1.79999 15.9026 1.79999 20.5026C1.79999 21.4026 2.5 22.1026 3.39999 22.1026H19.8C19.2 23.2027 18.1 23.9026 16.8 23.9026H3.39999C1.5 23.9026 0 22.4026 0 20.5026C0 16.3026 2.60001 12.5026 6.5 11.0026C5 9.80265 4 8.0026 4 6.0026C4 2.70267 6.79999 -0.0973782 10.2 0.00259735C13.5 0.00259735 16.3 2.70267 16.3 6.10257C16.3 8.10257 15.4 9.90262 13.8 11.1026C14.5 11.4026 15.2 11.7027 15.9 12.2027V14.5026C14.4 13.1026 12.3 12.2027 10.1 12.2027ZM10.1 1.70267C7.70001 1.70267 5.79999 3.60257 5.79999 6.0026C5.79999 8.40262 7.79999 10.4026 10.1 10.3026C12.5 10.3026 14.4 8.40262 14.4 6.0026C14.4 3.60257 12.5 1.70267 10.1 1.70267ZM22.5 15.5026C22.7 15.5026 22.9 15.6026 23.1 15.8025C23.4 16.2025 23.4 16.7025 23 17.1026L19.7 20.4026C19.6383 20.4643 19.5766 20.5259 19.5149 20.5641C19.4766 20.5879 19.4383 20.6026 19.4 20.6026C19.3 20.7025 19.2 20.7025 19.1 20.7025C18.9 20.7025 18.7 20.6026 18.5 20.4026L15.2 17.1026C14.9 16.7025 14.9 16.1026 15.2 15.8025C15.3 15.6026 15.6 15.5026 15.8 15.5026C16 15.5026 16.2 15.6026 16.4 15.8025L18.3 17.7025L18.2 11.0026C18.2 10.5026 18.6 10.1026 19.1 10.1026C19.6 10.1026 20 10.5026 20 11.0026V17.8025L21.9 15.8025C22 15.6026 22.3 15.5026 22.5 15.5026Z" fill="#3354F4"/>
</g>
<defs>
<clipPath id="clip0_203_66">
<rect width="24" height="24" fill="white"/>
</clipPath>
</defs>
</svg>
