<svg width="24" height="24" viewBox="0 0 24 24" fill="none" xmlns="http://www.w3.org/2000/svg">
<path fill-rule="evenodd" clip-rule="evenodd" d="M10.71 21.8L4.31003 14.3C3.81003 13.7 3.41004 13.1 3.21003 12.5C2.31003 10.1 2.61002 7.30005 4.11002 5.09998C5.61002 2.90002 8.01001 1.69995 10.71 1.69995C13.41 1.69995 15.81 3 17.31 5.09998C18.31 6.5 18.81 8.19995 18.71 9.90002C19.21 9.69995 19.71 9.5 20.31 9.5H20.41C20.41 7.59998 19.81 5.69995 18.71 4.09998C16.81 1.5 13.91 0 10.71 0C7.51001 0 4.61002 1.5 2.71003 4.19995C0.910038 6.80005 0.510014 10.2 1.61002 13.1C1.91004 13.9 2.41004 14.7 3.01001 15.4L10.01 23.7C10.21 23.9 10.51 24 10.71 24C10.91 24 11.21 23.9 11.31 23.7L11.71 23.2C11.51 23.1 11.41 23 11.21 22.8C11.01 22.5 10.81 22.2 10.71 21.8ZM6.01001 9.69995C6.01001 12.3 8.11002 14.4 10.71 14.4C13.31 14.4 15.41 12.3 15.41 9.69995C15.41 7.09998 13.31 5 10.71 5C8.11002 5 6.01001 7.09998 6.01001 9.69995ZM13.71 9.69995C13.71 11.4 12.31 12.7 10.71 12.7C9.01001 12.7 7.71003 11.3 7.71003 9.69995C7.71003 8 9.11002 6.69995 10.71 6.69995C12.41 6.69995 13.71 8 13.71 9.69995ZM22.21 11.5L22.71 12C23.71 13 23.71 14.6001 22.71 15.7001L16.81 21.6001C16.61 21.8 16.31 21.9 16.01 22L13.51 22.5H13.21C12.81 22.5 12.41 22.3 12.11 22C11.71 21.6001 11.51 21.1001 11.61 20.6001L12.11 18.1001C12.21 17.8 12.41 17.5 12.61 17.3L18.51 11.4C19.01 11 19.71 10.8 20.41 10.8C21.11 10.8 21.71 11 22.21 11.5ZM21.21 14.7001L21.41 14.5C21.61 14.3 21.71 14.1001 21.71 14C21.71 13.7001 21.61 13.5 21.41 13.3L20.91 12.8C20.81 12.7001 20.51 12.6001 20.31 12.6001C20.11 12.6001 19.91 12.7001 19.71 12.8L19.4615 13.0486L21.21 14.7001ZM18.4601 14.05L20.21 15.8L15.61 20.4L13.41 20.8L13.81 18.7001L18.4601 14.05Z" fill="#3354F4"/>
</svg>
