<svg width="24" height="24" viewBox="0 0 24 24" fill="none" xmlns="http://www.w3.org/2000/svg">
<path fill-rule="evenodd" clip-rule="evenodd" d="M19.9 0C20.7 0 21.5 0.300049 22 0.900024C22.6 1.5 22.9 2.30005 22.9 3.09998V6.90002C22.9 8 22 8.80005 21 8.80005H18.5V22.4C18.5 22.8 18.3 23.1 18 23.3C17.9586 23.3 17.9 23.3171 17.8314 23.3373C17.7343 23.3657 17.6172 23.4 17.5 23.4C17.4 23.4 17.2 23.4 17 23.3L14.1 21.5H13.9C13.85 21.5 13.825 21.525 13.8 21.55C13.775 21.5751 13.75 21.6 13.7 21.6L10.4 23.6C10.2 23.7 10 23.8 9.79999 23.8C9.70001 23.8 9.5 23.7 9.29999 23.6L6 21.6H5.79999C5.70001 21.6 5.70001 21.7 5.60001 21.7L2.70001 23.5C2.5 23.6 2.29999 23.7 2.10001 23.7C1.79999 23.7 1.5 23.6 1.29999 23.4C1.10001 23.2 1 22.9 1 22.6V3.09998C1 1.40002 2.39999 0 4.10001 0H19.9ZM17 21.9V2.90002C17 2.40002 17.1 2 17.3 1.59998L4 1.5C3.60001 1.5 3.20001 1.69995 2.89999 2C2.60001 2.30005 2.5 2.69995 2.5 3.09998V21.8L4.79999 20.5C5.10001 20.3 5.5 20.2 5.79999 20.2C6.20001 20.2 6.5 20.3 6.79999 20.5L9.79999 22.3L12.9 20.5C13.1 20.3 13.5 20.2 13.8 20.2C14.1 20.2 14.4 20.3 14.7 20.5L17 21.9ZM21 7.59998C21.2 7.59998 21.4 7.40002 21.4 7.19995H21.3V3.09998C21.3 2.19995 20.6 1.5 19.7 1.5C19.4 1.5 19.1 1.59998 18.8 1.90002C18.5 2.19995 18.4 2.5 18.4 2.90002V7.59998H21ZM8.69998 13.9C9 14.2 9.29999 14.2999 9.79999 14.2999C10.3 14.2999 10.6 14.2 10.8 14.1C11.1 13.9 11.2 13.6 11.2 13.2C11.2 12.7999 11.1 12.5 10.9 12.2999C10.7 12.1 10.3 11.9 9.79999 11.7C9.6398 11.6359 9.4899 11.5822 9.35025 11.532C9.05399 11.4257 8.80389 11.3359 8.59998 11.2C7.69998 10.7 7.19998 9.90002 7.19998 8.90002C7.19998 8.19995 7.39999 7.59998 7.79999 7.19995C8.19998 6.79993 8.69998 6.5 9.29999 6.40002V5.09998H10.3V6.40002C11 6.5 11.5 6.79993 11.9 7.29993C12.3 7.79993 12.5 8.40002 12.5 9.19995H11C11 8.69995 10.9 8.29993 10.7 8C10.5 7.69995 10.2 7.59998 9.79999 7.59998C9.39999 7.59998 9.09998 7.69995 8.89999 7.90002C8.69998 8.09998 8.59998 8.40002 8.59998 8.79993C8.59998 9.19995 8.79999 9.5 9 9.69995C9.19998 9.90002 9.59998 10.1 10.1 10.2C10.2604 10.2642 10.4106 10.3181 10.5505 10.3683C10.8464 10.4745 11.0963 10.5642 11.3 10.7L11.3019 10.701C11.6013 10.9008 11.9004 11.1003 12.1 11.2999C12.3 11.5 12.5 11.7 12.6 12C12.7 12.2999 12.8 12.6 12.8 13C12.8 13.7 12.6 14.2999 12.2 14.7C11.7 15.2 11.2 15.4 10.4 15.5V16.7H9.39999V15.5C8.59998 15.4 7.89999 15.1 7.5 14.6C7 14.2 6.79999 13.5 6.79999 12.7H8.29999C8.29999 13.2 8.39999 13.6 8.69998 13.9Z" fill="#3354F4"/>
</svg>
