<svg width="24" height="24" viewBox="0 0 24 24" fill="none" xmlns="http://www.w3.org/2000/svg">
<g clip-path="url(#clip0_204_123)">
<path fill-rule="evenodd" clip-rule="evenodd" d="M3.3859 22.2075H16.332L16.5311 23.1038C16.5419 23.1362 16.5527 23.1698 16.5638 23.2041C16.6547 23.4866 16.7627 23.8225 17.0291 24H16.9295H3.3859C1.49378 24 0 22.5062 0 20.6141C0 16.4316 2.58921 12.6473 6.47304 11.2531C4.87967 10.0581 3.98341 8.26557 3.98341 6.27387C3.98341 2.88797 6.77179 0.0995852 10.1577 0C13.444 0 16.2324 2.78838 16.2324 6.17428C16.2324 8.16598 15.3361 9.95852 13.7428 11.1535C14.2407 11.3527 15.4357 11.9502 16.0332 12.3486L13.9419 13.2448C12.8465 12.6473 11.5519 12.3486 10.1577 12.3486C5.57677 12.3486 1.79253 16.0332 1.79253 20.6141C1.79253 21.5104 2.58921 22.2075 3.3859 22.2075ZM10.0581 1.9917C7.66806 1.9917 5.77594 3.88382 5.77594 6.27387C5.77594 8.56432 7.76764 10.556 10.0581 10.556C12.3486 10.556 14.3403 8.66391 14.3403 6.27387C14.3403 3.88382 12.4481 1.9917 10.0581 1.9917ZM22.9046 10.7552C23.1038 10.7552 23.4025 10.8548 23.5021 11.054C23.6017 11.3528 23.6017 11.5519 23.5021 11.7511L18.9212 23.0042C18.8216 23.303 18.5228 23.5021 18.2241 23.5021C17.8257 23.5021 17.527 23.303 17.4274 22.9046L16.5311 17.8258L11.4523 16.9295C11.1535 16.8299 10.8548 16.5312 10.8548 16.2324C10.8548 15.8341 11.0539 15.5353 11.3527 15.4357L22.6058 10.8548C22.7054 10.7552 22.805 10.7552 22.9046 10.7552ZM17.9253 17.0291L18.5228 20.0167L21.4108 12.9461L14.2407 15.8341L17.3278 16.4316C17.6266 16.4316 17.8257 16.7304 17.9253 17.0291Z" fill="#3354F4"/>
</g>
<defs>
<clipPath id="clip0_204_123">
<rect width="24" height="24" fill="white"/>
</clipPath>
</defs>
</svg>
