<svg width="36" height="24" viewBox="0 0 36 24" fill="none" xmlns="http://www.w3.org/2000/svg">
<path fill-rule="evenodd" clip-rule="evenodd" d="M0 19.4C0 20.9 1.2 22.2 2.8 22.2H14.3C15.8 22.2 17.1 21 17.1 19.4C17.1 15.9 14.9 12.7 11.6 11.4C12.9 10.4 13.7 8.8 13.7 7.2C13.7 4.3 11.3 2 8.5 2C5.7 2 3.4 4.3 3.4 7.2C3.4 8.9 4.2 10.4 5.5 11.4C2.2 12.7 0 15.9 0 19.4ZM1.5 19.3C1.5 15.4 4.6 12.3 8.5 12.3C12.4 12.3 15.5 15.5 15.5 19.3C15.5 20 14.9 20.6 14.2 20.6H2.8C2.1 20.6 1.5 20 1.5 19.3ZM4.9 7.1C4.9 5.1 6.5 3.5 8.5 3.5C10.5 3.5 12.1 5.1 12.1 7.1C12.1 9.1 10.5 10.7 8.5 10.7C6.5 10.7 4.9 9.1 4.9 7.1ZM20.7 7.99998H35.2C35.6 7.99998 36 7.69998 35.9 7.29998C35.9 6.89998 35.6 6.59998 35.2 6.59998H20.7C20.3 6.59998 20 6.89998 20 7.29998C20 7.69998 20.3 7.99998 20.7 7.99998ZM20.7 12.8H35.2C35.6 12.8 36 12.5 35.9 12.1C35.9 11.7 35.6 11.4 35.2 11.4H20.7C20.3 11.4 20 11.7 20 12.1C20 12.5 20.3 12.8 20.7 12.8ZM31.2 17.6H20.7C20.3 17.6 20 17.3 20 16.8C20 16.4 20.3 16.1 20.7 16.1H31.2C31.6 16.1 32 16.4 32 16.8C32 17.3 31.6 17.6 31.2 17.6Z" fill="#3354F4"/>
</svg>
