<svg width="24" height="24" viewBox="0 0 24 24" fill="none" xmlns="http://www.w3.org/2000/svg">
<path fill-rule="evenodd" clip-rule="evenodd" d="M22.1609 1H1.83908C0.827586 1 0 1.83544 0 2.85654V21.1435C0 21.6076 0.183908 22.0717 0.551724 22.443C0.91954 22.8143 1.37931 23 1.83908 23H22.2529C22.7126 23 23.1724 22.8143 23.5402 22.443C23.6322 22.3502 23.7241 22.2574 23.7241 22.1646C23.908 21.8861 24 21.5148 24 21.1435V2.85654C24 1.83544 23.1724 1 22.1609 1ZM7.63218 21.6076H1.83908C1.56322 21.6076 1.37931 21.4219 1.37931 21.1435V16.1308H7.63218V21.6076ZM7.63218 14.7384H1.37931V9.2616H7.63218V14.7384ZM14.9885 21.6076H9.01149V16.1308H14.9885V21.6076ZM14.9885 14.7384H9.01149V9.2616H14.9885V14.7384ZM22.6207 21.1435C22.6207 21.4219 22.4368 21.6076 22.1609 21.6076H16.3678V16.1308H22.6207V21.1435ZM22.6207 14.7384H16.3678V9.2616H22.6207V14.7384ZM22.6207 7.8692H1.37931V2.85654C1.37931 2.57806 1.56322 2.39241 1.83908 2.39241H22.2529C22.5287 2.39241 22.7126 2.57806 22.7126 2.85654V7.8692H22.6207Z" fill="#3354F4"/>
</svg>
