<svg width="24" height="24" viewBox="0 0 24 24" fill="none" xmlns="http://www.w3.org/2000/svg">
<path fill-rule="evenodd" clip-rule="evenodd" d="M3.53108 13.1492H8.84635C10.1119 13.1492 11.2509 12.0102 11.3774 10.6181V3.53104C11.3774 2.13895 10.2384 1 8.84635 1H3.53108C2.13899 1 1 2.13895 1 3.53104V10.6181C1 12.0102 2.13899 13.1492 3.53108 13.1492ZM2.51865 3.53104C2.51865 3.02483 2.89831 2.51862 3.53108 2.51862H8.84635C9.35256 2.51862 9.85878 2.89827 9.85878 3.53104V10.6181C9.85878 11.1243 9.47912 11.6305 8.84635 11.6305H3.53108C3.02486 11.6305 2.51865 11.2508 2.51865 10.6181V3.53104ZM15.5537 23.4H20.869C22.1345 23.4 23.2735 22.261 23.4001 20.8689V13.7819C23.4001 12.3898 22.2611 11.2508 20.869 11.2508H15.5537C14.1616 11.2508 13.0226 12.3898 13.0226 13.7819V20.8689C13.0226 22.261 14.1616 23.4 15.5537 23.4ZM14.5413 13.7819C14.5413 13.2757 14.9209 12.7695 15.5537 12.7695H20.869C21.3752 12.7695 21.8814 13.1491 21.8814 13.7819V20.8689C21.8814 21.3751 21.5017 21.8813 20.869 21.8813H15.5537C15.0475 21.8813 14.5413 21.5017 14.5413 20.8689V13.7819ZM8.84635 23.4H3.53108C2.13899 23.4 1 22.261 1 20.8689V17.3254C1 15.9333 2.13899 14.7943 3.53108 14.7943H8.84635C10.2384 14.7943 11.3774 15.9333 11.3774 17.3254V20.8689C11.2509 22.261 10.1119 23.4 8.84635 23.4ZM3.53108 16.313C2.89831 16.313 2.51865 16.8192 2.51865 17.3254V20.8689C2.51865 21.5017 3.02486 21.8813 3.53108 21.8813H8.84635C9.47912 21.8813 9.85878 21.3751 9.85878 20.8689V17.3254C9.85878 16.6926 9.35256 16.313 8.84635 16.313H3.53108ZM15.5537 9.6057H20.869C22.1345 9.6057 23.2735 8.46671 23.4001 7.07462V3.53108C23.4001 2.13899 22.2611 1.00004 20.869 1.00004H15.5537C14.1616 1.00004 13.0226 2.13899 13.0226 3.53108V7.07462C13.0226 8.46671 14.1616 9.6057 15.5537 9.6057ZM14.5413 3.53108C14.5413 3.02486 14.9209 2.51866 15.5537 2.51866H20.869C21.3752 2.51866 21.8814 2.89831 21.8814 3.53108V7.07462C21.8814 7.58083 21.5017 8.08703 20.869 8.08703H15.5537C15.0475 8.08703 14.5413 7.70739 14.5413 7.07462V3.53108Z" fill="#3354F4"/>
</svg>
