<svg width="24" height="24" viewBox="0 0 24 24" fill="none" xmlns="http://www.w3.org/2000/svg">
<path fill-rule="evenodd" clip-rule="evenodd" d="M4.6 22.5H7.8C8.2 22.5 8.6 22.8 8.6 23.2C8.6 23.7 8.2 24 7.8 24H4.6C2.6 24 1 22.4 1 20.4V3.6C1 1.6 2.6 0 4.6 0H16.4C18.4 0 20 1.6 20 3.6V9.5C20 10 19.6 10.3 19.2 10.3C18.7 10.3 18.4 9.9 18.4 9.5V3.6C18.4 2.4 17.5 1.5 16.3 1.5H4.6C3.4 1.5 2.5 2.4 2.5 3.6V20.4C2.5 21.6 3.4 22.5 4.6 22.5ZM16.1 10.3C16.1 9.9 15.8 9.5 15.3 9.5H5.6C5.2 9.5 4.8 9.8 4.8 10.3C4.8 10.7 5.1 11.1 5.6 11.1H15.4C15.8 11 16.1 10.7 16.1 10.3ZM5.6 13.3C5.2 13.3 4.8 13.6 4.8 14.1C4.8 14.6 5.1 14.9 5.6 14.9H11.6C12 14.9 12.4 14.6 12.4 14.1C12.4 13.6 12.1 13.3 11.6 13.3H5.6ZM21.7 13.7C21.2 13.2 20.5 12.9 19.8 12.9C19.1 12.9 18.4 13.2 17.9 13.7L12.7 19L12.7 19C12.6 19.1 12.5 19.2 12.5 19.3L11.4 23C11.3 23.2 11.4 23.4 11.5 23.6C11.5697 23.7394 11.6881 23.8303 11.7872 23.9064L11.7872 23.9064C11.8303 23.9395 11.8697 23.9697 11.9 24H12.1H12.3L16.1 22.9C16.2 22.9 16.3 22.8 16.4 22.7L21.6 17.5C22.7 16.5 22.7 14.8 21.7 13.7ZM15.5 21.5L13.2 22.1L13.3 21.8L13.9 19.9L17.6 16.2L19.2 17.8L15.5 21.5ZM20.6 16.4L20.3 16.7L18.7 15.1L19 14.8C19.2 14.6 19.5 14.5 19.8 14.5C20.1 14.5 20.4 14.6 20.6 14.8C21.1 15.3 21.1 16 20.6 16.4ZM5.6 5.7H15.4C15.8 5.7 16.1 6.1 16.2 6.5C16.2 7 15.8 7.3 15.4 7.3H5.6C5.1 7.3 4.8 6.9 4.8 6.5C4.8 6 5.2 5.7 5.6 5.7Z" fill="#3354F4"/>
</svg>
