<svg width="24" height="24" viewBox="0 0 24 24" fill="none" xmlns="http://www.w3.org/2000/svg">
<path d="M11.6 24C8.9 24 6.3 23.6 4.4 22.9C1.6 21.9 1 20.6 1 19.7C1 17 6 16 7.6 15.7L5.3 12.2C4.3 10.9 3.8 9.3 3.8 7.7C3.8 3.5 7.3 0 11.6 0C15.9 0 19.3 3.5 19.3 7.8C19.3 9.4 18.8 11 17.9 12.3C17.9 12.4 17.8 12.5 15.6 15.9C17.1 16.1 22.1 17 22.1 19.8C22.1 22.5 16.8 24 11.6 24ZM8.4 17.2C4.4 17.7 2.5 19 2.5 19.8C2.5 20.9 6 22.5 11.6 22.5C17.2 22.5 20.7 20.9 20.7 19.8C20.7 19 18.9 17.7 14.8 17.2L12.3 21.2C12.2 21.3 12.2 21.4 12.1 21.4C12 21.5 11.8 21.5 11.7 21.5C11.4 21.5 11.2 21.4 11.1 21.1L8.4 17.2ZM11.6 1.5C8.2 1.5 5.3 4.3 5.3 7.8C5.3 9.1 5.7 10.4 6.5 11.5L11.6 19.5L15.9 12.7C16.7 11.5 16.7 11.5 16.7 11.5C17.4 10.4 17.8 9.2 17.8 7.9C17.8 4.3 15 1.5 11.6 1.5ZM11.6 11.4C9.6 11.4 8 9.8 8 7.8C8 5.8 9.6 4.2 11.6 4.2C13.6 4.2 15.1 5.8 15.1 7.8C15.1 9.8 13.5 11.4 11.6 11.4ZM11.6 5.7C10.5 5.7 9.5 6.6 9.5 7.8C9.5 9 10.4 9.9 11.6 9.9C12.7 9.9 13.7 9 13.7 7.8C13.7 6.6 12.7 5.7 11.6 5.7Z" fill="#3354F4"/>
</svg>
