<svg width="24" height="24" viewBox="0 0 24 24" fill="none" xmlns="http://www.w3.org/2000/svg">
<g clip-path="url(#clip0_203_90)">
<path fill-rule="evenodd" clip-rule="evenodd" d="M11.6 15.6C15.9 15.6 19.4 12.1 19.4 7.80005C19.4 3.5 15.9 0 11.6 0C7.3 0 3.8 3.59998 3.8 7.90002C3.8 12.1 7.3 15.6 11.6 15.6ZM15.2 13C14.2 13.7 12.9 14.2 11.6 14.2C10.3 14.2 9 13.8 8 13L7.7 12.7C7.9 12 8.3 11.4 8.8 10.9C9.60001 10.1 10.6 9.69995 11.7 9.69995C13.6 9.69995 15.2 10.9 15.7 12.7C15.5499 12.8 15.4499 12.8501 15.3749 12.8876C15.3 12.925 15.25 12.9501 15.2 13ZM9.60001 6.40002C9.60001 5.30005 10.5 4.5 11.5 4.5C12.6 4.5 13.4 5.40002 13.4 6.40002C13.4 7.5 12.5 8.30005 11.5 8.30005C10.5 8.40002 9.60001 7.5 9.60001 6.40002ZM11.6 1.5C15.1 1.5 17.9 4.30005 17.9 7.80005C17.9 9.19995 17.4 10.5 16.7 11.6C16.1 10.4 15.1 9.40002 13.9 8.80005C14.5 8.19995 14.9 7.30005 14.9 6.40002C14.9 4.59998 13.4 3.09998 11.6 3.09998C9.8 3.09998 8.2 4.59998 8.2 6.40002C8.2 7.30005 8.60001 8.19995 9.2 8.80005C8.60001 9.09998 8.10001 9.5 7.60001 10C7.10001 10.5 6.7 11 6.5 11.6C5.7 10.5 5.3 9.19995 5.3 7.80005C5.2 4.40002 8.10001 1.5 11.6 1.5ZM0 17.6V24.1H23.1V17.6H0ZM17.2 22.7H1.4V18.9H17.2V22.7ZM21.7 22.7H18.5V18.9H21.7V22.7ZM11.1 20.2H12.5V21.6H11.1V20.2ZM7.5 20.2H6.1V21.6H7.5V20.2ZM3.6 20.2H5V21.6H3.6V20.2ZM15 20.2H13.6V21.6H15V20.2ZM8.6 20.2H10V21.6H8.6V20.2Z" fill="#3354F4"/>
</g>
<defs>
<clipPath id="clip0_203_90">
<rect width="24" height="24" fill="white"/>
</clipPath>
</defs>
</svg>
