<svg width="47" height="24" viewBox="0 0 47 24" fill="none" xmlns="http://www.w3.org/2000/svg">
<path fill-rule="evenodd" clip-rule="evenodd" d="M26.5 11.3C26.9 6.09998 31.2 2 36.5 2C42 2 46.5 6.5 46.5 12.1C46.5 17.6 42 22.1 36.5 22.1C31.2 22.1 26.9 18 26.5 12.8H23.1C22.7 15.2 20.7 17 18.2 17C15.7 17 13.7 15.2 13.3 12.8H9.89999C9.5 15.2 7.5 17 5 17C2.2 17 0 14.8 0 12C0 9.19995 2.3 7 5 7C7.5 7 9.5 8.90002 9.89999 11.2H13.3C13.7 8.80005 15.7 7 18.2 7C20.7 7 22.8 8.90002 23.1 11.3H26.5ZM1.5 12C1.5 13.9 3.10001 15.5 5 15.5C6.89999 15.5 8.5 13.9 8.5 12C8.5 10.1 6.89999 8.5 5 8.5C3.10001 8.5 1.5 10.1 1.5 12ZM14.7 12C14.7 13.9 16.3 15.5 18.2 15.5C20.2 15.5 21.7 13.9 21.7 12C21.7 10.1 20.1 8.5 18.2 8.5C16.3 8.5 14.7 10.1 14.7 12ZM28 12C28 16.7 31.8 20.5 36.5 20.5C41.2 20.5 45 16.7 45 12C45 7.30005 41.2 3.5 36.5 3.5C31.8 3.5 28 7.30005 28 12ZM33.1 11.5L35.3 13.6L40.1 8.40002L41.2 9.5L35.4 15.7001L32.1 12.6L33.1 11.5Z" fill="#3354F4"/>
</svg>
