<svg width="29" height="26" viewBox="0 0 29 26" fill="none" xmlns="http://www.w3.org/2000/svg">
<path fill-rule="evenodd" clip-rule="evenodd" d="M24.7059 20.4622C24.3025 20.4622 23.8992 20.1597 23.8992 19.6555C23.8992 19.2521 24.2017 18.8487 24.7059 18.8487H26.9244V2.5126H1.51261V18.9496H3.73109C4.13445 18.9496 4.53782 19.2521 4.53782 19.7563C4.53782 20.1597 4.23529 20.563 3.73109 20.563H0.705882C0.302521 20.4622 0 20.1597 0 19.7563V1.80672C0 1.30252 0.302521 1 0.806723 1H27.7311C28.1345 1 28.5378 1.30252 28.5378 1.80672V19.7563C28.5378 20.1597 28.2353 20.563 27.7311 20.563H24.7059V20.4622Z" fill="#3354F4"/>
<path fill-rule="evenodd" clip-rule="evenodd" d="M13.916 25C13.6135 25 13.3109 24.7983 13.2101 24.4958L7.15968 9.57143C7.05884 9.26891 7.15968 8.96639 7.36136 8.66387C7.4622 8.56303 7.66388 8.46219 7.86556 8.46219C7.9664 8.46219 8.06724 8.46219 8.16808 8.56303L23.1933 14.5126C23.4958 14.6134 23.6975 14.916 23.6975 15.3193C23.6975 15.6219 23.395 15.9244 23.0925 16.0252L16.1345 17.437L14.7227 24.395C14.6219 24.6975 14.3193 25 13.916 25ZM13.6135 21.5714L14.6219 16.6303C14.7227 16.3277 14.9244 16.1261 15.2269 16.0252L20.1681 15.0168L9.27732 10.5798L13.6135 21.5714Z" fill="#3354F4"/>
</svg>
