<svg width="26" height="26" viewBox="0 0 26 26" fill="none" xmlns="http://www.w3.org/2000/svg">
<path fill-rule="evenodd" clip-rule="evenodd" d="M13 25C6.4 25 1 19.6 1 13C1 6.4 6.4 1 13 1C19.6 1 25 6.4 25 13C25 19.6 19.6 25 13 25ZM13 2.5C7.2 2.5 2.5 7.2 2.5 13C2.5 18.8 7.2 23.5 13 23.5C18.8 23.5 23.5 18.8 23.5 13C23.5 7.2 18.8 2.5 13 2.5ZM13 19.4C12.6 19.4 12.2 19.1 12.2 18.6C12.2 18.1 12.5 17.8 13 17.8C13.5 17.8 13.8 18.1 13.8 18.6C13.8 19.1 13.4 19.4 13 19.4ZM13 14.9C12.6 14.9 12.2 14.6 12.2 14.1V7.4C12.2 7 12.5 6.6 13 6.6C13.5 6.6 13.8 6.9 13.8 7.4V14.1C13.8 14.5 13.4 14.9 13 14.9Z" fill="#3354F4"/>
</svg>
