<svg xmlns="http://www.w3.org/2000/svg" viewBox="0 0 26 26" fill="#3354f4" xmlns:v="https://vecta.io/nano"><path d="M18.4 14.1c.7-.1 1.2-.7 1.2-1.4v-1.1a1.54 1.54 0 0 0-1.5-1.5h-1.4c-.5 0-.9.3-1 .7-.1.2-.3.4-.6.4s-.5-.2-.6-.4c-.1-.4-.5-.7-1-.7H12a1.54 1.54 0 0 0-1.5 1.5v1.2c0 .7.5 1.3 1.2 1.4L9.8 19c-.1.3-.1.6.2.8 1.5 1.1 3.2 1.7 5 1.7s3.5-.6 5.2-1.8c.2-.2.3-.5.2-.8l-2-4.8zM14.9 20c-1.3 0-2.5-.3-3.7-1.1l2.2-5.3c.1-.3 0-.5-.1-.7s-.4-.3-.6-.3H12v-1.1h1.2c.3.7 1 1.1 1.8 1.1s1.5-.4 1.8-1.1h.2 1v1.2h-.7c-.2 0-.5.1-.6.3-.2.2-.2.5-.1.7l2 5.2c-1.1.7-2.4 1.1-3.7 1.1zM26 4.6C26 2.1 23.9 0 21.4 0c-1.4 0-2.7.6-3.5 1.6H3.6A2.73 2.73 0 0 0 .8 4.4v14.9C.8 20.8 2 22 3.6 22h1.2v1.2C4.8 24.8 6 26 7.5 26h14.9a2.69 2.69 0 0 0 2.7-2.7v-15c0-.3 0-.6-.1-.9.6-.7 1-1.7 1-2.8zM4.8 8.3v12.2H3.6c-.6 0-1.2-.5-1.2-1.2V4.4c0-.7.5-1.2 1.2-1.2H17c-.2.5-.2 1-.2 1.5 0 .3 0 .7.1 1H7.5C6 5.6 4.8 6.8 4.8 8.3zm18.9 15c0 .6-.5 1.2-1.2 1.2h-15c-.6 0-1.2-.5-1.2-1.2v-15c0-.6.5-1.2 1.2-1.2h10c.8 1.3 2.3 2.1 3.9 2.1.8 0 1.6-.2 2.3-.6v14.7zm-.5-15.9c-.5.4-1.1.6-1.8.6-.9 0-1.7-.3-2.3-.9-.4-.4-.8-.9-1-1.5-.1-.3-.1-.6-.1-1 0-.5.1-1 .3-1.5s.7-1 1.1-1.3c.5-.4 1.2-.6 1.9-.6a3.37 3.37 0 0 1 3.4 3.4c0 .6-.2 1.2-.5 1.7-.2.5-.5.8-1 1.1zm.1-3.4H22V2.7a.65.65 0 0 0-.6-.6.65.65 0 0 0-.6.6V4h-1.3a.65.65 0 0 0-.6.6.65.65 0 0 0 .6.6h1.3v1.3a.65.65 0 0 0 .6.6c.3 0 .6-.2.6-.5V5.2h1.3a.65.65 0 0 0 .6-.6.65.65 0 0 0-.6-.6z"/></svg>