<svg width="28" height="26" viewBox="0 0 28 26" fill="none" xmlns="http://www.w3.org/2000/svg">
<path d="M7 15.5C6.8 15.5 6.7 15.5 6.6 15.5C6.2 15.4 6 15 6 14.7C6 14.3 6.3 14.1 6.7 14H6.8H21.3C21.8 14 22.1 14.3 22.1 14.7C22.1 15 21.9 15.3 21.6 15.4C21.5 15.4 21.3 15.4 21.2 15.4L7 15.5Z" fill="#3354F4"/>
<path d="M8.9 19.6C8.8 19.6 8.7 19.6 8.5 19.6C8.2 19.6 8 19.3 8 19C8 18.8 8 18.6 8.2 18.4C8.3 18.3 8.5 18.2 8.8 18.2C8.8 18.2 19.2 18.2 19.5 18.2C19.8 18.2 20.1 18.3 20.2 18.6C20.3 18.9 20.3 19.1 20.1 19.4C19.9 19.6 19.7 19.7 19.4 19.7L8.9 19.6Z" fill="#3354F4"/>
<path d="M3.9 25C2.3 25 1 23.7 1 22.1V3.9C1 2.3 2.3 1 3.9 1H24.2C25.8 1 27.1 2.3 27.1 3.9V22C27.1 23.6 25.8 24.9 24.2 24.9H3.9V25ZM2.5 22.1C2.5 22.9 3.1 23.5 3.9 23.5H24.2C25 23.5 25.6 22.9 25.6 22.1V6.4L2.5 6.3V22.1ZM3.9 2.5C3.1 2.5 2.5 3.1 2.5 3.9V4.7L25.6 4.8L25.7 3.9C25.7 3.1 25.1 2.5 24.3 2.5H3.9Z" fill="#3354F4"/>
</svg>
