<svg width="37" height="26" viewBox="0 0 37 26" fill="none" xmlns="http://www.w3.org/2000/svg">
<path d="M18 25C15.5 25 13.1 24.3 10.6 22.9C7.5 21.2 4.7 18.8 1.9 15.6C0.7 14.1 0.7 11.9 1.9 10.4C5 6.8 8.1 4.2 11.6 2.6C13.7 1.5 15.9 1 18 1C18.3 1 18.6 1 18.9 1C21.1 1.1 23.2 1.8 25.5 3C28.3 4.5 30.9 6.7 33.6 9.7C34.2 10.3 34.6 10.9 34.9 11.6C35.4 13.1 35.1 14.5 34.2 15.6C31.7 18.5 29.2 20.8 26.3 22.5C24.2 23.8 22.1 24.5 20 24.8C19.3 25 18.8 25 18.4 25H18ZM18 2.5C15.8 2.5 13.6 3.1 11.3 4.4C8.4 6 5.8 8.2 3.2 11.4C2.4 12.3 2.4 13.7 3.3 14.7C6 17.8 8.5 20 11.3 21.6C13.7 22.9 15.9 23.5 18.4 23.6C20 23.5 22.1 23.3 25 21.7C27.8 20.1 30.4 17.9 33.1 14.8C33.9 13.9 33.9 12.5 33.1 11.5C32.4 10.6 31.5 9.7 30.5 8.7C28.1 6.4 25.9 4.8 23.4 3.8C21.6 3 19.9 2.7 18.2 2.7H18V2.5Z" fill="#3354F4"/>
<path d="M18.1 19.1C14.7 19.1 12 16.4 12 13C12 9.60002 14.7 6.90002 18.1 6.90002C21.4 6.90002 24.2 9.60002 24.2 13C24.2 14.6 23.6 16.1 22.4 17.3C21.2 18.5 19.7 19.1 18.1 19.1ZM18 8.40002C15.5 8.40002 13.5 10.5 13.5 13C13.5 15.5 15.5 17.5 18.1 17.5C20.6 17.5 22.6 15.5 22.6 13C22.6 10.5 20.6 8.40002 18 8.40002Z" fill="#3354F4"/>
</svg>
