<svg width="26" height="26" viewBox="0 0 26 26" fill="none" xmlns="http://www.w3.org/2000/svg">
<path d="M13 25C6.35537 25 1 19.6446 1 13C1 6.35537 6.35537 1 13 1C13.3967 1 13.6942 1 14.0909 1C14.4876 1 14.8843 1.39669 14.7851 1.89256C14.7851 2.28926 14.3884 2.58678 13.9917 2.58678C13.595 2.58678 13.2975 2.58678 13 2.58678C7.24793 2.58678 2.58678 7.24793 2.58678 13C2.58678 18.7521 7.24793 23.4132 13 23.4132C13.0992 23.4132 13.1983 23.4132 13.2975 23.4132C13.2975 23.4132 13.3967 23.314 13.4959 23.314C13.7934 23.314 14.0909 23.314 14.4876 23.2149C14.9835 23.2149 15.281 23.5124 15.3802 23.9091C15.4793 24.3058 15.1818 24.7025 14.686 24.8017C14.2893 24.8017 13.9917 24.9008 13.595 24.9008C13.4959 24.9008 13.3967 24.9008 13.2975 24.9008C13.1983 25 13.0992 25 13 25Z" fill="#3354F4"/>
<path d="M23.9091 15.5785C23.7108 15.5785 23.5124 15.4793 23.4132 15.281C23.3141 15.0826 23.2149 14.8843 23.3141 14.686C23.3141 14.3884 23.4132 14.0909 23.4132 13.6942C23.4132 13.2975 23.8099 13 24.2066 13C24.405 13 24.7025 13.0992 24.8017 13.2975C24.9008 13.4959 25 13.6942 25 13.8926C25 14.2893 24.9008 14.5868 24.9008 14.9835C24.8017 15.3802 24.5041 15.6777 24.1074 15.6777L23.9091 15.5785Z" fill="#3354F4"/>
<path d="M17.7195 23.8843C17.422 23.8843 17.1244 23.686 17.0253 23.3884C16.9261 22.9917 17.1244 22.4959 17.5211 22.3967C17.8187 22.2975 18.1162 22.1983 18.4137 22.0992C18.5129 22.0992 18.6121 22 18.7112 22C19.0087 22 19.3063 22.1983 19.4054 22.4959C19.6038 22.8926 19.4054 23.3884 19.0087 23.4876C18.7112 23.5868 18.3145 23.7851 18.017 23.8843C17.9178 23.8843 17.8187 23.8843 17.7195 23.8843Z" fill="#3354F4"/>
<path d="M23.4132 9.52895C23.1157 9.52895 22.8182 9.33061 22.719 9.03308C22.6198 8.73556 22.4215 8.43804 22.3223 8.14052C22.124 7.74383 22.3223 7.24796 22.6198 7.04961C22.719 6.95044 22.8182 6.95044 23.0165 6.95044C23.314 6.95044 23.6116 7.14879 23.7107 7.34713C23.9091 7.64465 24.0083 8.04135 24.2066 8.33887C24.3058 8.53722 24.3058 8.73556 24.2066 8.93391C24.1074 9.13226 24.0083 9.23143 23.8099 9.3306C23.6116 9.52895 23.5124 9.52895 23.4132 9.52895Z" fill="#3354F4"/>
<path d="M21.5289 21.1322C21.3306 21.1322 21.1322 21.0331 21.0331 20.9339C20.8347 20.8347 20.7355 20.6364 20.7355 20.438C20.7355 20.2397 20.8347 20.0413 20.9339 19.843C21.1322 19.6446 21.3306 19.3471 21.5289 19.0496C21.6281 18.8512 21.9256 18.7521 22.124 18.7521C22.3223 18.7521 22.4215 18.7521 22.6198 18.8512C22.8182 18.9504 22.9174 19.1488 22.9174 19.3471C22.9174 19.5455 22.9174 19.7438 22.8182 19.9422C22.6198 20.2397 22.4215 20.5372 22.124 20.8347C21.9256 21.0331 21.7273 21.1322 21.5289 21.1322Z" fill="#3354F4"/>
<path d="M19.6446 4.76855C19.4463 4.76855 19.3471 4.66938 19.1488 4.5702C18.8512 4.37185 18.6529 4.17351 18.3554 4.07433C18.157 3.97516 18.0579 3.77681 17.9587 3.57847C17.9587 3.38012 17.9587 3.18177 18.0579 2.98343C18.157 2.78508 18.4545 2.58673 18.7521 2.58673C18.8512 2.58673 19.0496 2.58673 19.1488 2.6859C19.5455 2.98343 19.843 3.18177 20.1405 3.38012C20.438 3.67764 20.5372 4.17351 20.3388 4.47103C20.1405 4.66938 19.9421 4.76855 19.6446 4.76855Z" fill="#3354F4"/>
<path d="M7.94216 17.8595C7.54547 17.8595 7.14877 17.4628 7.14877 17.0661C7.14877 16.6694 7.54547 16.2727 7.94216 16.2727H11.2149V13.7934H7.94216C7.54547 13.7934 7.14877 13.3967 7.14877 13C7.14877 12.6033 7.54547 12.2066 7.94216 12.2066H11.2149V9.72728H7.94216C7.44629 9.72728 7.14877 9.33059 7.14877 8.93389C7.14877 8.5372 7.54547 8.1405 7.94216 8.1405H12.0083C12.405 8.1405 12.8017 8.5372 12.8017 8.93389V17.0661C12.8017 17.4628 12.405 17.8595 12.0083 17.8595H7.94216Z" fill="#3354F4"/>
<path d="M14.9835 17.8595C14.5868 17.8595 14.1901 17.4628 14.1901 17.0661V8.93389C14.1901 8.5372 14.5868 8.1405 14.9835 8.1405H19.0496C19.4463 8.1405 19.843 8.5372 19.843 8.93389V17.0661C19.843 17.4628 19.4463 17.8595 19.0496 17.8595H14.9835ZM18.2562 16.2727V9.72728H15.7768V16.3719H18.2562V16.2727Z" fill="#3354F4"/>
</svg>
