<svg width="36" height="26" viewBox="0 0 36 26" fill="none" xmlns="http://www.w3.org/2000/svg">
<path d="M1 6.40001C1.3 5.60001 1.8 5.30001 2.6 5.30001C3.8 5.30001 5 5.30001 6.1 5.30001C6.4 5.30001 6.5 5.20001 6.5 4.90001C6.5 4.00001 6.5 3.10001 6.5 2.30001C6.5 1.80001 6.7 1.40001 7.2 1.20001C7.7 1.00001 8.1 1.20001 8.5 1.50001C10.1 3.00001 11.7 4.50001 13.3 5.90001C13.8 6.40001 13.8 7.10001 13.3 7.60001C11.7 9.10001 10.1 10.6 8.5 12.1C8.2 12.4 7.7 12.5 7.3 12.3C6.9 12.1 6.6 11.8 6.6 11.3C6.6 10.4 6.6 9.50001 6.6 8.60001C6.6 8.30001 6.5 8.20001 6.2 8.20001C5 8.20001 3.9 8.20001 2.7 8.20001C1.9 8.30001 1.3 8.00001 1 7.20001C1 7.00001 1 6.70001 1 6.40001Z" fill="#3354F4"/>
<path d="M29.6 13.5C28.9 13.5 28.2 13.5 27.5 13.5H19C17 13.5 15.6 12.1 15.6 10.1C15.6 9 15.6 5.6 15.6 4.5C15.6 2.4 17 1 19 1H25.2C27.4 1 29.7 1 31.9 1C32.9 1 33.8 1.4 34.4 2C35 2.6 35.3 3.5 35.3 4.4C35.3 5.2 35.3 7.2 35.3 8.6C35.3 9.2 35.3 9.8 35.3 10.1C35.3 12 33.9 13.4 32 13.4C31.2 13.5 30.4 13.5 29.6 13.5ZM25.5 11.9H27.6C29.1 11.9 30.6 11.9 32.1 11.9C33.1 11.9 33.9 11.2 33.9 10.1C33.9 9.8 33.9 9.2 33.9 8.6C33.9 7 33.9 5.1 33.9 4.3C33.9 3.8 33.7 3.4 33.4 3C33.2 2.7 32.7 2.4 32 2.4C29.8 2.4 27.5 2.4 25.2 2.4H19C17.8 2.4 17.1 3.1 17.1 4.3C17.1 5.3 17.1 8.8 17.1 9.9C17.1 11.1 17.8 11.8 19 11.8H25.5V11.9Z" fill="#3354F4"/>
<path d="M27 19.2H16.3C15.9 19.2 15.5 18.9 15.5 18.4C15.5 18 15.8 17.6 16.3 17.6H27C27.4 17.6 27.8 17.9 27.8 18.4C27.7 18.9 27.4 19.2 27 19.2Z" fill="#3354F4"/>
<path d="M30 25H16.3C15.9 25 15.5 24.7 15.5 24.2C15.5 23.7 15.8 23.4 16.3 23.4H30C30.4 23.4 30.8 23.7 30.8 24.2C30.8 24.7 30.5 25 30 25Z" fill="#3354F4"/>
</svg>
