<svg width="26" height="26" viewBox="0 0 26 26" fill="none" xmlns="http://www.w3.org/2000/svg">
<path d="M22.6 6.3L16.5 0.2C16.3 0.1 16.2 0 15.9 0H5.3C4 0 3 1 3 2.3V23.7C3 25 4 26 5.3 26H20.5C21.8 26 22.8 25 22.8 23.7V6.9C22.8 6.6 22.7 6.5 22.6 6.3ZM16.7 2.6L20.2 6.1H17.5C17.1 6.1 16.7 5.8 16.7 5.3V2.6ZM20.5 24.5H5.3C4.9 24.5 4.5 24.2 4.5 23.7V2.3C4.5 1.9 4.8 1.5 5.3 1.5H15.2V5.3C15.2 6.6 16.2 7.6 17.5 7.6H21.3V23.7C21.3 24.1 20.9 24.5 20.5 24.5Z" fill="#3354F4"/>
<path d="M13.5 13.5V10.6C14.1 10.7 14.7 11 15.2 11.3C15.3 11.4 15.4 11.4 15.5 11.4C15.9 11.4 16.2 11.1 16.2 10.7C16.2 10.5 16.1 10.4 16 10.3C15.3 9.69999 14.4 9.29999 13.4 9.29999V8.29999C13.4 7.99999 13.2 7.79999 12.9 7.79999C12.7 7.79999 12.4 7.99999 12.4 8.29999V9.19999C10.6 9.39999 9.29998 10.5 9.29998 12C9.29998 13.9 10.9 14.4 12.4 14.8V18.1C11.6 18 10.8 17.7 10.2 17.1C10.1 17.1 9.99998 17 9.79998 17C9.39998 17 9.09998 17.3 9.09998 17.7C9.09998 17.9 9.19998 18 9.29998 18.1C10.1 18.9 11.2 19.3 12.4 19.3V20.2C12.4 20.5 12.7 20.7 12.9 20.7C13.2 20.7 13.4 20.5 13.4 20.2V19.3C15.6 19.2 16.5 17.8 16.5 16.3C16.6 14.5 15 13.9 13.5 13.5ZM12.4 13.2C11.5 12.9 10.8 12.7 10.8 11.9C10.8 11.1 11.4 10.6 12.4 10.5V13.2ZM13.5 18.1V15.1C14.4 15.4 15.1 15.7 15.1 16.6C15.1 17.2 14.7 18 13.5 18.1Z" fill="#3354F4"/>
</svg>
