<svg width="30" height="26" viewBox="0 0 30 26" fill="none" xmlns="http://www.w3.org/2000/svg">
<path d="M1 24.5V1.5H8.4C8.9 1.5 9.3 1.7 9.6 2L19.3 11.7C19.6 12 19.8 12.5 19.8 12.9C19.8 13.4 19.6 13.8 19.3 14.1L9.7 24C9.4 24.3 8.9 24.5 8.5 24.5H1ZM2.5 22.9H8.5L18.4 13L8.5 3.1H2.5V22.9Z" fill="#3354F4"/>
<path d="M18 25C17.8 25 17.6 24.9 17.5 24.8C17.2 24.5 17.2 24 17.5 23.7L27.2 14C27.5 13.7 27.6 13.4 27.6 13C27.6 12.6 27.5 12.3 27.2 12L17.5 2.3C17.2 2 17.2 1.5 17.5 1.2C17.6 1.1 17.8 1 18 1C18.2 1 18.4 1.1 18.5 1.2L28.2 10.9C28.8 11.5 29.1 12.2 29.1 13C29.1 13.8 28.8 14.5 28.2 15.1L18.5 24.8C18.4 24.9 18.2 25 18 25Z" fill="#3354F4"/>
</svg>
