<svg width="29" height="26" viewBox="0 0 29 26" fill="none" xmlns="http://www.w3.org/2000/svg">
<path d="M4.8 25C4 25 3.4 24.9 2.9 24.6C1.7 24 1.1 23 1 21.6C1 20.7 1 19.9 1 19V18.4C1 14.1 1 9.7 1 5.4C1 4.9 1 4.2 1.2 3.6C1.5 2.3 2.7 1.2 4 1.1C4.3 1 4.6 1 4.9 1H24C24.9 1 25.5 1.1 26 1.4C27.2 2 27.8 3 27.9 4.4C28 5.3 28 6.1 28 7V8.8C28 12.7 28 16.7 28 20.6C28 21.1 28 21.8 27.8 22.4C27.5 23.7 26.3 24.8 24.9 25C24.3 25 23.9 25 23.5 25H15H4.8ZM16.3 9.5C16.1 9.5 15.7 9.5 15.5 9.8C15.2 10.1 15.2 10.4 15.2 10.6C15.2 12 15.2 13.4 15.2 14.8V17.9C15.2 19.4 15.2 20.8 15.2 22.3C15.2 22.4 15.2 22.8 15.5 23.1C15.8 23.4 16.2 23.4 16.3 23.4C17.7 23.4 19.1 23.4 20.4 23.4H23.8C24.2 23.4 24.5 23.4 24.8 23.3C25.5 23.1 26 22.7 26.2 21.9C26.3 21.6 26.3 21.2 26.3 20.9V19C26.3 16.1 26.3 13.3 26.3 10.4C26.3 10.1 26.2 9.8 26 9.6C25.7 9.3 25.4 9.3 25.2 9.3H20.9C19.3 9.5 16.3 9.5 16.3 9.5ZM3.7 9.5C2.8 9.5 2.5 9.8 2.5 10.7V20.6C2.5 21 2.5 21.2 2.5 21.5C2.6 22.6 3.2 23.3 4.3 23.4C4.6 23.4 4.8 23.5 5.1 23.5H7.8C9.4 23.5 11 23.5 12.5 23.5C12.7 23.5 13.1 23.5 13.3 23.2C13.6 22.9 13.6 22.6 13.6 22.4C13.6 20.9 13.6 19.5 13.6 18V10.7C13.6 9.8 13.3 9.5 12.4 9.5H3.7ZM25.3 8C25.4 8 25.8 8 26.1 7.7C26.3 7.5 26.4 7.3 26.4 7C26.4 6.7 26.4 6 26.4 6C26.4 5.5 26.4 4.9 26.4 4.4C26.4 3.3 25.7 2.6 24.6 2.5C24.2 2.4 23.9 2.4 23.6 2.4H5.5C5.3 2.4 5.1 2.4 4.9 2.4C3.3 2.6 2.5 3.3 2.5 4.8C2.5 5.4 2.5 5.9 2.5 6.5V6.9C2.5 7.2 2.5 7.5 2.8 7.8C3 8 3.4 8 3.7 8H24.3H25.3Z" fill="#3354F4"/>
</svg>
