<svg width="29" height="26" viewBox="0 0 29 26" fill="none" xmlns="http://www.w3.org/2000/svg">
<g clip-path="url(#clip0_17_21)">
<path d="M11.7083 26C10.5612 26 9.62259 25.3767 9.10115 24.3378C8.684 23.2989 8.89258 22.1562 9.72688 21.3251C10.3526 20.7017 10.9783 20.494 11.7083 20.494C12.1255 20.494 12.4384 20.5978 12.7512 20.7017C13.7941 21.1173 14.4198 22.1562 14.4198 23.2989C14.5241 24.7534 13.2727 26 11.7083 26ZM11.7083 22.0523C11.1869 22.0523 10.7698 22.3639 10.5612 22.7795C10.3526 23.1951 10.4569 23.7145 10.7698 24.13C10.9783 24.3378 11.2912 24.4417 11.6041 24.4417C11.8126 24.4417 11.9169 24.4417 12.0212 24.3378C12.4384 24.13 12.7512 23.7145 12.7512 23.1951C12.9598 22.5717 12.4384 22.0523 11.7083 22.0523Z" fill="#3354F4"/>
<path d="M22.7201 26C21.5729 26 20.6343 25.3767 20.1129 24.3378C19.6957 23.2989 19.9043 22.1562 20.7386 21.3251C21.26 20.8056 21.9901 20.494 22.7201 20.494C23.1372 20.494 23.4501 20.5978 23.7629 20.7017C24.8058 21.1173 25.4316 22.1562 25.4316 23.2989C25.5358 24.7534 24.2844 26 22.7201 26ZM22.7201 22.0523C22.1986 22.0523 21.7815 22.3639 21.5729 22.7795C21.3643 23.1951 21.4686 23.7145 21.7815 24.13C21.9901 24.3378 22.3029 24.4417 22.6158 24.4417C22.8244 24.4417 22.9286 24.4417 23.0329 24.3378C23.4501 24.13 23.7629 23.7145 23.7629 23.1951C23.9715 22.5717 23.3458 22.0523 22.7201 22.0523Z" fill="#3354F4"/>
<path d="M9.83114 18.5201C8.4754 18.5201 7.32823 17.5851 7.11965 16.3384L5.0339 6.15738H1.80098C1.27954 6.15738 0.966675 5.84572 0.966675 5.43017C0.966675 5.01461 1.27954 4.59906 1.80098 4.59906H5.76391C6.18106 4.59906 6.49393 4.80684 6.59822 5.22239L8.78826 16.0268C8.78826 16.5462 9.3097 16.9618 9.83114 16.9618H23.1372C23.7629 16.9618 24.1801 16.5462 24.2844 16.0268L25.953 8.6507C26.0573 8.33904 25.953 7.92348 25.7444 7.61182C25.4315 7.30015 25.1187 7.19627 24.7015 7.19627H23.6586C23.2415 7.19627 22.8243 6.8846 22.8243 6.36516C22.8243 5.94961 23.1372 5.53405 23.6586 5.53405H24.7015C25.6401 5.53405 26.3701 5.84572 26.8916 6.57294C27.413 7.19627 27.6216 8.13126 27.413 8.96237L25.7444 16.3384C25.4315 17.5851 24.2844 18.5201 23.0329 18.5201H9.83114Z" fill="#3354F4"/>
<path d="M11.6041 11.8712C11.1869 11.7673 10.8741 11.4557 10.9783 11.0401C10.9783 10.8323 11.0826 10.6246 11.1869 10.5207C11.1869 10.5207 14.2113 7.40402 15.1499 6.46903L14.0027 5.43015L11.1869 2.3135C10.9783 2.10572 10.8741 1.79406 11.0826 1.48239C11.1869 1.17073 11.3955 0.962952 11.8126 0.962952H19.6342C20.1557 0.962952 20.4685 1.27462 20.4685 1.79406C20.4685 2.3135 20.4685 2.72905 20.4685 3.24849C20.4685 3.76793 20.1557 4.0796 19.6342 4.0796C19.2171 4.0796 18.7999 3.76793 18.7999 3.24849C18.7999 2.93683 18.7999 2.72905 18.7999 2.52128L17.8613 2.62516H13.4812L16.5056 5.74181C16.6099 5.8457 16.7142 5.94959 16.8185 6.05347C17.1313 6.36514 17.1313 6.88458 16.8185 7.19625L13.6898 10.5207L18.9042 10.3129V10.0012C18.9042 9.58567 19.2171 9.17012 19.7385 9.17012C20.1557 9.17012 20.5728 9.48179 20.5728 10.0012C20.5728 10.209 20.5728 11.0401 20.5728 11.0401C20.5728 11.4557 20.3642 11.7673 19.9471 11.8712H11.6041Z" fill="#3354F4"/>
</g>
<defs>
<clipPath id="clip0_17_21">
<rect width="29" height="26" fill="white"/>
</clipPath>
</defs>
</svg>
