<svg width="26" height="26" viewBox="0 0 26 26" fill="none" xmlns="http://www.w3.org/2000/svg">
<g clip-path="url(#clip0_106_73)">
<path d="M11.633 16.5122C11.633 16.9435 12.0642 17.2669 12.4955 17.2669C12.9268 17.2669 13.2502 16.8357 13.2502 16.4044L12.8189 12.7387C12.8189 12.3074 12.3877 11.9839 11.9564 11.9839C11.5252 11.9839 11.2017 12.4152 11.2017 12.8465L11.633 16.5122ZM16.8081 17.2669C17.2394 17.2669 17.6707 16.9435 17.6707 16.5122L18.1019 12.8465C18.1019 12.4152 17.7785 11.9839 17.3472 11.9839C16.916 11.9839 16.4847 12.3074 16.4847 12.7387L16.0534 16.4044C16.0534 16.8357 16.3769 17.1591 16.8081 17.2669ZM10.447 20.8249C9.04538 20.8249 7.85941 22.0108 7.85941 23.4124C7.85941 24.8141 9.04538 26 10.447 26C11.8486 26 13.0346 24.8141 13.0346 23.4124C13.0346 21.903 11.8486 20.8249 10.447 20.8249ZM10.447 24.275C9.90791 24.275 9.58446 23.8437 9.58446 23.4124C9.58446 22.8734 10.0157 22.5499 10.447 22.5499C10.9861 22.5499 11.3095 22.9812 11.3095 23.4124C11.3095 23.8437 10.9861 24.275 10.447 24.275ZM18.9645 20.8249C17.5628 20.8249 16.3769 22.0108 16.3769 23.4124C16.3769 24.8141 17.5628 26 18.9645 26C20.3661 26 21.552 24.8141 21.552 23.4124C21.4442 21.903 20.3661 20.8249 18.9645 20.8249ZM18.9645 24.275C18.4254 24.275 18.1019 23.8437 18.1019 23.4124C18.1019 22.8734 18.5332 22.5499 18.9645 22.5499C19.5035 22.5499 19.827 22.9812 19.827 23.4124C19.827 23.8437 19.3957 24.275 18.9645 24.275Z" fill="#3354F4"/>
<path d="M23.8162 9.1807C23.7084 8.96506 23.3849 8.85725 23.1693 8.85725H6.78124L6.13434 6.26966C6.02653 5.94622 5.70308 5.62277 5.37963 5.62277H2.03733C1.49825 5.62277 1.1748 6.05403 1.1748 6.4853C1.1748 6.91656 1.49825 7.34782 2.03733 7.34782H4.73273L5.37963 9.93541L7.8594 19.6389C7.96722 19.9623 8.29066 20.2857 8.61411 20.2857H20.4739C20.7973 20.2857 21.1208 20.0701 21.2286 19.6389L23.8162 9.93541C24.0318 9.71978 23.924 9.39633 23.8162 9.1807ZM20.0426 18.6685H9.36882L7.2125 10.5823H22.0911L20.0426 18.6685ZM11.3095 4.32898H16.1612L14.8674 5.62277C14.544 5.94622 14.544 6.4853 14.8674 6.80874C14.9753 6.91656 15.1909 7.02438 15.4065 7.02438C15.6222 7.02438 15.8378 6.91656 15.9456 6.80874L18.641 4.11334C18.9645 3.7899 18.9645 3.25082 18.641 2.92737L15.9456 0.231966C15.6222 -0.0914822 15.0831 -0.0914822 14.7596 0.231966C14.4362 0.555414 14.4362 1.09449 14.7596 1.41794L16.0534 2.71174H11.2017C10.8782 2.71174 10.447 3.03518 10.447 3.46645C10.447 3.89771 10.8782 4.32898 11.3095 4.32898Z" fill="#3354F4"/>
</g>
<defs>
<clipPath id="clip0_106_73">
<rect width="26" height="26" fill="white"/>
</clipPath>
</defs>
</svg>
