<svg width="26" height="26" viewBox="0 0 26 26" fill="none" xmlns="http://www.w3.org/2000/svg">
<path d="M22.3058 26H2.85949C2.42974 26 2.10742 25.6777 2.10742 25.2479C2.10742 24.8182 2.42974 24.4958 2.85949 24.4958H22.3058C22.7355 24.4958 23.0578 24.8182 23.0578 25.2479C23.0578 25.6777 22.7355 26 22.3058 26Z" fill="#3354F4"/>
<path d="M23.1653 10.5289C23.1653 4.72727 18.438 0 12.6364 0C6.83471 0 2 4.72727 2 10.5289C2 13.9669 3.61157 16.9752 6.19008 18.9091L6.29752 19.0165C8.01653 20.3058 10.1653 21.0579 12.5289 21.0579C14.8926 21.0579 16.9339 20.3058 18.7603 19.0165C18.8678 19.0165 18.8678 18.9091 18.8678 18.9091C21.4463 17.0826 23.1653 13.9669 23.1653 10.5289ZM3.61157 10.5289C3.61157 5.58678 7.69421 1.50413 12.6364 1.50413C17.5785 1.50413 21.6612 5.58678 21.6612 10.5289C21.6612 13 20.5868 15.2562 18.9752 16.9752C18.438 15.2562 17.1488 13.7521 15.4298 13C16.6116 12.1405 17.3636 10.7438 17.3636 9.23967C17.3636 6.66116 15.2149 4.5124 12.6364 4.5124C10.0579 4.5124 7.90909 6.66116 7.90909 9.23967C7.90909 10.7438 8.66116 12.1405 9.84298 13C8.23141 13.7521 6.94215 15.1488 6.29752 16.9752C4.57851 15.3636 3.61157 13.1074 3.61157 10.5289ZM9.41322 9.23967C9.41322 7.52066 10.8099 6.12397 12.5289 6.12397C14.2479 6.12397 15.6446 7.52066 15.6446 9.23967C15.6446 10.9587 14.2479 12.3554 12.5289 12.3554C10.8099 12.3554 9.41322 10.9587 9.41322 9.23967ZM7.58678 18.0496C8.01653 15.6859 10.0579 13.9669 12.5289 13.9669C15 13.9669 17.0413 15.6859 17.4711 18.0496C16.0744 19.0165 14.3554 19.5537 12.5289 19.5537C10.7025 19.5537 8.98347 19.0165 7.58678 18.0496Z" fill="#3354F4"/>
</svg>
