<svg width="26" height="26" viewBox="0 0 26 26" fill="none" xmlns="http://www.w3.org/2000/svg">
<g clip-path="url(#clip0_106_85)">
<path d="M12.3228 16.9704C12.1103 16.7579 12.1103 16.333 12.3228 16.0143C12.5353 15.6956 12.9602 15.8018 13.2789 16.0143L13.5976 16.333C13.81 16.5455 13.81 16.9704 13.5976 17.2891C13.4913 17.3953 13.2789 17.5015 13.1726 17.5015C12.9602 17.5015 12.854 17.3953 12.7477 17.2891L12.3228 16.9704Z" fill="#3354F4"/>
<path d="M8.71092 13.2523C8.49846 13.0398 8.49846 12.6149 8.71092 12.2962C8.92338 12.0837 9.34831 12.0837 9.667 12.2962L9.87946 12.5086C10.0919 12.7211 10.0919 13.146 9.87946 13.4647C9.77323 13.571 9.56077 13.6772 9.45454 13.6772C9.24207 13.6772 9.13584 13.571 9.02961 13.4647L8.71092 13.2523Z" fill="#3354F4"/>
<path d="M10.5168 15.0582C10.4106 14.952 10.3044 14.7395 10.3044 14.6333C10.3044 14.4208 10.4106 14.3146 10.5168 14.2084C10.7293 13.9959 11.1542 13.9959 11.4729 14.2084L11.7916 14.5271C12.0041 14.7395 12.0041 15.1644 11.7916 15.4831C11.6854 15.5894 11.4729 15.6956 11.3667 15.6956C11.1542 15.6956 11.048 15.5894 10.9418 15.4831L10.5168 15.0582Z" fill="#3354F4"/>
<path d="M5.31154 23.4505C5.09908 23.238 5.09908 22.8131 5.31154 22.4944C5.524 22.2819 5.73647 21.857 5.73647 21.5383C5.73647 21.2196 5.63023 20.9009 5.31154 20.5822C5.09908 20.3698 4.67416 20.1573 4.35546 20.1573C4.03677 20.1573 3.61185 20.2635 3.39939 20.5822C3.18693 20.7947 2.762 20.7947 2.44331 20.5822L0.743616 18.8825C0.318693 18.4576 0 17.8202 0 17.1828C0 16.5455 0.212462 15.9081 0.743616 15.4831L5.41777 10.809C5.524 10.7028 5.73647 10.5965 5.8427 10.5965H6.905V9.53422C6.905 9.32176 7.01124 9.21553 7.11747 9.1093L15.5097 0.717058C16.4658 -0.239019 18.0592 -0.239019 19.0153 0.717058L20.715 2.41675C20.9275 2.62921 20.9275 3.05414 20.715 3.37283C20.1839 3.90398 20.1839 4.75383 20.715 5.28498C20.9275 5.49745 21.3524 5.70991 21.6711 5.70991C21.9898 5.70991 22.4147 5.60368 22.6272 5.28498C22.8396 5.07252 23.2646 5.07252 23.5832 5.28498L25.2829 6.98468C26.239 7.94076 26.239 9.53422 25.2829 10.4903L16.8907 18.8825C16.7845 18.9888 16.572 19.095 16.4658 19.095H15.4035V20.1573C15.4035 20.3698 15.2972 20.476 15.191 20.5822L10.5169 25.2564C10.0919 25.6813 9.45455 26 8.81716 26C8.17978 26 7.54239 25.7875 7.11747 25.2564L5.31154 23.4505ZM6.26762 19.6261C6.79877 20.1573 7.01124 20.7947 7.01124 21.5383C7.01124 21.9632 6.905 22.3882 6.69254 22.8131V22.9193L7.96731 24.1941C8.39224 24.619 9.13585 24.619 9.56078 24.1941L14.0225 19.7324V18.2451C14.0225 18.0327 14.1287 17.9265 14.2349 17.8202C14.3412 17.714 14.5536 17.6078 14.6599 17.6078H16.0409L24.3269 9.32176C24.7518 8.89683 24.7518 8.15322 24.3269 7.72829L23.0521 6.45352H22.9459C22.5209 6.66599 22.096 6.77222 21.6711 6.77222C20.9275 6.77222 20.2901 6.45352 19.7589 6.0286C18.9091 5.17875 18.6966 3.90398 19.334 2.84168V2.73544L18.1655 1.67314C17.7406 1.24821 16.9969 1.24821 16.572 1.67314L8.28601 9.85291V11.3401C8.28601 11.6588 7.96731 11.9775 7.64862 11.9775H6.26762L1.80592 16.4392C1.381 16.8641 1.381 17.6078 1.80592 18.0327L3.08069 19.3075H3.18693C3.61185 19.095 4.03677 18.9888 4.4617 18.9888C5.09908 18.8825 5.73647 19.2012 6.26762 19.6261Z" fill="#3354F4"/>
<path d="M16.572 13.4648C16.4658 13.3585 16.4658 13.2523 16.3596 13.1461L14.7661 7.30339C14.7661 7.09093 14.7661 6.98469 14.8723 6.77223C14.9786 6.666 15.0848 6.55977 15.2973 6.45354C15.5097 6.34731 15.7222 6.45354 15.9347 6.666C15.9347 6.77223 16.0409 6.87846 16.0409 6.98469L17.6343 12.8274C17.7406 13.1461 17.5281 13.571 17.2094 13.6772C17.1032 13.6772 17.1032 13.6772 16.997 13.6772C16.7845 13.571 16.6783 13.571 16.572 13.4648Z" fill="#3354F4"/>
<path d="M5.52397 17.1829C5.31151 16.9704 5.31151 16.5455 5.52397 16.2268L7.22366 14.5271C7.43613 14.3146 7.86105 14.3146 8.17974 14.5271C8.49843 14.7395 8.3922 15.1645 8.17974 15.4832L6.48005 17.1829C6.37382 17.2891 6.16136 17.3953 6.05512 17.3953C5.84266 17.3953 5.73643 17.3953 5.52397 17.1829Z" fill="#3354F4"/>
<path d="M7.11748 18.7763C6.90501 18.5638 6.90501 18.1389 7.11748 17.8202L8.81717 16.1205C9.02963 15.9081 9.45456 15.9081 9.77325 16.1205C9.98571 16.333 9.98571 16.7579 9.77325 17.0766L8.07355 18.7763C7.96732 18.8825 7.75486 18.9888 7.64863 18.9888C7.43617 18.9888 7.22371 18.8825 7.11748 18.7763Z" fill="#3354F4"/>
<path d="M8.71092 20.3698C8.49846 20.1573 8.49846 19.7324 8.71092 19.4137L10.4106 17.714C10.6231 17.5016 11.048 17.5016 11.3667 17.714C11.5792 17.9265 11.5792 18.3514 11.3667 18.6701L9.667 20.3698C9.56077 20.476 9.34831 20.5823 9.24208 20.5823C8.92338 20.476 8.81715 20.476 8.71092 20.3698Z" fill="#3354F4"/>
<path d="M18.0592 10.5965C17.7405 10.2778 17.6343 9.95915 17.6343 9.53423C17.6343 9.10931 17.7405 8.79061 18.0592 8.47192C18.3779 8.15323 18.6966 8.047 19.1215 8.047C19.5464 8.047 19.8651 8.15323 20.1838 8.47192C20.5025 8.79061 20.6087 9.10931 20.6087 9.53423C20.6087 9.95915 20.5025 10.2778 20.1838 10.5965C19.8651 10.9152 19.5464 11.0215 19.1215 11.0215C18.6966 11.1277 18.3779 10.9152 18.0592 10.5965ZM19.5464 9.10931C19.4402 9.00308 19.2277 8.89684 19.1215 8.89684C18.8028 8.89684 18.4841 9.21554 18.4841 9.53423C18.4841 9.74669 18.5904 9.85292 18.6966 9.95915C18.8028 10.0654 19.0153 10.1716 19.1215 10.1716C19.4402 10.1716 19.7589 9.85292 19.7589 9.53423C19.7589 9.428 19.6527 9.21554 19.5464 9.10931Z" fill="#3354F4"/>
<path d="M12.3228 10.809C12.0041 10.4903 11.8979 10.1716 11.8979 9.74669C11.8979 9.32177 12.0041 9.00308 12.3228 8.68438C12.6415 8.36569 12.9602 8.25946 13.3851 8.25946C13.81 8.25946 14.1287 8.36569 14.4474 8.68438C14.7661 9.00308 14.8724 9.32177 14.8724 9.74669C14.8724 10.1716 14.7661 10.4903 14.4474 10.809C14.1287 11.1277 13.81 11.2339 13.3851 11.2339C12.9602 11.2339 12.5353 11.1277 12.3228 10.809ZM13.81 9.32177C13.7038 9.21554 13.4914 9.10931 13.3851 9.10931C13.0664 9.10931 12.7477 9.428 12.7477 9.74669C12.7477 9.95915 12.854 10.0654 12.9602 10.1716C13.0664 10.2778 13.2789 10.3841 13.3851 10.3841C13.7038 10.3841 14.0225 10.0654 14.0225 9.74669C13.9163 9.64046 13.9163 9.428 13.81 9.32177Z" fill="#3354F4"/>
</g>
<defs>
<clipPath id="clip0_106_85">
<rect width="26" height="26" fill="white"/>
</clipPath>
</defs>
</svg>
