<svg width="26" height="26" viewBox="0 0 26 26" fill="none" xmlns="http://www.w3.org/2000/svg">
<path d="M3.6 25C2.2 25 1 23.8 1 22.4V3.6C1 2.2 2.2 1 3.6 1H22.3C23.8 1 25 2.2 25 3.6V22.3C25 23.7 23.8 24.9 22.4 24.9H3.6V25ZM2.5 22.4C2.5 23 3 23.5 3.6 23.5H22.3C22.9 23.5 23.4 23 23.4 22.4V6.2H2.4V22.4H2.5ZM3.6 2.5C3 2.5 2.5 3 2.5 3.6V4.8H23.5V3.7C23.5 3.1 23 2.6 22.4 2.6H3.6V2.5Z" fill="#3354F4"/>
<path d="M17.5 19.2C17.5 19.2 17.5 19 17.4 18.9C17.3 18.8 17.3 18.8 17.2 18.8H17.1C17 18.8 16.6 18.8 16.6 18.8C15.7 18.8 14.9 18.5 14.1 17.9C13.4 17.4 12.9 16.8 12.5 16.3L12.3 16.1L12.2 16.3C11.9 16.7 11.6 17 11.3 17.3C10.5 18 9.69998 18.5 8.89998 18.6C8.69998 18.6 8.49998 18.7 8.29998 18.7C7.99998 18.7 7.59998 18.7 7.09998 18.7C6.79998 18.7 6.39998 18.7 6.09998 18.7V17.2C6.09998 17.2 6.89998 17.1 7.09998 17.1C7.29998 17.1 7.49998 17.1 7.59998 17.1C7.69998 17.1 7.69998 17.1 7.79998 17.1C8.79998 17.1 9.69998 16.7 10.5 15.8C10.7 15.6 10.9 15.3 11.1 15.1L11.3 14.8L11.1 14.6C10.9 14.4 10.7 14.1 10.5 13.9C9.69998 13 8.79998 12.6 7.79998 12.6C7.69998 12.6 7.69998 12.6 7.59998 12.6C7.49998 12.6 7.29998 12.6 7.09998 12.6C6.79998 12.6 6.09998 12.6 6.09998 12.6V11.1C6.39998 11 6.69998 11 7.09998 11C7.49998 11 7.99998 11 8.29998 11C8.49998 11 8.69998 11 8.89998 11.1C9.79998 11.3 10.6 11.7 11.3 12.4C11.6 12.7 11.9 13 12.2 13.4L12.4 13.6L12.5 13.4C12.9 12.9 13.5 12.2 14.2 11.7C15 11.1 15.8 10.8 16.7 10.8H16.9C17 10.8 17.1 10.8 17.2 10.8H17.3C17.4 10.8 17.5 10.8 17.5 10.7C17.6 10.6 17.6 10.5 17.6 10.4C17.6 10.1 17.6 9.70002 17.6 9.40002L20 11.4L17.7 13.5C17.6 13.2 17.6 13 17.6 12.7C17.6 12.6 17.5 12.4 17.3 12.4C17.2 12.4 17.1 12.4 17 12.4C16.1 12.4 15.3 12.7 14.6 13.4C14.2 13.8 13.8 14.3 13.4 14.7L13.3 14.8L13.4 14.9C13.7 15.3 14.1 15.8 14.6 16.2C15.3 16.9 16.1 17.2 17 17.2C17.1 17.2 17.2 17.2 17.3 17.2C17.6 17.2 17.6 17 17.6 16.9C17.6 16.7 17.6 16.4 17.6 16.2C17.7 16.2 19.3 17.6 20 18.2L17.6 20.3C17.5 20.3 17.5 19.6 17.5 19.2Z" fill="#3354F4"/>
</svg>
