<svg width="40" height="26" viewBox="0 0 40 26" fill="none" xmlns="http://www.w3.org/2000/svg">
<path d="M10.5 25.1C9.00002 25.1 7.90002 23.9 7.90002 22.5V3.6C7.90002 2.2 9.10002 1 10.5 1H29.3C30.8 1 32 2.2 32 3.6V22.4C32 23.9 30.8 25 29.4 25H10.5V25.1ZM9.40002 22.5C9.40002 23.1 9.90002 23.6 10.5 23.6H29.3C29.9 23.6 30.4 23.1 30.4 22.5V6.2H9.30002V22.5H9.40002ZM10.5 2.5C9.90002 2.5 9.40002 3 9.40002 3.6V4.8H30.5V3.7C30.5 3.1 30 2.6 29.4 2.6H10.5V2.5Z" fill="#3354F4"/>
<path d="M24.5 19.3C24.5 19.3 24.5 19.1 24.4 19C24.3 19 24.2 19 24.1 19H24C23.9 19 23.5 19 23.5 19C22.6 19 21.8 18.7 21 18.1C20.3 17.6 19.8 17 19.3 16.5L19.1 16.3L19 16.5C18.7 16.9 18.4 17.2 18.1 17.5C17.3 18.2 16.5 18.7 15.7 18.9C15.5 18.9 15.3 19 15.1 19C14.8 19 14.3 19 13.9 19C13.6 19 13.2 19 12.9 19V17.5C12.9 17.5 13.7 17.4 13.9 17.4C14.1 17.4 14.3 17.4 14.4 17.4C14.5 17.4 14.5 17.4 14.6 17.4C15.6 17.4 16.5 17 17.3 16.1C17.5 15.9 17.7 15.6 17.9 15.4L18.1 15.1L18 14.7C17.8 14.5 17.6 14.2 17.4 14C16.6 13.1 15.7 12.7 14.7 12.7C14.6 12.7 14.6 12.7 14.5 12.7C14.4 12.7 14.2 12.7 14 12.7C13.7 12.7 13 12.7 13 12.7V11.2C13.3 11.1 13.7 11.1 14 11.1C14.4 11.1 14.9 11.1 15.2 11.1C15.4 11.1 15.6 11.1 15.8 11.2C16.7 11.4 17.5 11.8 18.2 12.6C18.5 12.9 18.8 13.2 19.1 13.6L19.3 13.8L19.4 13.6C19.8 13.1 20.4 12.4 21.1 11.9C21.9 11.3 22.7 11 23.6 11H23.8C23.9 11 24 11 24.1 11H24.2C24.3 11 24.4 11 24.4 10.9C24.5 10.8 24.5 10.7 24.5 10.6C24.5 10.3 24.5 9.89998 24.5 9.59998L26.9 11.6L24.6 13.7C24.5 13.4 24.5 13.2 24.5 12.9C24.5 12.8 24.4 12.6 24.2 12.6C24.1 12.6 24 12.6 23.9 12.6C23 12.6 22.2 12.9 21.5 13.6C21.1 14 20.7 14.5 20.3 14.9L20.2 15L20.3 15.1C20.6 15.5 21 16 21.5 16.4C22.2 17.1 23 17.4 23.9 17.4C24 17.4 24.1 17.4 24.2 17.4C24.5 17.4 24.5 17.2 24.5 17.1C24.5 16.9 24.5 16.6 24.5 16.4C24.6 16.4 26.2 17.8 26.9 18.4L24.5 20.5C24.5 20.4 24.4 19.7 24.5 19.3Z" fill="#3354F4"/>
<path d="M34.8 17.1C34.6 17.1 34.4 17 34.3 16.9C34 16.6 34 16.1 34.3 15.8L37 13L34.2 10.3C33.9 10 33.9 9.5 34.2 9.2C34.4 9.1 34.6 9 34.8 9C35 9 35.2 9.1 35.3 9.2L38.6 12.5C38.7 12.6 38.8 12.8 38.8 13C38.8 13.2 38.7 13.4 38.6 13.5L35.3 16.8C35.2 17 35 17.1 34.8 17.1Z" fill="#3354F4"/>
<path d="M5.1 17.1C4.9 17.1 4.7 17 4.6 16.9L1.3 13.6C1.1 13.5 1 13.3 1 13C1 12.8 1.1 12.6 1.2 12.5L4.5 9.2C4.7 9.1 4.9 9 5.1 9C5.3 9 5.5 9.1 5.6 9.2C5.9 9.5 5.9 10 5.6 10.3L2.8 13.1L5.6 15.8C5.9 16.1 5.9 16.6 5.6 16.9C5.5 17 5.3 17.1 5.1 17.1Z" fill="#3354F4"/>
</svg>
