<svg width="30" height="26" viewBox="0 0 30 26" fill="none" xmlns="http://www.w3.org/2000/svg">
<path d="M13.3727 25.8875C13.2602 25.8875 13.1478 25.8875 13.0353 25.775L1.5624 21.2759C1.22496 21.0509 1 20.826 1 20.376V6.18636C1 5.84892 1.22496 5.62396 1.44992 5.51148L12.9228 0.112479C13.1478 0 13.2602 0 13.3727 0C13.4852 0 13.5977 0 13.7102 0.112479L25.183 5.51148C25.5205 5.62396 25.6329 5.84892 25.7454 6.18636V10.5903H25.8579C25.9704 10.5903 26.0829 10.7028 26.3078 10.8153C28.4449 12.0526 29.7947 14.3022 29.7947 16.7767C29.7947 20.4885 26.7577 23.5255 23.0459 23.5255C22.2586 23.5255 21.4712 23.413 20.7963 23.188L20.4589 23.3005L18.7717 23.9754L13.8226 26C13.5977 25.8875 13.4852 25.8875 13.3727 25.8875ZM2.68719 19.8136L12.4729 23.7504V11.3604L2.68719 7.53611V19.8136ZM14.1601 11.3604V23.7504L17.9844 22.1757L18.5468 21.9507L18.4343 21.8383C18.3218 21.7258 18.0968 21.6133 17.9844 21.3884C17.5344 20.9384 17.0845 20.376 16.8596 19.8136C16.2972 18.8013 16.0722 17.789 16.0722 16.6642C16.0722 12.9524 19.1092 9.91547 22.821 9.91547C22.9334 9.91547 23.0459 9.91547 23.0459 9.91547C23.2709 9.91547 23.4958 9.91547 23.7208 10.028H23.8333V7.53611L14.1601 11.3604ZM22.9334 11.3777C20.009 11.3777 17.6469 13.7398 17.6469 16.6642C17.6469 17.5641 17.8719 18.4639 18.3218 19.3637C18.6592 20.0386 19.1092 20.4885 19.6715 20.9384C20.5714 21.6133 21.6962 22.0632 22.9334 22.0632C25.8579 22.0632 28.22 19.7012 28.22 16.7767C28.22 15.202 27.5451 13.7398 26.3078 12.7275C26.1953 12.615 25.9704 12.5025 25.8579 12.39C25.6329 12.2775 25.408 12.0526 25.183 11.9401C24.9581 11.8276 24.6206 11.7151 24.3957 11.6027C24.2832 11.6027 24.0582 11.4902 23.9458 11.4902C23.7208 11.4902 23.4958 11.3777 23.2709 11.3777C23.1584 11.3777 23.0459 11.3777 22.9334 11.3777ZM4.03694 6.18636L13.3727 9.89817L17.0845 8.43594L7.63627 4.49917L4.03694 6.18636ZM9.6609 3.48686L19.2216 7.53611L22.7085 6.18636L13.3727 1.79967L9.6609 3.48686Z" fill="#3354F4"/>
<path d="M26.7578 18.464C26.5328 18.239 26.1954 18.014 25.9704 17.7891C25.7454 17.5641 25.5205 17.4516 25.2955 17.2267C25.2955 17.2267 25.2955 17.2267 25.183 17.2267C25.183 17.2267 25.183 17.2267 25.183 17.3392C25.183 17.4516 25.183 17.4516 25.183 17.5641V18.014C25.183 18.014 25.183 18.1265 25.0706 18.1265C24.8456 18.1265 24.5082 18.1265 24.2832 18.014C24.0583 17.9016 23.8333 17.7891 23.6083 17.5641C23.4959 17.4516 23.1584 17.2267 23.1584 17.0017C23.3834 16.7768 23.4959 16.5518 23.7208 16.3268C24.0583 15.9894 24.5082 15.7645 25.0706 15.7645C25.183 15.7645 25.183 15.7645 25.183 15.8769C25.183 16.1019 25.183 16.2144 25.183 16.4393C25.183 16.4393 25.183 16.4393 25.183 16.5518C25.633 16.1019 26.0829 15.7645 26.6453 15.3145V15.2021C26.1954 14.7521 25.7454 14.4147 25.183 13.9648C25.183 13.9648 25.183 13.9648 25.0706 13.9648C25.0706 13.9648 25.0706 13.9648 25.0706 14.0773C25.0706 14.3022 25.0706 14.5272 25.0706 14.7521C25.0706 14.8646 25.0706 14.8646 24.9581 14.8646C24.8456 14.8646 24.7331 14.8646 24.6206 14.8646C24.0583 14.8646 23.6083 15.0896 23.2709 15.3145C22.9335 15.5395 22.596 15.8769 22.3711 16.2144L21.8087 15.652C21.4712 15.427 21.4712 15.427 21.2463 15.3145C20.9088 15.0896 20.5714 14.9771 20.1215 14.9771C19.784 14.9771 19.1092 14.9771 18.7717 14.9771V15.9894H20.009C20.234 15.9894 20.3464 15.9894 20.4589 16.1019C20.6839 16.2144 20.9088 16.3268 21.0213 16.5518C21.1338 16.6643 21.3588 17.1142 21.4712 17.3392C21.3588 17.4516 21.3587 17.5641 21.2463 17.6766C20.7964 18.1265 20.3464 18.3515 19.784 18.3515C19.5591 18.3515 18.9967 18.3515 18.7717 18.3515V19.3638C19.1092 19.3638 19.8965 19.3638 20.1215 19.3638C20.234 19.3638 20.3464 19.3638 20.4589 19.3638C21.0213 19.2513 21.3587 19.0263 21.8087 18.5764C21.9211 18.464 22.1461 18.239 22.2586 18.1265C22.3711 18.239 22.596 18.464 22.821 18.6889C22.9335 18.8014 22.9335 18.8014 23.0459 18.9139C23.3834 19.1388 23.7208 19.3638 24.0583 19.4763C24.2832 19.5887 24.5082 19.5887 24.7331 19.5887C24.8456 19.5887 24.8456 19.5887 24.9581 19.5887C24.9581 19.5887 24.9581 19.7012 24.9581 19.8137C24.9581 19.9262 24.9581 19.9262 24.9581 20.0387V20.3761C24.9581 20.3761 24.9581 20.3761 24.9581 20.4886C25.7454 19.3638 26.3078 18.9139 26.7578 18.464Z" fill="#3354F4"/>
</svg>
