<svg width="24" height="24" viewBox="0 0 24 24" fill="none" xmlns="http://www.w3.org/2000/svg">
<g clip-path="url(#clip0_203_36)">
<path fill-rule="evenodd" clip-rule="evenodd" d="M18.5 20.8026L20.2 19.1026C20.25 19.3526 20.275 19.5776 20.3 19.8026C20.325 20.0276 20.35 20.2526 20.4 20.5026C20.4 22.4026 18.9 23.9026 17 23.9026H3.4C1.5 23.9026 0 22.4026 0 20.5026C0 16.3026 2.6 12.5026 6.5 11.0026C4.9 9.8026 4 8.0026 4 6.0026C4 2.7026 6.8 -0.0974014 10.1 0.00259864C13.4 0.00259864 16.2 2.7026 16.2 6.1026C16.2 8.1026 15.3 9.9026 13.7 11.1026C14.4 11.3026 14.9 11.6026 15.5 12.0026L14.2 13.3026C13 12.6026 11.6 12.2026 10.1 12.2026C5.6 12.2026 1.8 15.9026 1.8 20.5026C1.8 21.4026 2.5 22.1026 3.4 22.1026H17C17.7 22.1026 18.4 21.5026 18.5 20.8026ZM10.1 1.7026C7.7 1.7026 5.8 3.6026 5.8 6.0026C5.8 8.4026 7.8 10.4026 10.1 10.3026C12.4 10.3026 14.4 8.4026 14.4 6.0026C14.4 3.6026 12.5 1.7026 10.1 1.7026ZM22.3 10.5026L22.8 11.0026C23.7 11.9026 23.7 13.5026 22.6 14.4026L17.2 19.8026C17.1 20.0026 16.8 20.1026 16.5 20.2026L14.3 20.6026C14.2 20.7026 14.1 20.7026 14 20.7026C13.7 20.7026 13.3 20.6026 13 20.3026C12.7 19.9026 12.5 19.5026 12.6 19.0026L13.1 16.7026C13.2 16.3026 13.3 16.1026 13.5 15.9026L18.9 10.5026C19.4 10.0026 20 9.80261 20.6 9.80261C21.3 9.80261 21.9 10.1026 22.3 10.5026ZM14.3 19.0026L16.3 18.7026L20.4 14.5026L18.8 12.9026L14.6 17.1026L14.3 19.0026ZM21.5 13.5026L21.7 13.3026C21.7414 13.2612 21.7828 13.2026 21.8314 13.134C21.9 13.0369 21.9828 12.9198 22.1 12.8026C22.1 12.6026 22 12.4026 21.8 12.2026L21.3 11.7026C21.1 11.6026 20.9 11.5026 20.7 11.5026C20.4 11.5026 20.2 11.6026 20.1 11.7026L19.9 11.9026L21.5 13.5026Z" fill="#3354F4"/>
</g>
<defs>
<clipPath id="clip0_203_36">
<rect width="24" height="24" fill="white"/>
</clipPath>
</defs>
</svg>
