<svg width="24" height="24" viewBox="0 0 24 24" fill="none" xmlns="http://www.w3.org/2000/svg">
<path fill-rule="evenodd" clip-rule="evenodd" d="M3.60001 16.8L7.60001 7C7.70001 6.80005 7.70001 6.5 7.5 6.30005C7.29999 6.09998 7.10001 6 6.79999 6L4.20001 5.80005V2.5C4.20001 2 4.60001 1.59998 5.20001 1.59998H8.5L8.70001 2C9.29999 3.30005 10.6 4.09998 12 4.09998C13.4 4.09998 14.7 3.30005 15.4 2L15.6 1.5H16.6C17.4 1.5 18.3 1.5 19 1.59998L19.8 1.69995L19.7 6H17.2C16.9 6 16.7 6.09998 16.6 6.30005C16.5 6.5 16.4 6.80005 16.5 7L20.4 16.8H22L18.3 7.59998L19.3 7.40002C20.4 7.19995 21.3 6.09998 21.3 5V2.5C21.3 1.09998 20.2 0 18.8 0H15.6C14.9 0 14.3 0.400024 14.1 1.09998C13.8 2 12.9 2.59998 12 2.59998C11.1 2.59998 10.2 2 9.89999 1.09998C9.70001 0.400024 9.10001 0 8.39999 0H5.10001C3.79999 0 2.70001 1.09998 2.70001 2.5V5C2.70001 6.19995 3.5 7.19995 4.70001 7.40002L5.70001 7.59998L2 16.8H3.60001ZM20.6 19.8C17.8 21.5 14.8 22.4 11.9 22.4C9 22.4 6.10001 21.5 3.5 19.8H1C1 19.9 1.10001 20.1001 1.29999 20.2001C4.60001 22.7001 8.10001 24 11.9 24C15.6 24 19.3 22.7001 22.8 20.2001C22.9 20.1001 23 20 23.1 19.8H20.6ZM8.10001 14.6C8.20001 14.4 8.5 14.3 8.70001 14.3C8.89999 14.3 9.20001 14.4 9.29999 14.6L11.2 16.5L11.1 9.80005C11.1 9.30005 11.5 8.90002 12 8.90002C12.5 8.90002 12.9 9.30005 12.9 9.80005V16.5L14.7 14.6C14.8 14.4 15.1 14.3 15.3 14.3C15.5 14.3 15.7 14.4 15.9 14.6C16.2 15 16.2 15.6 15.9 15.9L12.6 19.2001C12.5 19.3 12.4 19.4 12.3 19.4C12.2 19.5 12.1 19.5 12 19.5C11.8 19.5 11.6 19.4 11.4 19.2001L8.10001 15.9C7.79999 15.5 7.79999 14.9 8.10001 14.6Z" fill="#3354F4"/>
</svg>
