<svg id="Layer_1" enable-background="new 0 0 32 32" height="512" viewBox="0 0 32 32" width="512" xmlns="http://www.w3.org/2000/svg"><path d="m29 15h-2.1c-.4-1.7-2-3-3.9-3s-3.4 1.3-3.9 3h-16.1c-.6 0-1 .4-1 1s.4 1 1 1h16.1c.4 1.7 2 3 3.9 3s3.4-1.3 3.9-3h2.1c.6 0 1-.4 1-1s-.4-1-1-1zm-6 3c-1.1 0-2-.9-2-2s.9-2 2-2 2 .9 2 2-.9 2-2 2z"/><path d="m29 7h-16.1c-.4-1.7-2-3-3.9-3s-3.4 1.3-3.9 3h-2.1c-.6 0-1 .4-1 1s.4 1 1 1h2.1c.4 1.7 2 3 3.9 3s3.4-1.3 3.9-3h16.1c.6 0 1-.4 1-1s-.4-1-1-1zm-20 3c-1.1 0-2-.9-2-2s.9-2 2-2 2 .9 2 2-.9 2-2 2z"/><path d="m29 23h-16.1c-.4-1.7-2-3-3.9-3s-3.4 1.3-3.9 3h-2.1c-.6 0-1 .4-1 1s.4 1 1 1h2.1c.4 1.7 2 3 3.9 3s3.4-1.3 3.9-3h16.1c.6 0 1-.4 1-1s-.4-1-1-1zm-20 3c-1.1 0-2-.9-2-2s.9-2 2-2 2 .9 2 2-.9 2-2 2z"/></svg>