<svg width="32" height="26" viewBox="0 0 32 26" fill="none" xmlns="http://www.w3.org/2000/svg">
<g clip-path="url(#clip0_33_384)">
<path d="M16.0833 14.8417C15.975 14.8417 15.8667 14.8417 15.7583 14.7333L9.25834 11.9167C8.93334 11.8083 8.71667 11.4833 8.71667 11.1583V3.68333C8.71667 3.35833 8.93334 3.03333 9.25834 2.925L15.8667 0.108333C15.8667 0 15.975 0 16.0833 0C16.1917 0 16.3 0 16.4083 0.108333L23.0167 2.925C23.3417 3.03333 23.5583 3.35833 23.5583 3.68333V11.1583C23.5583 11.4833 23.3417 11.8083 23.0167 11.9167L16.4083 14.7333C16.3 14.8417 16.1917 14.8417 16.0833 14.8417ZM16.95 7.04167V12.7833L21.825 10.725V4.875L16.95 7.04167ZM10.3417 10.6167L15.2167 12.675V7.04167L10.3417 4.875V10.6167ZM11.6417 3.68333L16.0833 5.525L20.6333 3.575L16.0833 1.73333L11.6417 3.68333Z" fill="#3354F4"/>
<path d="M2 23.2916C2 22.2083 2.75833 21.125 3.84167 20.8H3.95V18.6333C3.95 18.2 4.275 17.7666 4.81667 17.7666H15.4333V16.6833C15.4333 16.25 15.7583 15.8167 16.3 15.8167C16.8417 15.8167 17.1667 16.1416 17.1667 16.6833V17.7666H27.7833C28.2167 17.7666 28.65 18.0917 28.65 18.6333V20.8H28.7583C29.8417 21.2333 30.6 22.2083 30.6 23.2916C30.6 24.8083 29.4083 26 27.8917 26C26.375 26 25.1833 24.8083 25.1833 23.2916C25.1833 22.2083 25.9417 21.125 27.025 20.8H27.1333V19.5H17.3833V20.8H17.4917C18.575 21.2333 19.3333 22.2083 19.3333 23.2916C19.3333 24.8083 18.1417 26 16.625 26C15.1083 26 13.9167 24.8083 13.9167 23.2916C13.9167 22.2083 14.675 21.125 15.7583 20.8H15.8667V19.5H6.11667V20.8H6.225C7.30833 21.2333 8.06667 22.2083 8.06667 23.2916C7.41667 24.8083 6.225 26 4.70833 26C3.19167 26 2 24.8083 2 23.2916ZM5.79167 23.2916C5.79167 22.75 5.35833 22.2083 4.70833 22.2083C4.16667 22.2083 3.625 22.6416 3.625 23.2916C3.625 23.8333 4.05833 24.375 4.70833 24.375C5.25 24.375 5.79167 23.8333 5.79167 23.2916ZM17.1667 23.2916C17.1667 22.75 16.7333 22.2083 16.0833 22.2083C15.4333 22.2083 15 22.6416 15 23.2916C15 23.8333 15.4333 24.375 16.0833 24.375C16.7333 24.375 17.1667 23.8333 17.1667 23.2916ZM28.65 23.2916C28.65 22.75 28.2167 22.2083 27.5667 22.2083C26.9167 22.2083 26.4833 22.6416 26.4833 23.2916C26.4833 23.8333 26.9167 24.375 27.5667 24.375C28.2167 24.375 28.65 23.8333 28.65 23.2916Z" fill="#3354F4"/>
</g>
<defs>
<clipPath id="clip0_33_384">
<rect width="32" height="26" fill="white"/>
</clipPath>
</defs>
</svg>
