<svg width="26" height="26" viewBox="0 0 26 26" fill="none" xmlns="http://www.w3.org/2000/svg">
<rect width="26" height="26"/>
<g clip-path="url(#clip0_1_6)">
<path d="M20.6 7.69999H20.59L11.28 3.32999C11.19 3.28999 11.09 3.26999 10.99 3.26999C10.89 3.26999 10.79 3.28999 10.7 3.32999L1.4 7.70999C1.17 7.81999 1.03 8.03999 1 8.33999V20.82C1 21.11 1.17 21.36 1.44 21.47L10.74 25.21C10.83 25.25 10.91 25.27 11 25.27C11.08 25.27 11.17 25.25 11.26 25.21L20.57 21.47C20.83 21.36 21 21.11 21 20.82V8.25999C20.97 8.01999 20.81 7.79999 20.6 7.69999ZM10.06 23.16L2.63 20.16V9.72999L10.06 12.74V23.16ZM10.95 11.04L4.05 8.26999L11 4.98999L17.93 8.26999L10.95 11.04ZM11.94 23.16V12.73L19.37 9.71999V20.16L11.94 23.16Z" fill="#3354F4"/>
<path d="M24.68 7.89001H22.25C21.86 7.89001 21.53 8.21001 21.53 8.61001C21.53 9.01001 21.85 9.33001 22.25 9.33001H24.68C25.07 9.33001 25.4 9.01001 25.4 8.61001C25.4 8.21001 25.08 7.89001 24.68 7.89001Z" fill="#3354F4"/>
<path d="M23.16 3.31001C22.88 3.03001 22.42 3.03001 22.15 3.31001L20.1 5.36001C19.82 5.64001 19.82 6.10001 20.1 6.37001C20.38 6.64001 20.84 6.65001 21.11 6.37001L23.16 4.32001C23.44 4.04001 23.44 3.58001 23.16 3.31001Z" fill="#3354F4"/>
<path d="M18.23 1H18.18C17.8 1 17.49 1.31 17.49 1.69V4.37C17.49 4.75 17.8 5.06 18.18 5.06H18.23C18.61 5.06 18.92 4.75 18.92 4.37V1.69C18.92 1.31 18.61 1 18.23 1Z" fill="#3354F4"/>
</g>
<defs>
<clipPath id="clip0_1_6">
<rect width="24.4" height="24.27" transform="translate(1 1)"/>
</clipPath>
</defs>
</svg>
