<svg width="24" height="24" viewBox="0 0 24 24" fill="none" xmlns="http://www.w3.org/2000/svg">
<path fill-rule="evenodd" clip-rule="evenodd" d="M4.8 22.1H16.4C16.9 22.1 17.4 22.6 17.4 23.1C17.4 23.6 17 24 16.5 24H4.8C2.7 24 1 22.3 1 20.3V12.6C1 10.5 2.7 8.80005 4.8 8.80005H5.9V5.5C5.9 2.5 8.4 0 11.7 0C14.8 0 17.3 2.5 17.3 5.5V8.80005H18.4C18.8 8.80005 19.1 8.80005 19.4 8.90002C19.9 9.09998 20.1 9.59998 20 10.1C19.8 10.6 19.3 10.8 18.8 10.7C18.7 10.6 18.5 10.6 18.3 10.6H4.8C3.7 10.6 2.9 11.5 2.9 12.5V20.2C2.9 21.3 3.8 22.1 4.8 22.1ZM11.6 1.90002C9.5 1.90002 7.8 3.5 7.8 5.5V8.80005H15.4V5.5C15.4 3.5 13.7 1.90002 11.6 1.90002ZM14.2 16.2001C14.2 16.6971 13.7971 17.1001 13.3 17.1001C12.8029 17.1001 12.4 16.6971 12.4 16.2001C12.4 15.703 12.8029 15.3 13.3 15.3C13.7971 15.3 14.2 15.703 14.2 16.2001ZM9.8 17.1001C10.2971 17.1001 10.7 16.6971 10.7 16.2001C10.7 15.703 10.2971 15.3 9.8 15.3C9.30295 15.3 8.9 15.703 8.9 16.2001C8.9 16.6971 9.30295 17.1001 9.8 17.1001ZM20.2 12.2C22 12.2 23.5 13.7 23.5 15.5C23.5 16.8999 22.7 18.1 21.5 18.6C21.2 18.7 21.1 18.8999 21.1 19.2V20C21.1 20.5 20.7 20.8999 20.2 20.8999C19.7 20.8999 19.3 20.5 19.3 20V19.1C19.3 18.1 19.9 17.2 20.8 16.7999C21.3 16.6 21.7 16.1 21.7 15.5C21.7 14.7 21 14 20.2 14C19.4 14 18.7 14.7 18.7 15.5C18.7 16 18.3 16.3999 17.8 16.3999C17.3 16.3999 16.9 16 16.9 15.5C16.9 13.7 18.4 12.2 20.2 12.2ZM20.2 24C20.6971 24 21.1 23.597 21.1 23.1C21.1 22.6029 20.6971 22.2 20.2 22.2C19.7029 22.2 19.3 22.6029 19.3 23.1C19.3 23.597 19.7029 24 20.2 24ZM7.10001 16.2001C7.10001 16.6971 6.69706 17.1001 6.2 17.1001C5.70295 17.1001 5.3 16.6971 5.3 16.2001C5.3 15.703 5.70295 15.3 6.2 15.3C6.69706 15.3 7.10001 15.703 7.10001 16.2001Z" fill="#3354F4"/>
</svg>
