<svg width="24" height="26" viewBox="0 0 24 26" fill="none" xmlns="http://www.w3.org/2000/svg">
<path d="M3.9 26C1.8 26 0 24.2 0 22.1V3.9C0 1.8 1.8 0 3.9 0H16.6C18.8 0 20.5 1.8 20.5 3.9V10.2C20.5 10.7 20.1 11 19.7 11C19.2 11 18.9 10.6 18.9 10.2V3.9C18.9 2.6 17.9 1.6 16.6 1.6H3.9C2.6 1.6 1.6 2.6 1.6 3.9V22.1C1.6 23.4 2.6 24.4 3.9 24.4H7.4C7.9 24.4 8.2 24.8 8.2 25.2C8.2 25.6 7.8 26 7.4 26H3.9Z" fill="#3354F4"/>
<path d="M6.85053 8.30763C8.20156 8.30763 9.3002 7.20899 9.3002 5.85796C9.3002 4.50692 8.20156 3.40828 6.85053 3.40828C5.49949 3.40828 4.40085 4.50692 4.40085 5.85796C4.40085 7.20899 5.49949 8.30763 6.85053 8.30763Z" fill="#3354F4"/>
<path d="M9.06267 4.04668C8.89935 3.85368 8.71377 3.67552 8.50592 3.53448C8.03826 3.19301 7.46666 3 6.85053 3C5.2768 3 4 4.28422 4 5.85796C4 6.91206 4.57159 7.83254 5.42527 8.3299C5.64054 8.44868 5.87066 8.54518 6.12305 8.61199C6.35317 8.6788 6.59814 8.70849 6.85053 8.70849C8.42427 8.70849 9.70849 7.43169 9.70849 5.85796C9.70849 5.17502 9.46352 4.54404 9.06267 4.04668ZM6.85053 7.89193C6.67237 7.89193 6.50164 7.86966 6.33833 7.82512C6.09336 7.75831 5.86324 7.65439 5.66281 7.50592C5.15061 7.13476 4.81656 6.53347 4.81656 5.85796C4.81656 4.72962 5.72962 3.81656 6.85053 3.81656C7.2217 3.81656 7.56317 3.91306 7.8601 4.0838C8.08279 4.20999 8.2758 4.3733 8.43169 4.57373C8.7212 4.92263 8.89193 5.36802 8.89193 5.85796C8.89193 6.97887 7.97887 7.89193 6.85053 7.89193Z" fill="#3354F4"/>
<path d="M6.5833 7.07536C6.50165 7.07536 6.41999 7.05309 6.35318 7.00113L5.4327 6.18457C5.36589 6.13261 5.32877 6.05095 5.32135 5.96187C5.32135 5.91733 5.32877 5.88022 5.34362 5.8431C5.35847 5.80598 5.38816 5.76887 5.41785 5.7466C5.49209 5.68721 5.58116 5.65752 5.67767 5.66494C5.75932 5.66494 5.84098 5.68721 5.90779 5.73917L6.56846 6.31077L7.70422 5.04139C7.77103 4.982 7.86011 4.94489 7.94919 4.94489C8.03826 4.94489 8.11992 4.97458 8.18673 5.03396C8.21642 5.06366 8.23869 5.09335 8.26096 5.13047C8.27581 5.16758 8.28323 5.2047 8.29066 5.24924C8.29066 5.29378 8.29066 5.33832 8.27581 5.38286C8.26096 5.4274 8.23869 5.46451 8.20158 5.50163L6.8357 6.97886C6.8357 6.97886 6.76889 7.03825 6.72435 7.05309C6.67981 7.06794 6.63527 7.07536 6.59073 7.07536H6.5833Z" fill="white"/>
<path d="M6.85053 15.3076C8.20156 15.3076 9.3002 14.209 9.3002 12.858C9.3002 11.5069 8.20156 10.4083 6.85053 10.4083C5.49949 10.4083 4.40085 11.5069 4.40085 12.858C4.40085 14.209 5.49949 15.3076 6.85053 15.3076Z" fill="#3354F4"/>
<path d="M9.69364 12.7466C9.64168 11.2248 8.38715 10 6.85053 10C5.31392 10 4.05939 11.2248 4.00742 12.7466C4 12.7837 4 12.8134 4 12.8505C4 13.0807 4.02969 13.3034 4.08166 13.5186C4.37859 14.7806 5.50692 15.7085 6.85053 15.7085C8.19414 15.7085 9.32248 14.7806 9.61941 13.5186C9.67137 13.3034 9.70107 13.0807 9.70107 12.8505C9.70107 12.8134 9.70107 12.7837 9.69364 12.7466ZM8.89193 12.8505C8.89193 12.9916 8.87708 13.1326 8.84739 13.2662C8.65439 14.1941 7.83783 14.8919 6.85053 14.8919C5.86324 14.8919 5.04668 14.1941 4.85368 13.2662C4.82398 13.1326 4.80914 12.9916 4.80914 12.8505C4.80914 12.7318 4.81656 12.613 4.84625 12.5016C5.00956 11.544 5.84097 10.8166 6.85053 10.8166C7.8601 10.8166 8.6915 11.544 8.85481 12.5016C8.88451 12.613 8.89193 12.7318 8.89193 12.8505Z" fill="#3354F4"/>
<path d="M6.85053 22.3076C8.20156 22.3076 9.3002 21.209 9.3002 19.858C9.3002 18.5069 8.20156 17.4083 6.85053 17.4083C5.49949 17.4083 4.40085 18.5069 4.40085 19.858C4.40085 21.209 5.49949 22.3076 6.85053 22.3076Z" fill="#3354F4"/>
<path d="M9.69364 19.7466C9.64168 18.2248 8.38715 17 6.85053 17C5.31392 17 4.05939 18.2248 4.00742 19.7466C4 19.7837 4 19.8134 4 19.8505C4 20.0807 4.02969 20.3034 4.08166 20.5186C4.37859 21.7806 5.50692 22.7085 6.85053 22.7085C8.19414 22.7085 9.32248 21.7806 9.61941 20.5186C9.67137 20.3034 9.70107 20.0807 9.70107 19.8505C9.70107 19.8134 9.70107 19.7837 9.69364 19.7466ZM8.89193 19.8505C8.89193 19.9916 8.87708 20.1326 8.84739 20.2662C8.65439 21.1941 7.83783 21.8919 6.85053 21.8919C5.86324 21.8919 5.04668 21.1941 4.85368 20.2662C4.82398 20.1326 4.80914 19.9916 4.80914 19.8505C4.80914 19.7318 4.81656 19.613 4.84625 19.5016C5.00956 18.544 5.84097 17.8166 6.85053 17.8166C7.8601 17.8166 8.6915 18.544 8.85481 19.5016C8.88451 19.613 8.89193 19.7318 8.89193 19.8505Z" fill="#3354F4"/>
<path d="M6.58331 14.0754C6.50165 14.0754 6.41999 14.0531 6.35318 14.0011L5.4327 13.1846C5.36589 13.1326 5.32877 13.051 5.32135 12.9619C5.32135 12.9173 5.32877 12.8802 5.34362 12.8431C5.35847 12.806 5.38816 12.7689 5.41785 12.7466C5.49209 12.6872 5.58116 12.6575 5.67767 12.6649C5.75932 12.6649 5.84098 12.6872 5.90779 12.7392L6.56846 13.3108L7.70422 12.0414C7.77103 11.982 7.86011 11.9449 7.94919 11.9449C8.03826 11.9449 8.11992 11.9746 8.18673 12.034C8.21642 12.0637 8.23869 12.0934 8.26096 12.1305C8.27581 12.1676 8.28323 12.2047 8.29066 12.2492C8.29066 12.2938 8.29066 12.3383 8.27581 12.3829C8.26096 12.4274 8.23869 12.4645 8.20158 12.5016L6.8357 13.9789C6.8357 13.9789 6.76889 14.0382 6.72435 14.0531C6.67981 14.0679 6.63527 14.0754 6.59073 14.0754H6.58331Z" fill="white"/>
<path d="M18.25 22C17.975 22 17.7 21.9268 17.475 21.7561L14.375 19.0732C14.15 18.9024 14.025 18.6341 14 18.3415C14 18.1951 14.025 18.0732 14.075 17.9512C14.125 17.8293 14.225 17.7073 14.325 17.6341C14.575 17.439 14.875 17.3415 15.2 17.3659C15.475 17.3659 15.75 17.439 15.975 17.6098L18.2 19.4878L22.025 15.3171C22.25 15.122 22.55 15 22.85 15C23.15 15 23.425 15.0976 23.65 15.2927C23.75 15.3902 23.825 15.4878 23.9 15.6098C23.95 15.7317 23.975 15.8537 24 16C24 16.1463 24 16.2927 23.95 16.439C23.9 16.5854 23.825 16.7073 23.7 16.8293L19.1 21.6829C19.1 21.6829 18.875 21.878 18.725 21.9268C18.575 21.9756 18.425 22 18.275 22H18.25Z" fill="#3354F4"/>
</svg>
