<svg width="26" height="26" viewBox="0 0 26 26" fill="none" xmlns="http://www.w3.org/2000/svg">
<path fill-rule="evenodd" clip-rule="evenodd" d="M12.5966 25.1C10.6966 25.1 9.19657 23.8 8.79657 22L3.69657 22.1C2.99657 22.1 2.29657 21.7 2.09657 21C1.89657 20.3 1.99657 19.5 2.49657 19L3.69657 17.8C4.29657 17.2 4.69657 16.3 4.69657 15.4V12C4.69657 8.4 7.19657 5.2 10.5966 4.3C10.3966 4 10.2966 3.7 10.2966 3.3C10.2966 2 11.3966 1 12.5966 1C13.8966 1 14.8966 2 14.8966 3.3C14.8966 3.7 14.7966 4 14.5966 4.4C15.9966 4.8 17.1966 5.5 18.1966 6.5C19.6966 8 20.4966 10 20.4966 12.1V15.5C20.4966 16.4 20.8966 17.2 21.4966 17.9L22.6966 19.1C23.1966 19.6 23.3966 20.4 23.0966 21C22.7966 21.7 22.1966 22.1 21.4966 22.1H16.3966C16.0966 23.8 14.4966 25.1 12.5966 25.1ZM10.3966 22.1C10.6966 23 11.5966 23.7 12.5966 23.7C13.5966 23.7 14.4966 23.1 14.7966 22.1H10.3966ZM12.5966 5.6C8.99657 5.6 6.09657 8.5 6.09657 12.1V15.5C6.09657 16.8 5.59657 18 4.69657 18.9L3.49657 20.1C3.39657 20.2 3.39657 20.3 3.39657 20.4C3.39657 20.5 3.49657 20.6 3.69657 20.6H21.3966C21.4966 20.6 21.5966 20.5 21.6966 20.4C21.6966 20.3 21.6966 20.2 21.5966 20.1L20.3966 18.9C19.4966 18 18.9966 16.8 18.9966 15.5V12C18.9966 10.3 18.2966 8.7 17.0966 7.4C15.9966 6.3 14.2966 5.6 12.5966 5.6ZM12.5966 2.5C12.1966 2.5 11.7966 2.9 11.7966 3.3C11.7966 3.7 12.1966 4.1 12.5966 4.1C12.9966 4.1 13.3966 3.7 13.3966 3.3C13.3966 2.9 13.0966 2.5 12.5966 2.5Z" fill="#3354F4"/>
</svg>
