<svg width="26" height="26" viewBox="0 0 26 26" fill="none" xmlns="http://www.w3.org/2000/svg">
<g clip-path="url(#clip0_106_58)">
<path d="M14.074 5.09167H8.98229V4.225C8.98229 2.81667 10.174 1.73333 11.5823 1.73333C12.9906 1.73333 14.1823 2.925 14.1823 4.225V5.09167H14.074ZM15.8073 8.125V6.825H19.1656V10.1833H20.899V5.09167H15.8073V4.225C15.8073 1.84167 13.8573 0 11.5823 0C9.19895 0 7.24895 1.95 7.24895 4.225V5.09167H2.15729V22.1C2.15729 23.9417 3.67395 25.4583 5.51562 25.4583H9.74062V23.8333H5.51562C4.54062 23.8333 3.78229 23.075 3.78229 22.1V6.825H7.14062V9.64167H8.87395V6.825H14.074V8.125H15.8073Z" fill="#3354F4"/>
<path d="M23.1739 26C22.9573 26 22.7406 25.8917 22.6323 25.7834L18.9489 22.2084C17.8656 23.075 16.4573 23.5084 15.0489 23.5084C11.3656 23.5084 8.44061 20.5834 8.44061 17.0084C8.44061 13.4334 11.3656 10.5084 15.0489 10.5084C18.7323 10.5084 21.6573 13.4334 21.6573 17.0084C21.6573 18.525 21.1156 19.9334 20.1406 21.125L23.8239 24.7C24.1489 25.025 24.1489 25.5667 23.8239 25.7834C23.6073 25.8917 23.3906 26 23.1739 26ZM14.9406 12.025C12.2323 12.025 9.95728 14.1917 9.95728 16.9C9.95728 19.6084 12.2323 21.775 14.9406 21.775C17.6489 21.775 19.9239 19.6084 19.9239 16.9C19.9239 14.1917 17.7573 12.025 14.9406 12.025Z" fill="#3354F4"/>
<path d="M14.1823 19.5L11.6906 17.1167L12.6656 16.0333L14.1823 17.4417L16.9989 14.625L18.0823 15.6L14.1823 19.5Z" fill="#3354F4"/>
</g>
<defs>
<clipPath id="clip0_106_58">
<rect width="26" height="26" fill="white"/>
</clipPath>
</defs>
</svg>
