<svg width="24" height="24" viewBox="0 0 24 24" fill="none" xmlns="http://www.w3.org/2000/svg">
<g clip-path="url(#clip0_204_236)">
<path fill-rule="evenodd" clip-rule="evenodd" d="M12 0L0 10.4L1 11.5L2.29999 10.3V20.2C2.29999 21.7 3.5 22.9 5 22.9H8L7.39999 22.3C7.33853 22.2078 7.26758 22.1155 7.19302 22.0233C7.14624 21.9655 7.09802 21.9076 7.0498 21.8497C6.92487 21.6998 6.79996 21.5499 6.70001 21.4H5C4.39999 21.4 3.79999 20.9 3.79999 20.2V9.09998L12 2L20.2 9.09998V20.3C20.2 20.8 19.9 21.3 19.4 21.4C19.3 21.4 19.2 21.5 19.1 21.5H17.4C17.2456 21.7317 17.0315 21.9633 16.8499 22.1949C16.7963 22.2633 16.7456 22.3317 16.7 22.4L16.1 23H19.1C19.4 23 19.6 23 19.9 22.9C21 22.6 21.8 21.5 21.8 20.4V10.5L23.1 11.7L24.1 10.6L12 0ZM12.6 14.3999L12.5 14.2999C12.3 14.2 12.2 14.2 12 14.2C11.3 14.2 10.8 14.7 10.8 15.3999C10.8 15.7999 11 16.2 11.4 16.3999C11.6 16.5 11.8 16.6 12 16.6C12.7 16.6 13.2 16.1 13.2 15.3999C13.2 15 13 14.6 12.6 14.3999ZM12 10.1C14.9 10.1 17.3 12.5 17.3 15.4H17.5V15.7C17.5 17.1 16.6 18.7999 15 20.7C13.8 22 12.6 23 12.6 23L12.1 23.4L11.6 23C11.6 23 10.4 22.1 9.20001 20.7C7.5 18.9 6.70001 17.2 6.70001 15.7V15.4C6.70001 12.5 9.10001 10.1 12 10.1ZM12.1 21.4C13 20.6 15.8 17.9 15.8 15.7V15.4C15.8 13.2999 14.1 11.6 12 11.6C9.90002 11.6 8.20001 13.2999 8.20001 15.4V15.7C8.20001 17.9 11 20.6 11.9 21.4L12 21.5L12.1 21.4Z" fill="#3354F4"/>
</g>
<defs>
<clipPath id="clip0_204_236">
<rect width="24" height="24" fill="white"/>
</clipPath>
</defs>
</svg>
