<svg width="24" height="24" viewBox="0 0 24 24" fill="none" xmlns="http://www.w3.org/2000/svg">
<g clip-path="url(#clip0_204_280)">
<path fill-rule="evenodd" clip-rule="evenodd" d="M0.699997 5.40002C1.10001 5.40002 1.39999 5.09998 1.39999 4.69995V1.40002H4.60001C5 1.40002 5.3 1.09998 5.3 0.699951C5.3 0.300049 5 0 4.7 0H0.699997C0.300003 0 0 0.300049 0 0.699951V4.59998C0 5 0.300003 5.40002 0.699997 5.40002ZM4.7 22.6H1.39999V19.3999C1.39999 19 1.10001 18.7 0.699997 18.7C0.300003 18.7 0 19 0 19.2999V23.2C0 23.7 0.300003 24 0.699997 24H4.60001C5 24 5.3 23.7 5.3 23.2999C5.3 22.8999 5 22.6 4.7 22.6ZM19.4 0H23.3C23.7 0 24 0.300049 24 0.699951V4.69995C24 5 23.7 5.30005 23.3 5.30005C22.9 5.30005 22.6 5 22.6 4.59998V1.40002H19.4C19 1.40002 18.7 1.09998 18.7 0.699951C18.7 0.300049 19 0 19.4 0ZM23.3 18.6C22.9 18.6 22.6 18.9 22.6 19.2999V22.5H19.4C19 22.5 18.7 22.7999 18.7 23.2C18.7 23.6 19 24 19.3 24H23.2C23.6 24 23.9 23.7 23.9 23.2999V19.4C24 19 23.7 18.6 23.3 18.6ZM19.7 4.5V9C19.7 9.19995 19.5 9.40002 19.3 9.40002H17.2C17 9.40002 16.8 9.19995 16.8 9V7.40002C16.8 7.19995 16.6 7 16.4 7H13.9C13.7 7 13.5 7.19995 13.5 7.40002V18.4C13.5 18.6 13.7 18.7999 13.9 18.7999H15C15.2 18.7999 15.4 19 15.4 19.2V21.2999C15.4 21.5 15.2 21.7 15 21.7H9.10001C8.90001 21.7 8.7 21.5 8.7 21.2999V19.2C8.7 19 8.90001 18.7999 9.10001 18.7999H10.1C10.3 18.7999 10.5 18.6 10.5 18.4V7.40002C10.5 7.19995 10.3 7 10.1 7H7.60001C7.40001 7 7.2 7.19995 7.2 7.40002V9C7.2 9.19995 7 9.40002 6.8 9.40002H4.7C4.5 9.40002 4.3 9.19995 4.3 9V4.5C4.3 4.29993 4.5 4.09998 4.7 4.09998H19.3C19.5 4.09998 19.7 4.29993 19.7 4.5Z" fill="#3354F4"/>
</g>
<defs>
<clipPath id="clip0_204_280">
<rect width="24" height="24" fill="white"/>
</clipPath>
</defs>
</svg>
