<svg width="26" height="26" viewBox="0 0 26 26" fill="none" xmlns="http://www.w3.org/2000/svg">
<path d="M5.89998 16.1C5.39998 16.1 5.09998 15.7 5.09998 15.3C5.09998 14.8 5.49998 14.5 5.89998 14.5H12.4C12.9 14.5 13.2 14.9 13.2 15.3C13.2 15.8 12.8 16.1 12.4 16.1H5.89998ZM5.89998 12C5.39998 12 5.09998 11.6 5.09998 11.2C5.09998 10.7 5.49998 10.4 5.89998 10.4H16.5C17 10.4 17.3 10.8 17.3 11.2C17.3 11.7 16.9 12 16.5 12H5.89998Z" fill="#3354F4"/>
<path d="M4.9 26C2.8 26 1 24.2 1 22.1V3.9C1 1.8 2.8 0 4.9 0H17.6C19.8 0 21.5 1.8 21.5 3.9V10.2C21.5 10.7 21.1 11 20.7 11C20.2 11 19.9 10.6 19.9 10.2V3.9C19.9 2.6 18.9 1.6 17.6 1.6H4.9C3.6 1.6 2.6 2.6 2.6 3.9V22.1C2.6 23.4 3.6 24.4 4.9 24.4H8.4C8.9 24.4 9.2 24.8 9.2 25.2C9.2 25.6 8.8 26 8.4 26H4.9Z" fill="#3354F4"/>
<path d="M13 26C12.9 26 12.8 26 12.8 26C12.6 25.9 12.4 25.8 12.3 25.6C12.2 25.4 12.2 25.2 12.2 25L13.4 20.9C13.4 20.8 13.5 20.7 13.6 20.6L19.3 14.9C19.8 14.4 20.6 14.1 21.3 14.1C22.1 14.1 22.8 14.4 23.3 14.9C24.4 16 24.4 17.9 23.3 19L17.6 24.6C17.5 24.7 17.4 24.8 17.2 24.8L13.2 26C13.2 26 13.1 26 13 26ZM15 21.5L14.3 23.6L14.2 24L16.7 23.3L20.7 19.3L19 17.6L15 21.5ZM21.4 15.7C21.1 15.7 20.8 15.8 20.5 16.1L20.2 16.4L22 18.2L22.3 17.9C22.8 17.4 22.8 16.6 22.3 16.1C22 15.8 21.7 15.7 21.4 15.7ZM5.89998 7.80001C5.49998 7.80001 5.09998 7.50001 5.09998 7.00001C5.09998 6.50001 5.49998 6.20001 5.89998 6.20001H16.5C17 6.20001 17.3 6.60001 17.3 7.00001C17.3 7.50001 16.9 7.80001 16.5 7.80001H5.89998Z" fill="#3354F4"/>
</svg>
