<svg width="24" height="24" viewBox="0 0 24 24" fill="none" xmlns="http://www.w3.org/2000/svg">
<path fill-rule="evenodd" clip-rule="evenodd" d="M18.7 16.6C19.7 16.6 20.5 17.3 20.6 18.3L21 21.9C21.1 22.9 20.4 23.9 19.3 24H19.1H3.89999C3.39999 24 2.89999 23.8 2.60001 23.5C2.2 23.1 2 22.6 2 22.1V21.9L2.39999 18.3C2.5 17.3 3.3 16.6 4.3 16.6H6.8C5 13.8 3.7 10.2 3.7 7.90002C3.7 3.5 7.2 0 11.4 0C15.8 0 19.3 3.59998 19.3 7.90002C19.3 10.2 18 13.8 16.2 16.6H18.7ZM11.5 1.5C8 1.5 5.10001 4.40002 5.10001 7.90002C5.10001 11.4 9.10001 19 11.5 19C13.9 19 17.9 11.4 17.9 7.90002C17.9 4.40002 15 1.5 11.5 1.5ZM3.5 22C3.5 22.3 3.7 22.5 3.89999 22.5H19.1C19.3 22.5 19.5 22.3 19.5 22L19.1 18.4C19.1 18.2 18.9 18 18.7 18H15.1C13.9 19.6 12.6 20.4 11.5 20.4C10.4 20.4 9.2 19.5 7.89999 18H4.3C4.10001 18 3.89999 18.2 3.89999 18.4L3.5 22ZM11.5 4.19995C13.5 4.19995 15.2 5.8999 15.2 7.8999C15.2 9.8999 13.5 11.6 11.5 11.6C9.5 11.6 7.8 10 7.8 7.8999C7.8 5.79993 9.5 4.19995 11.5 4.19995ZM11.5 5.69995C10.3 5.69995 9.3 6.69995 9.3 7.8999C9.3 9.09998 10.3 10.1 11.5 10.1C12.7 10.1 13.7 9.09998 13.7 7.8999C13.7 6.69995 12.7 5.69995 11.5 5.69995Z" fill="#3354F4"/>
</svg>
