<svg width="24" height="24" viewBox="0 0 24 24" fill="none" xmlns="http://www.w3.org/2000/svg">
<g clip-path="url(#clip0_204_262)">
<path fill-rule="evenodd" clip-rule="evenodd" d="M21.4134 0.680176H10.7538C9.71619 0.680176 8.8672 1.52916 8.8672 2.56681V4.73645C8.8672 5.7741 9.71619 6.62309 10.7538 6.62309H21.4134C22.451 6.62309 23.3 5.7741 23.3 4.73645V2.56681C23.2057 1.52916 22.451 0.680176 21.4134 0.680176ZM21.885 4.73645C21.885 5.01945 21.6964 5.20811 21.4134 5.20811H10.7538C10.4708 5.20811 10.2822 5.01945 10.2822 4.73645V2.56681C10.2822 2.28382 10.4708 2.09515 10.7538 2.09515H21.4134C21.6964 2.09515 21.885 2.28382 21.885 2.56681V4.73645ZM21.4134 9.07574H10.7538C9.71619 9.07574 8.8672 9.92473 8.8672 10.9624V13.132C8.8672 14.1697 9.71619 15.0187 10.7538 15.0187H21.4134C22.451 15.0187 23.3 14.1697 23.3 13.132V10.9624C23.2057 9.92473 22.451 9.07574 21.4134 9.07574ZM21.885 13.0377C21.885 13.3207 21.6964 13.5093 21.4134 13.5093H10.7538C10.4708 13.5093 10.2822 13.3207 10.2822 13.0377V10.868C10.2822 10.5851 10.4708 10.3964 10.7538 10.3964H21.4134C21.6964 10.3964 21.885 10.5851 21.885 10.868V13.0377ZM1.88664 17.3769H4.99959C6.03724 17.3769 6.88623 18.2259 6.88623 19.2635V21.4332C6.88623 22.4708 6.03724 23.3198 4.99959 23.3198H1.88664C0.848988 23.3198 0 22.4708 0 21.4332V19.2635C0 18.2259 0.848988 17.3769 1.88664 17.3769ZM4.99959 21.9048C5.28259 21.9048 5.47125 21.7162 5.47125 21.4332V19.2635C5.47125 18.9805 5.28259 18.7919 4.99959 18.7919H1.88664C1.60364 18.7919 1.41498 18.9805 1.41498 19.2635V21.4332C1.41498 21.7162 1.60364 21.9048 1.88664 21.9048H4.99959ZM10.7538 17.3769H21.4134C22.451 17.3769 23.2057 18.2259 23.3 19.2635V21.4332C23.3 22.4708 22.451 23.3198 21.4134 23.3198H10.7538C9.71619 23.3198 8.8672 22.4708 8.8672 21.4332V19.2635C8.8672 18.2259 9.71619 17.3769 10.7538 17.3769ZM21.4134 21.9048C21.6964 21.9048 21.885 21.7162 21.885 21.4332V19.2635C21.885 18.9805 21.6964 18.7919 21.4134 18.7919H10.7538C10.4708 18.7919 10.2822 18.9805 10.2822 19.2635V21.4332C10.2822 21.7162 10.4708 21.9048 10.7538 21.9048H21.4134ZM1.88664 9.07574H4.99959C6.03724 9.07574 6.88623 9.92473 6.88623 10.9624V13.132C6.88623 14.1697 6.03724 15.0187 4.99959 15.0187H1.88664C0.848988 15.0187 0 14.1697 0 13.132V10.9624C0 9.92473 0.848988 9.07574 1.88664 9.07574ZM4.99959 13.5093C5.28259 13.5093 5.47125 13.3207 5.47125 13.0377V10.868C5.47125 10.5851 5.28259 10.3964 4.99959 10.3964H1.88664C1.60364 10.3964 1.41498 10.5851 1.41498 10.868V13.0377C1.41498 13.3207 1.60364 13.5093 1.88664 13.5093H4.99959ZM1.88664 0.680176H4.99959C6.03724 0.680176 6.88623 1.52916 6.88623 2.56681V4.73645C6.88623 5.7741 6.03724 6.62309 4.99959 6.62309H1.88664C0.848988 6.62309 0 5.7741 0 4.73645V2.56681C0 1.52916 0.848988 0.680176 1.88664 0.680176ZM4.99959 5.20811C5.28259 5.20811 5.47125 5.01945 5.47125 4.73645V2.56681C5.47125 2.28382 5.28259 2.09515 4.99959 2.09515H1.88664C1.60364 2.09515 1.41498 2.28382 1.41498 2.56681V4.73645C1.41498 5.01945 1.60364 5.20811 1.88664 5.20811H4.99959Z" fill="#3354F4"/>
</g>
<defs>
<clipPath id="clip0_204_262">
<rect width="24" height="24" fill="white"/>
</clipPath>
</defs>
</svg>
