<svg width="24" height="24" viewBox="0 0 24 24" fill="none" xmlns="http://www.w3.org/2000/svg">
<g clip-path="url(#clip0_204_247)">
<path fill-rule="evenodd" clip-rule="evenodd" d="M22.41 11.8021H20.1291V10.7112C20.1291 9.42199 19.2365 8.33111 18.0465 8.0336V0.794168C17.9473 0.397487 17.6498 0.0999756 17.2531 0.0999756H0.790849C0.394168 0.0999756 0.0966568 0.397487 0.0966568 0.794168V19.934C0.0966568 20.3307 0.394168 20.6282 0.790849 20.6282H11.5012V21.2233C11.5012 22.7108 12.6913 24 14.278 24H20.4266C21.9141 24 23.2033 22.81 23.2033 21.2233V12.5954C23.1042 12.0996 22.8067 11.8021 22.41 11.8021ZM17.3523 9.42199C18.1457 9.42199 18.7407 10.017 18.7407 10.7112V11.8021H15.9639V10.7112C15.9639 10.017 16.5589 9.42199 17.3523 9.42199ZM12.1954 11.8021C11.7988 11.8021 11.5012 12.0996 11.5012 12.4963V19.2398H1.48504V1.48836H16.5589V8.13277C15.3689 8.43028 14.4764 9.52116 14.4764 10.8104V11.9012H12.1954V11.8021ZM21.7158 21.1241C21.7158 21.8183 21.1208 22.4133 20.4266 22.4133H14.278C13.5838 22.4133 12.8896 21.8183 12.8896 21.1241V13.1905H14.4764V15.0747C14.4764 15.4714 14.7739 15.7689 15.1705 15.7689C15.5672 15.7689 15.8647 15.4714 15.8647 15.0747V13.1905H18.6415V15.0747C18.6415 15.4714 18.939 15.7689 19.3357 15.7689C19.7324 15.7689 20.0299 15.4714 20.0299 15.0747V13.1905H21.6166V21.1241H21.7158ZM4.956 7.33947L4.16264 8.232V8.13283C3.86513 7.83532 3.46845 7.73615 3.17094 8.03366C2.87343 8.33117 2.77426 8.72785 3.07177 9.02536L3.66679 9.71955C3.86513 10.0171 4.36098 10.1162 4.65849 9.81872C4.65849 9.81872 4.75766 9.81872 4.75766 9.71955L6.14605 8.232C6.44356 7.93449 6.34439 7.53781 6.14605 7.2403C5.6502 7.04195 5.25352 7.04195 4.956 7.33947ZM4.16264 3.96763L4.956 3.07509C5.25352 2.87675 5.6502 2.77758 5.94771 3.07509C6.14605 3.3726 6.24522 3.76929 5.94771 4.0668L4.75766 5.45518C4.75766 5.55435 4.65849 5.55435 4.65849 5.55435C4.36098 5.85186 3.86513 5.75269 3.66679 5.45518L3.07177 4.76099C2.77426 4.46348 2.87343 4.0668 3.17094 3.76929C3.46845 3.47177 3.9643 3.57094 4.16264 3.86846V3.96763ZM4.956 11.6037L4.16264 12.4963L4.06347 12.3971C3.86513 12.0996 3.36928 12.0004 3.07177 12.2979C2.77426 12.5954 2.67508 12.9921 2.9726 13.2896L3.56762 13.9838C3.76596 14.2813 4.26181 14.3805 4.55932 14.083C4.55932 14.083 4.65849 14.083 4.65849 13.9838L6.04688 12.4963C6.34439 12.1987 6.24522 11.8021 6.04688 11.5045C5.65019 11.3062 5.25351 11.3062 4.956 11.6037ZM14.4764 3.57094C14.873 3.57094 15.1705 3.86845 15.1705 4.26513C15.1705 4.66181 14.873 4.95932 14.4764 4.95932H8.22862C7.83194 4.95932 7.53443 4.66181 7.53443 4.26513C7.53443 3.86845 7.83194 3.57094 8.22862 3.57094H14.4764ZM12.1954 7.83531H8.22862C7.83194 7.83531 7.53443 8.13282 7.53443 8.5295C7.53443 8.92618 7.83194 9.22369 8.22862 9.22369H12.0963C12.4929 9.22369 12.7905 8.92618 12.7905 8.5295C12.7905 8.13282 12.5921 7.83531 12.1954 7.83531ZM8.22862 12.0996H9.41867C9.81535 12.0996 10.1129 12.3971 10.1129 12.7938C10.1129 13.1904 9.81535 13.4879 9.41867 13.4879H8.22862C7.83194 13.4879 7.53443 13.1904 7.53443 12.7938C7.53443 12.3971 7.83194 12.0996 8.22862 12.0996Z" fill="#3354F4"/>
</g>
<defs>
<clipPath id="clip0_204_247">
<rect width="24" height="24" fill="white"/>
</clipPath>
</defs>
</svg>
