<svg width="27" height="26" viewBox="0 0 27 26" fill="none" xmlns="http://www.w3.org/2000/svg">
<path d="M9.7 22.7C9.1 22.7 8.6 22.5 8.2 22.1L0.6 14.5C-0.2 13.7 -0.2 12.3 0.6 11.5L10.5 1.6C10.9 1.2 11.4 1 12 1H19.6C20.8 1 21.7 1.9 21.7 3.1V10.7C21.7 11.3 21.5 11.8 21.1 12.2L15.6 17.7C11.4 21.9 11.4 21.9 11 22.2L10.8 22.4C10.4 22.6 10 22.7 9.7 22.7ZM12 2.5C11.8 2.5 11.7 2.6 11.6 2.7L1.7 12.6C1.6 12.7 1.5 12.9 1.5 13C1.5 13.2 1.6 13.3 1.7 13.4L9.3 21C9.4 21.1 9.6 21.2 9.7 21.2C9.9 21.2 10 21.1 10.1 21L20 11.1C20.1 11 20.2 10.8 20.2 10.7V3.1C20.2 2.8 19.9 2.5 19.6 2.5H12Z" fill="#3354F4"/>
<path d="M13.5 23.9L24.4 13C24.5 12.9 24.6 12.7 24.6 12.6V3.8H26.1V12.6C26.1 13.2 25.9 13.7 25.5 14.1L14.6 25L13.5 23.9Z" fill="#3354F4"/>
<path d="M16 8.9C14.7 8.9 13.7 7.9 13.7 6.6C13.7 5.3 14.7 4.3 16 4.3C17.3 4.3 18.3 5.3 18.3 6.6C18.3 7.9 17.3 8.9 16 8.9ZM16 5.8C15.5 5.8 15.1 6.2 15.1 6.7C15.1 7.2 15.5 7.6 16 7.6C16.5 7.6 16.9 7.2 16.9 6.7C16.9 6.2 16.5 5.8 16 5.8Z" fill="#3354F4"/>
</svg>
