<svg width="26" height="26" viewBox="0 0 26 26" fill="none" xmlns="http://www.w3.org/2000/svg">
<path d="M20.2158 14.2448C20.8133 14.2448 21.4108 14.444 21.9087 14.6432V13.0498V6.47718C21.9087 6.17842 21.7095 5.87967 21.4108 5.78008L11.3527 1.09959C11.1535 1 11.0539 1 10.9544 1C10.8548 1 10.7552 1 10.556 1.09959L0.497925 5.78008C0.19917 5.97925 0 6.17842 0 6.57676V20.0207C0 20.4191 0.19917 20.7178 0.497925 20.8174L10.556 24.9004C10.6556 24.9004 10.7552 25 10.8548 25C10.9544 25 11.0539 25 11.1535 24.9004L15.5353 23.1079L17.1286 22.5104C16.6307 22.112 16.2324 21.7137 15.9336 21.1162L14.5394 21.7137L11.751 22.8091V11.1577L20.1162 7.77178V14.2448H20.2158ZM10.0581 22.8091L1.69295 19.4232V7.77178L10.0581 11.1577V22.8091ZM10.9544 9.6639L2.98755 6.47718L5.87552 5.08299L13.8423 8.46888L10.9544 9.6639ZM16.1328 7.57261L7.9668 4.18672L10.9544 2.79253L18.9212 6.47718L16.1328 7.57261Z" fill="#3354F4"/>
<path d="M21.9087 13.0498C21.4108 12.8506 20.8133 12.751 20.2158 12.751C20.1162 12.751 20.0166 12.751 19.917 12.751C16.5311 12.751 13.8423 15.4398 13.8423 18.8257C13.8423 19.8216 14.1411 20.8174 14.5394 21.7137C14.8382 22.2116 15.137 22.7095 15.5353 23.1079C16.6307 24.2033 18.1245 24.9004 19.8174 24.9004C23.2033 24.9004 25.8921 22.2116 25.8921 18.8257C25.9917 16.1369 24.2988 13.9461 21.9087 13.0498ZM19.917 23.4066C18.9212 23.4066 17.9253 23.0083 17.1287 22.5104C16.6307 22.112 16.2324 21.7137 15.9336 21.1162C15.5353 20.4191 15.3361 19.6224 15.3361 18.8257C15.3361 16.3361 17.4274 14.2448 19.917 14.2448C20.0166 14.2448 20.1162 14.2448 20.2158 14.2448C20.8133 14.2448 21.4108 14.444 21.9087 14.6432C23.4025 15.3402 24.4979 16.9336 24.4979 18.7261C24.4979 21.3154 22.5062 23.4066 19.917 23.4066Z" fill="#3354F4"/>
<path d="M20.8133 17.0332C20.8133 16.834 20.8133 16.7344 20.8133 16.5353C20.8133 16.4357 20.8133 16.4357 20.9129 16.3361C21.0125 16.3361 21.0125 16.3361 21.1121 16.4357C21.4108 16.7344 21.7096 17.0332 22.0083 17.4315C22.3071 17.7303 22.6058 18.1286 22.9046 18.4274C23.0042 18.527 23.0042 18.6266 22.9046 18.7261C22.5062 19.1245 22.1079 19.6224 21.61 20.0207C21.4108 20.2199 21.2116 20.4191 21.0125 20.7178C21.0125 20.7178 20.9129 20.8174 20.8133 20.8174C20.7137 20.8174 20.7137 20.7178 20.7137 20.7178C20.7137 20.4191 20.7137 20.0207 20.7137 19.722C20.7137 19.6224 20.7137 19.6224 20.6141 19.6224C19.917 19.722 19.3195 19.9212 18.6224 20.2199C18.0249 20.5187 17.527 20.917 17.1287 21.4149C17.1287 21.4149 17.0291 21.5145 16.9295 21.5145C16.8299 21.5145 16.8299 21.4149 16.8299 21.3154C16.9295 20.917 17.0291 20.5187 17.1287 20.1203C17.7262 18.8257 18.8216 18.029 20.2158 17.8299C20.3154 17.8299 20.415 17.8299 20.5145 17.8299C20.6141 17.8299 20.6141 17.8299 20.6141 17.7303C20.8133 17.3319 20.8133 17.2324 20.8133 17.0332Z" fill="#3354F4"/>
</svg>
