<svg width="26" height="26" viewBox="0 0 26 26" fill="none" xmlns="http://www.w3.org/2000/svg">
<g clip-path="url(#clip0_17_5)">
<path d="M2.9 25C1.3 25 0 23.7 0 22.1V3.9C0 2.3 1.3 1 2.9 1H23.2C24.8 1 26.1 2.3 26.1 3.9V22C26.1 23.6 24.8 24.9 23.2 24.9H2.9V25ZM18.5 23.4L23.3 23.5C24.1 23.5 24.7 22.9 24.7 22.1V6.4L1.6 6.3L1.5 22.1C1.5 22.9 2.1 23.5 2.9 23.5H7.6L7.7 15.8L6.9 16.6C6.8 16.8 6.5 16.9 6.3 17C6.2 17 6.2 17 6.1 17C5.8 17 5.6 16.9 5.4 16.7L3.8 14.9C3.5 14.6 3.5 14.1 3.7 13.7L3.8 13.5L4.3 13C6.4 10.8 7.6 9.4 10.4 9L11.2 8.9V9.6C11.4 10.6 12.1 11.2 13 11.2C13.9 11.2 14.7 10.5 14.8 9.6L15 8.8L15.7 9C18.5 9.3 19.6 10.6 21.5 12.6C21.7 12.9 22 13.2 22.3 13.5L22.4 13.7C22.6 14.1 22.6 14.6 22.3 14.9L20.8 16.6C20.6 16.9 20.3 17 20 17C19.7 17 19.4 16.9 19.2 16.6L18.4 15.8V23.4H18.5ZM8.2 13.7C8.3 13.7 8.5 13.7 8.6 13.8C9 14 9.2 14.3 9.2 14.8V23.5L16.8 23.6L16.9 14.7C16.9 14.3 17.1 14 17.5 13.8C17.6 13.7 17.8 13.7 17.9 13.7C18.2 13.7 18.4 13.8 18.6 14L20 15.3L20.9 14.3L20.5 13.8L20.4 13.7C18.8 11.9 18 11 16.3 10.7C15.7 12.1 14.5 12.9 13.1 12.9C11.7 12.9 10.6 12.1 10 10.8C8.1 11 7.2 12 5.4 14L5.3 14.1L6.1 15.1V15.2L7.5 14C7.7 13.8 7.9 13.7 8.2 13.7ZM2.9 2.5C2.1 2.5 1.5 3.1 1.5 3.9V4.7L24.6 4.8L24.7 3.9C24.7 3.1 24.1 2.5 23.3 2.5H2.9Z" fill="#3354F4"/>
</g>
<defs>
<clipPath id="clip0_17_5">
<rect width="26" height="26" fill="white"/>
</clipPath>
</defs>
</svg>
