<svg width="45" height="21" viewBox="0 0 45 21" fill="none" xmlns="http://www.w3.org/2000/svg">
<g clip-path="url(#clip0_505_65)">
<path d="M9.8 6.30001C9.3 5.90001 8.6 5.60001 7.9 5.60001C7.2 5.60001 6.5 5.90001 6 6.30001C5.4 6.80001 5.1 7.50001 5 8.20001C5 8.70001 5 9.20001 5 9.60001V12.1C5 12.8 5.3 13.6 5.8 14.1C6.3 14.7 7 15 7.7 15.1H7.9C8.6 15.1 9.2 14.9 9.8 14.4C10.3 13.9 10.7 13.3 10.8 12.6C11 11.1 11 9.60001 10.8 8.10001C10.7 7.40001 10.4 6.80001 9.8 6.30001ZM9.3 12.1C9.3 12.3 9.3 12.4 9.2 12.6C9.1 12.8 9 12.9 8.9 13C8.8 13.1 8.6 13.2 8.5 13.3C8.3 13.4 8.2 13.4 8 13.4H7.9C7.7 13.4 7.6 13.4 7.5 13.3C7.3 13.2 7.2 13.1 7.1 13C7 12.9 6.9 12.7 6.8 12.6C6.7 12.4 6.7 12.3 6.7 12.1V8.50001C6.7 8.30001 6.7 8.20001 6.8 8.00001C6.8 7.90001 6.9 7.80001 7 7.60001C7.1 7.50001 7.3 7.40001 7.4 7.30001C7.6 7.20001 7.7 7.20001 7.9 7.20001H8C8.3 7.20001 8.7 7.30001 8.9 7.60001C9.1 7.80001 9.3 8.20001 9.3 8.50001V12.1Z" fill="black"/>
<path d="M44.2 0.5C43.9 0.2 43.4 0 42.9 0H1.9C1.4 0 0.9 0.2 0.6 0.5C0.2 0.9 0 1.4 0 1.9V18.9C0 19.4 0.2 19.9 0.6 20.2C1 20.6 1.4 20.7 1.9 20.7H43C43.2 20.7 43.5 20.7 43.7 20.6C43.9 20.5 44.1 20.4 44.3 20.2C44.5 20 44.6 19.8 44.7 19.6C44.8 19.4 44.8 19.1 44.8 18.9V1.9C44.8 1.4 44.6 0.9 44.2 0.5ZM14.4 17.9C14.4 18.8 14.1 19.1 13.2 19.1H2.7C1.8 19.1 1.5 18.8 1.5 17.9V2.8C1.5 1.8 1.8 1.6 2.7 1.6H13.1C14 1.6 14.4 1.9 14.4 2.8V17.9ZM28.8 4.7V17.9C28.8 18.8 28.5 19.1 27.6 19.1H17.2C16.3 19.1 16 18.8 16 17.9V2.8C16 1.9 16.3 1.6 17.2 1.6H27.6C28.5 1.6 28.8 1.9 28.8 2.8C28.8 3.8 28.8 4.2 28.8 4.7ZM37.6 18.4L37.5 18.5C37.3 18.7 37 18.8 36.7 18.8L36.6 19V18.8C36.4 18.8 36.3 18.8 36.1 18.7C36 18.6 35.8 18.5 35.7 18.4C35.5 18 35.3 17.6 35.3 17.2C35.3 16.8 35.4 16.3 35.7 16C35.8 15.9 35.9 15.8 36.1 15.7C36.2 15.6 36.4 15.6 36.6 15.6C36.8 15.6 37 15.6 37.1 15.7C37.3 15.8 37.4 15.9 37.5 16.1C37.8 16.5 37.9 17.1 37.9 17.6V17.9C38 18 37.8 18.2 37.6 18.4ZM43.2 4.7V17.9C43.2 18.8 42.9 19.1 42 19.1H39.6C39.6 18.7 39.7 18.3 39.7 17.9V17.6C39.7 16.7 39.4 15.7 38.9 15C38.7 14.7 38.3 14.4 38 14.2C37.7 14 37.3 14 36.9 14H36.7C36.2 14 35.7 14.1 35.3 14.4C34.9 14.7 34.5 15.1 34.3 15.5C34.1 16 34 16.5 34 17C34 17.5 34.1 18 34.3 18.5C34.4 18.7 34.5 18.9 34.6 19H31.6C30.7 19 30.4 18.7 30.4 17.8V2.8C30.4 1.8 30.7 1.5 31.7 1.5H42.3C42.4 1.5 42.6 1.5 42.7 1.6C42.8 1.7 43 1.7 43.1 1.8C43.3 2 43.4 2.3 43.4 2.6L43.2 4.7Z" fill="black"/>
<path d="M38.6 7.6C38.8 7.4 39.1 7.2 39.2 7C39.5 6.6 39.6 6.2 39.6 5.7C39.6 5.3 39.6 5 39.4 4.6C39.3 4.3 39.1 4 38.8 3.7C38.2 3.2 37.5 3 36.8 3C36.1 3 35.4 3.2 34.8 3.7C34.5 3.9 34.3 4.2 34.2 4.6C34.1 4.9 34 5.3 34 5.6C34 6.1 34.1 6.5 34.4 6.9C34.6 7.1 34.8 7.4 35 7.5C34.7 7.7 34.4 7.9 34.2 8.2C33.9 8.7 33.7 9.4 33.8 10C33.9 10.6 34.2 11.2 34.6 11.6C35.2 12.1 35.9 12.3 36.6 12.3H36.8C37.5 12.3 38.3 12 38.9 11.6C39.2 11.4 39.4 11 39.6 10.7C39.7 10.4 39.8 10 39.8 9.6C39.8 9.1 39.6 8.6 39.4 8.2C39.2 8 38.9 7.8 38.6 7.6ZM35.7 5.1C35.8 4.9 35.8 4.8 36 4.7C36.1 4.6 36.2 4.5 36.4 4.4C36.5 4.3 36.7 4.3 36.8 4.3H36.9C37 4.3 37.2 4.3 37.3 4.4C37.5 4.5 37.6 4.5 37.7 4.7C37.9 5 38 5.3 38 5.6C38 5.9 37.9 6.3 37.7 6.5C37.6 6.6 37.4 6.7 37.3 6.8C37.2 6.9 37 6.9 36.9 6.9L36.8 7.1V6.9H36.7C36.6 6.9 36.4 6.9 36.3 6.8C36.1 6.7 36 6.7 35.9 6.5C35.8 6.4 35.7 6.2 35.6 6.1C35.5 5.9 35.5 5.8 35.5 5.6C35.6 5.5 35.6 5.3 35.7 5.1ZM38.2 10.2C38.1 10.4 38 10.5 37.9 10.6C37.6 10.8 37.2 11 36.8 11C36.4 11 36 10.9 35.8 10.7C35.7 10.6 35.6 10.4 35.5 10.2C35.4 10 35.4 9.9 35.4 9.6C35.4 9.3 35.5 9 35.6 8.8C35.8 8.6 36 8.4 36.2 8.3C36.4 8.2 36.6 8.2 36.7 8.2C36.8 8.2 36.9 8.2 37 8.2C37.3 8.3 37.5 8.4 37.7 8.6C38 8.8 38.1 9 38.1 9.1C38.2 9.3 38.2 9.5 38.2 9.7C38.3 9.9 38.2 10.1 38.2 10.2Z" fill="black"/>
<path d="M23.7 11.5C24.3 10.9 24.7 10.3 25 9.80001C25.3 9.30001 25.4 8.80001 25.4 8.30001C25.4 7.50001 25.1 6.80001 24.6 6.30001C24.1 5.80001 23.3 5.60001 22.4 5.60001C21.8 5.60001 21.2 5.70001 20.7 6.00001C20.2 6.30001 19.8 6.60001 19.5 7.10001C19.2 7.60001 19.1 8.10001 19.1 8.70001V8.90001H21.1V8.70001C21.1 8.30001 21.2 7.90001 21.4 7.70001C21.6 7.50001 21.9 7.30001 22.3 7.30001C22.6 7.30001 22.9 7.40001 23.1 7.60001C23.3 7.80001 23.4 8.10001 23.4 8.50001C23.4 8.80001 23.3 9.10001 23.2 9.30001C23 9.60001 22.7 10 22.3 10.4L19.3 13.7V15.1H25.7V13.4H21.9L23.7 11.5Z" fill="black"/>
</g>
<defs>
<clipPath id="clip0_505_65">
<rect width="44.8" height="20.7" fill="white"/>
</clipPath>
</defs>
</svg>
