<svg width="26" height="26" viewBox="0 0 26 26" fill="none" xmlns="http://www.w3.org/2000/svg">
<path d="M11.25 25C10.55 25 9.85 24.7 9.35 24.2L1.75 16.6C0.75 15.6 0.75 13.9 1.75 12.8L11.95 2.6C12.95 1.6 14.35 1 15.75 1H22.25C23.75 1 24.95 2.2 24.95 3.7V10.2C24.95 11.6 24.35 13 23.35 14L13.05 24.2C12.55 24.7 11.95 25 11.25 25ZM15.75 2.5C14.75 2.5 13.75 2.9 13.05 3.6L2.85 13.9C2.45 14.3 2.45 15.1 2.85 15.5L10.45 23.1C10.65 23.3 10.95 23.4 11.25 23.4C11.55 23.4 11.85 23.3 12.05 23.1L22.35 12.8C23.05 12.1 23.45 11.1 23.45 10.1V3.7C23.45 3.1 22.95 2.6 22.35 2.6H15.75V2.5ZM18.25 10.3C16.75 10.3 15.55 9.1 15.55 7.6C15.55 6.1 16.75 5 18.25 5C19.75 5 20.95 6.1 20.95 7.6C20.95 9.1 19.75 10.3 18.25 10.3ZM18.25 6.5C17.65 6.5 17.15 7 17.15 7.6C17.15 8.2 17.65 8.7 18.25 8.7C18.85 8.7 19.35 8.2 19.35 7.6C19.35 7 18.85 6.5 18.25 6.5Z" fill="#3354F4"/>
</svg>
