<svg width="26" height="26" viewBox="0 0 26 26" fill="none" xmlns="http://www.w3.org/2000/svg">
<g clip-path="url(#clip0_106_151)">
<path d="M21.7202 26C20.1152 26 18.8313 24.7161 18.8313 23.1111C18.8313 22.1482 19.2593 21.2922 20.0082 20.7572H9.30864C10.0576 21.2922 10.4856 22.1482 10.4856 23.1111C10.4856 24.7161 9.20165 26 7.59671 26C5.99177 26 4.70782 24.7161 4.70782 23.1111C4.70782 22.1482 5.1358 21.2922 5.99177 20.7572C4.70782 20.5432 3.74486 19.4733 3.74486 18.1893C3.74486 16.9054 4.60082 15.9424 5.88477 15.6214L2.78189 2.78189H0.748971C0.320988 2.78189 0 2.46091 0 2.03292C0 1.60494 0.320988 1.28395 0.748971 1.28395H3.31687C3.63786 1.28395 3.95885 1.49794 4.06584 1.92593L5.02881 5.34979H8.45268C8.88066 5.34979 9.20165 5.67078 9.20165 6.09877C9.20165 6.52675 8.88066 6.95473 8.45268 6.95473H5.34979L7.48971 15.6214H21.5062C21.8272 15.6214 22.1481 15.4074 22.2551 15.0864L24.1811 6.95473H22.1482C21.7202 6.95473 21.3992 6.63375 21.3992 6.20576C21.3992 5.77778 21.8272 5.34979 22.2551 5.34979H25.251C25.358 5.34979 25.358 5.34979 25.465 5.34979C25.893 5.45679 26.107 5.88477 26 6.31276L23.7531 15.4074C23.5391 16.4774 22.5761 17.2263 21.5062 17.2263H6.31276C5.77778 17.2263 5.34979 17.6543 5.34979 18.1893C5.34979 18.7243 5.77778 19.2593 6.31276 19.2593H23.6461C24.0741 19.2593 24.3951 19.5802 24.3951 20.0082C24.3951 20.4362 24.0741 20.7572 23.6461 20.7572H23.3251C24.0741 21.2922 24.5021 22.1482 24.5021 23.1111C24.5021 24.7161 23.2181 26 21.7202 26ZM21.7202 21.8272C20.9712 21.8272 20.4362 22.3621 20.4362 23.1111C20.4362 23.8601 20.9712 24.3951 21.7202 24.3951C22.4691 24.3951 23.0041 23.8601 23.0041 23.1111C23.0041 22.3621 22.3621 21.8272 21.7202 21.8272ZM7.59671 21.8272C6.84774 21.8272 6.31276 22.3621 6.31276 23.1111C6.31276 23.8601 6.84774 24.3951 7.59671 24.3951C8.34568 24.3951 8.88066 23.8601 8.88066 23.1111C8.88066 22.3621 8.34568 21.8272 7.59671 21.8272ZM13.4815 14.4444H13.3745C12.9465 14.3374 12.6255 13.9095 12.7325 13.4815L13.5885 9.20165H10.5926C10.4856 9.20165 10.2716 9.20165 10.1646 9.09465C9.73663 8.88066 9.62963 8.34568 9.95062 8.02469L15.1934 0.320988C15.3004 0.106996 15.5144 0 15.8354 0C15.9424 0 16.0494 0 16.0494 0C16.3704 0.106996 16.5844 0.427984 16.5844 0.855967L16.0494 5.2428H19.1523C19.2593 5.2428 19.4733 5.34979 19.5802 5.34979C19.9012 5.56379 20.0082 6.09877 19.7942 6.41975L14.2305 14.1235C14.0165 14.3374 13.6955 14.4444 13.4815 14.4444ZM14.5514 7.7037H14.6584C15.0864 7.8107 15.4074 8.23868 15.3004 8.66667L14.9794 10.3786L17.5473 6.84774H15.0864C14.7654 6.84774 14.5514 6.74074 14.4444 6.52675C14.3374 6.31276 14.2305 6.20576 14.3374 5.99177L14.5514 3.95885L11.9835 7.7037H14.5514Z" fill="#3354F4"/>
</g>
<defs>
<clipPath id="clip0_106_151">
<rect width="26" height="26" fill="white"/>
</clipPath>
</defs>
</svg>
