<svg width="26" height="26" viewBox="0 0 26 26" fill="none" xmlns="http://www.w3.org/2000/svg">
<path d="M7.8 19.8572C7.7 19.8572 7.6 19.8572 7.5 19.7563L1.5 17.1345C1.2 17.0336 1 16.7311 1 16.4286V9.57144C1 9.26892 1.2 8.9664 1.5 8.86556L7.5 6.24371C7.6 6.24371 7.7 6.14287 7.8 6.14287C7.9 6.14287 8 6.14287 8.1 6.24371L14.1 8.86556C14.4 8.9664 14.6 9.26892 14.6 9.57144V16.5294C14.6 16.8319 14.4 17.1345 14.1 17.2353L8.1 19.8572C8 19.7563 7.9 19.8572 7.8 19.8572ZM8.5 12.5967V17.8403L13 15.9244V10.6807L8.5 12.5967ZM2.5 15.9244L7 17.9412V12.6975L2.5 10.6807V15.9244ZM3.7 9.57144L7.7 11.2857L11.8 9.57144L7.8 7.75631L3.7 9.57144Z" fill="#3354F4"/>
<path d="M22.3 25C21.3 25 20.3 24.2941 20 23.3866V23.2857H18C17.6 23.2857 17.2 22.9832 17.2 22.479V13.7059H16.2C15.8 13.7059 15.4 13.4034 15.4 12.8992C15.4 12.395 15.7 12.0924 16.2 12.0924H17.2V3.52101C17.2 3.11765 17.5 2.71429 18 2.71429H20V2.61345C20.4 1.60504 21.3 1 22.3 1C23.7 1 24.8 2.10924 24.8 3.52101C24.8 4.93277 23.7 6.04202 22.3 6.04202C21.3 6.04202 20.3 5.33613 20 4.42857V4.32773H18.8V12.2941H20V12.1933C20.4 11.1849 21.3 10.5798 22.3 10.5798C23.7 10.5798 24.8 11.6891 24.8 13.1008C24.8 14.5126 23.7 15.6218 22.3 15.6218C21.3 15.6218 20.3 14.916 20 14.0084V13.9076H18.8V21.874H20V21.7731C20.4 20.7647 21.3 20.1597 22.3 20.1597C23.7 20.1597 24.8 21.2689 24.8 22.6807C24.8 24.0924 23.7 25 22.3 25ZM22.3 21.5714C21.8 21.5714 21.3 21.9748 21.3 22.5798C21.3 23.084 21.7 23.5882 22.3 23.5882C22.9 23.5882 23.3 23.1849 23.3 22.5798C23.3 21.9748 22.9 21.5714 22.3 21.5714ZM22.3 11.9916C21.8 11.9916 21.3 12.395 21.3 13C21.3 13.605 21.7 14.0084 22.3 14.0084C22.9 14.0084 23.3 13.605 23.3 13C23.3 12.395 22.9 11.9916 22.3 11.9916ZM22.3 2.51261C21.8 2.51261 21.3 2.91597 21.3 3.52101C21.3 4.12605 21.7 4.52941 22.3 4.52941C22.9 4.52941 23.3 4.12605 23.3 3.52101C23.3 2.91597 22.9 2.51261 22.3 2.51261Z" fill="#3354F4"/>
</svg>
