<svg width="26" height="26" viewBox="0 0 26 26" fill="none" xmlns="http://www.w3.org/2000/svg">
<path d="M7.6 24C6.1 24 4.9 22.8 4.9 21.3V20.1H3.7C2.2 20.1 1 18.9 1 17.4V2.7C1 1.2 2.2 0 3.7 0H18.4C19.9 0 21.1 1.2 21.1 2.7V3.9H22.3C23.8 3.9 25 5.1 25 6.6V21.3C25 22.8 23.8 24 22.3 24H7.6ZM7.6 5.4C6.9 5.4 6.4 6 6.4 6.6V21.3C6.4 22 7 22.5 7.6 22.5H22.3C23 22.5 23.5 21.9 23.5 21.3V6.6C23.5 5.9 22.9 5.4 22.3 5.4H7.6ZM3.7 1.5C3 1.5 2.5 2 2.5 2.7V17.4C2.5 18.1 3.1 18.6 3.7 18.6H4.9V6.6C4.9 5.1 6.1 3.9 7.6 3.9H19.6V2.7C19.6 2 19 1.5 18.4 1.5H3.7Z" fill="#3354F4"/>
<path fill-rule="evenodd" clip-rule="evenodd" d="M14.9 19.6C13.2 19.6 11.5 19 9.99998 17.9C9.69998 17.7 9.69998 17.4 9.79998 17.1L11.7 12.4C11 12.3 10.5 11.7 10.5 11V9.8C10.5 9 11.2 8.3 12 8.3H13.4C13.9 8.3 14.3 8.6 14.4 9C14.5 9.2 14.7 9.4 15 9.4C15.3 9.4 15.5 9.2 15.6 9C15.7 8.6 16.1 8.3 16.6 8.3C16.9 8.3 17.6 8.3 18 8.3C18.8 8.3 19.5 9 19.5 9.8V10.9C19.5 11.6 19 12.2 18.3 12.3L20.2 17C20.3 17.3 20.2 17.6 20 17.8C18.3 19 16.6 19.6 14.9 19.6ZM11.3 17C12.4 17.8 13.6 18.1 14.9 18.1C16.2 18.1 17.4 17.7 18.6 17L16.6 11.9C16.5 11.7 16.5 11.4 16.7 11.2C16.8 11 17.1 10.9 17.3 10.9H18V9.7C17.7 9.7 17.3 9.7 17 9.7C16.9 9.7 16.8 9.7 16.8 9.7C16.5 10.4 15.8 10.8 15 10.8C14.2 10.8 13.5 10.4 13.2 9.7H12V10.8H12.8C13 10.8 13.3 10.9 13.4 11.1C13.5 11.3 13.6 11.5 13.5 11.8L11.3 17Z" fill="#3354F4"/>
</svg>
