<svg width="19" height="24" viewBox="0 0 19 24" fill="none" xmlns="http://www.w3.org/2000/svg">
<g clip-path="url(#clip0_505_49)">
<path fill-rule="evenodd" clip-rule="evenodd" d="M14.9 16.1C14.9 19.1 12.5 21.5 9.50001 21.5C8.00001 21.5 6.60001 20.9 5.70001 19.9C4.70001 18.9 4.10001 17.6 4.10001 16.1C4.10001 13.1 6.50001 10.7 9.50001 10.7C12.5 10.7 14.9 13.1 14.9 16.1Z" fill="black"/>
<path fill-rule="evenodd" clip-rule="evenodd" d="M14.9 16.1C14.9 19.1 12.5 21.5 9.50001 21.5C8.00001 21.5 6.60001 20.9 5.70001 19.9C4.70001 18.9 4.10001 17.6 4.10001 16.1C4.10001 13.1 6.50001 10.7 9.50001 10.7C12.5 10.7 14.9 13.1 14.9 16.1Z" fill="black"/>
<path fill-rule="evenodd" clip-rule="evenodd" d="M16.2 11C15.9 10.6 15.9 9.9 16.1 9.2C16.4 8.3 16.9 7.5 17.7 6.9C18 6.6 18.1 6.2 17.8 5.9C17.6 5.7 17.4 5.6 17.1 5.6C16.1 5.8 14.9 6.4 13.9 7.2C13.5 3.4 10.6 0.4 6.89999 0C6.49999 0 6.09999 0.3 6.09999 0.7C6.09999 0.9 6.19999 1.2 6.39999 1.4C8.79999 3.2 8.09999 4.5 7.69999 5C5.59999 7 4.19999 9.1 3.29999 11.4C3.19999 10.9 3.09999 10.1 2.99999 9.6C2.99999 9.2 2.59999 8.9 2.19999 8.9C1.99999 8.9 1.79999 9.1 1.59999 9.3C0.399992 11.5 -0.100008 13.6 -8.4471e-06 15.5C0.0999916 17.3 0.599992 18.9 1.69999 20.2C2.89999 21.7 4.49999 22.8 6.49999 23.4C7.59999 23.8 8.69999 24 9.79999 24C10.6 24 11.4 23.9 12.2 23.7C15.3 22.9 17.4 20.7 18 17.6C18.5 15 17.3 12.7 16.2 11ZM16.6 17.4C16 20.8 13.4 21.9 11.9 22.3C11.2 22.5 10.5 22.5 9.79999 22.5C7.09999 22.5 4.39999 21.3 2.89999 19.4C1.79999 18 0.799992 15.6 2.09999 12.1C2.39999 12.8 2.89999 13.3 3.59999 13.5C3.99999 13.6 4.39999 13.4 4.49999 13C4.49999 13 4.49999 13 4.49999 12.9C5.09999 10.5 6.59999 8.1 8.79999 6L8.89999 5.9C9.59999 4.9 9.69999 3.9 9.39999 2.9C9.39999 2.7 9.29999 2.5 9.19999 2.2C11.5 3.5 12.8 6.2 12.2 8.8C12.1 9.2 12.4 9.6 12.8 9.7C13.1 9.8 13.4 9.6 13.6 9.4C13.8 9 14.3 8.6 14.8 8.2C14.3 9.5 14.3 10.8 14.9 11.8C15.9 13.3 16.9 15.3 16.6 17.4Z" fill="black"/>
<path fill-rule="evenodd" clip-rule="evenodd" d="M14.9 16.1C14.9 19.1 12.5 21.5 9.50001 21.5C8.00001 21.5 6.60001 20.9 5.70001 19.9C4.70001 18.9 4.10001 17.6 4.10001 16.1C4.10001 13.1 6.50001 10.7 9.50001 10.7C12.5 10.7 14.9 13.1 14.9 16.1Z" fill="black"/>
<path d="M10.8 12.6V13.7H10.7C10.1 13.7 9.60001 13.9 9.20001 14.2C8.80001 14.5 8.60001 15 8.60001 15.5C8.90001 15.1 9.40001 15 9.90001 15C10.5 15 11 15.2 11.3 15.6C11.6 16 11.8 16.6 11.8 17.3C11.8 17.7 11.7 18.1 11.5 18.5C11.3 18.9 11 19.1 10.7 19.3C10.4 19.5 10 19.6 9.50001 19.6C8.80001 19.6 8.20001 19.4 7.80001 18.9C7.40001 18.4 7.10001 17.7 7.10001 16.9V16.4C7.10001 15.7 7.20001 15 7.50001 14.4C7.80001 13.8 8.20001 13.4 8.70001 13.1C9.20001 12.8 9.80001 12.6 10.5 12.6H10.8ZM9.50001 16C9.30001 16 9.10001 16.1 8.90001 16.2C8.70001 16.3 8.60001 16.5 8.50001 16.6V17C8.50001 17.4 8.60001 17.8 8.80001 18.1C9.00001 18.4 9.20001 18.5 9.50001 18.5C9.80001 18.5 10 18.4 10.2 18.2C10.4 18 10.5 17.7 10.5 17.3C10.5 16.9 10.4 16.6 10.2 16.4C10.1 16.2 9.80001 16 9.50001 16Z" fill="white"/>
</g>
<defs>
<clipPath id="clip0_505_49">
<rect width="18.1" height="24" fill="white"/>
</clipPath>
</defs>
</svg>
