<svg width="26" height="26" viewBox="0 0 26 26" fill="none" xmlns="http://www.w3.org/2000/svg">
<g clip-path="url(#clip0_33_388)">
<path d="M2.80498 26C1.18672 26 0 24.7054 0 23.195V2.80498C0 1.29461 1.29461 0 2.80498 0H23.0871C24.7054 0 25.8921 1.29461 25.8921 2.80498V23.0871C25.8921 24.7054 24.5975 25.8921 23.0871 25.8921H2.80498V26ZM1.61826 23.195C1.61826 23.8423 2.15768 24.3817 2.80498 24.3817H23.0871C23.7344 24.3817 24.2739 23.8423 24.2739 23.195V5.60996H1.51037V23.195H1.61826ZM2.80498 1.61826C2.15768 1.61826 1.61826 2.15768 1.61826 2.80498V4.09958H24.3817V2.91286C24.3817 2.26556 23.8423 1.72614 23.195 1.72614H2.80498V1.61826Z" fill="#3354F4"/>
<path d="M19.6394 8.95438C19.5315 9.38592 19.5315 11.0042 19.5315 11.4357V12.8382L19.4236 12.9461H17.8008H17.693C17.693 12.1909 17.5851 11.7594 17.5851 11.6515C17.4772 11.4357 17.3693 11.3278 17.0456 11.2199C16.9378 11.2199 16.3983 11.2199 15.4274 11.2199H14.2407C14.2407 11.4357 14.2407 12.1909 14.2407 13.5934V18.4482C14.2407 19.8506 14.2407 19.527 14.3486 19.9585C14.3486 20.1743 14.4564 20.2822 14.6722 20.2822C14.7801 20.2822 15.1037 20.2822 15.6432 20.3901L15.751 20.4979V21.0374L15.6432 21.1453C15.1037 21.1453 14.2407 21.1453 12.9461 21.1453C11.7593 21.1453 10.7884 21.1453 10.249 21.1453L10.1411 21.0374V20.4979L10.249 20.3901C10.7884 20.3901 11.2199 20.2822 11.2199 20.2822C11.4357 20.2822 11.4357 20.1743 11.5436 19.9585C11.6515 19.527 11.6515 19.8506 11.6515 18.4482V13.5934C11.6515 12.1909 11.6515 11.3278 11.6515 11.2199H10.4647C9.3859 11.2199 8.84648 11.2199 8.63071 11.3278C8.52283 11.3278 8.52283 11.4357 8.41494 11.4357C8.41494 11.5436 8.30706 11.7594 8.30706 11.9751C8.30706 12.2988 8.19918 12.6224 8.19918 12.9461H6.57642L6.46854 12.8382V11.3278C6.46854 10.8963 6.46854 9.27803 6.36066 8.8465H6.46854C6.79219 8.95438 9.17013 8.95438 11.2199 8.95438H14.6722C16.722 8.95438 18.9921 8.95438 19.6394 8.95438Z" fill="#3354F4"/>
</g>
<defs>
<clipPath id="clip0_33_388">
<rect width="26" height="26" fill="white"/>
</clipPath>
</defs>
</svg>
