<svg width="26" height="26" viewBox="0 0 26 26" fill="none" xmlns="http://www.w3.org/2000/svg">
<path d="M9.40002 3.80001C9.40002 3.20001 9.90002 2.70001 10.5 2.70001H24C24.6 2.70001 25.1 3.20001 25.1 3.80001C25.1 4.40001 24.6 4.90001 24 4.90001H10.4C9.90002 4.90001 9.40002 4.40001 9.40002 3.80001Z" fill="#3354F4"/>
<path d="M24 11.9H10.4C9.79999 11.9 9.29999 12.4 9.29999 13C9.29999 13.6 9.79999 14.1 10.4 14.1H24C24.6 14.1 25.1 13.6 25.1 13C25.1 12.4 24.6 11.9 24 11.9Z" fill="#3354F4"/>
<path d="M24 21.1H10.4C9.79999 21.1 9.29999 21.6 9.29999 22.2C9.29999 22.8 9.79999 23.3 10.4 23.3H24C24.6 23.3 25.1 22.8 25.1 22.2C25.1 21.6 24.6 21.1 24 21.1Z" fill="#3354F4"/>
<path d="M3.8 6.6C3 6.6 2.3 6.3 1.8 5.8C1 5 0.8 3.8 1.2 2.7C1.6 1.6 2.7 1 3.8 1C5.3 1 6.6 2.3 6.6 3.8C6.6 4.9 5.9 6 4.9 6.4C4.5 6.5 4.2 6.6 3.8 6.6ZM3.8 2.5C3.5 2.5 3.1 2.6 2.9 2.9C2.5 3.3 2.4 3.8 2.6 4.3C2.8 4.8 3.3 5.1 3.8 5.1C4.5 5.1 5.1 4.5 5.1 3.8C5.1 3.3 4.8 2.8 4.3 2.6C4.1 2.6 4 2.5 3.8 2.5Z" fill="#3354F4"/>
<path d="M3.8 15.8C3 15.8 2.3 15.5 1.8 15C1 14.2 0.8 13 1.2 11.9C1.6 10.8 2.7 10.2 3.8 10.2C5.3 10.2 6.6 11.5 6.6 13C6.6 14.1 5.9 15.2 4.9 15.6C4.5 15.7 4.2 15.8 3.8 15.8ZM3.8 11.7C3.5 11.7 3.1 11.8 2.9 12.1C2.5 12.5 2.4 13 2.6 13.5C2.8 14 3.3 14.3 3.8 14.3C4.5 14.3 5.1 13.7 5.1 13C5.1 12.5 4.8 12 4.3 11.8C4.1 11.8 4 11.7 3.8 11.7Z" fill="#3354F4"/>
<path d="M3.8 25C3 25 2.3 24.7 1.8 24.2C1 23.4 0.8 22.2 1.2 21.1C1.6 20 2.7 19.4 3.8 19.4C5.3 19.4 6.6 20.7 6.6 22.2C6.6 23.3 5.9 24.4 4.9 24.8C4.5 24.9 4.2 25 3.8 25ZM3.8 20.9C3.5 20.9 3.1 21 2.9 21.3C2.5 21.7 2.4 22.2 2.6 22.7C2.8 23.2 3.3 23.5 3.8 23.5C4.5 23.5 5.1 22.9 5.1 22.2C5.1 21.7 4.8 21.2 4.3 21C4.1 21 4 20.9 3.8 20.9Z" fill="#3354F4"/>
</svg>
