<svg width="26" height="26" viewBox="0 0 26 26" fill="none" xmlns="http://www.w3.org/2000/svg">
<path d="M7.92549 20.4C7.42549 20.4 6.82549 20.1 6.52549 19.7C6.12549 19.3 6.02549 18.7 6.12549 18.2L6.82549 14L3.72549 11C3.22549 10.5 3.02549 9.8 3.32549 9.1C3.52549 8.4 4.12549 7.9 4.82549 7.8L9.02549 7.2L11.0255 3.3C11.3255 2.6 12.0255 2.3 12.7255 2.3C13.4255 2.3 14.1255 2.7 14.4255 3.3L16.3255 7.1L20.6255 7.8C21.3255 7.9 21.9255 8.4 22.1255 9.1C22.3255 9.8 22.1255 10.5 21.6255 11L18.6255 14L19.3255 18.3C19.4255 18.9 19.3255 19.4 18.9255 19.8C18.5255 20.2 18.0255 20.5 17.5255 20.5C17.2255 20.5 16.9255 20.4 16.6255 20.3L12.8255 18.3L9.02549 20.3C8.52549 20.4 8.22549 20.4 7.92549 20.4ZM12.6255 3.8C12.5255 3.8 12.3255 3.9 12.3255 4L10.2255 8.2C10.1255 8.4 9.92549 8.6 9.62549 8.6L5.02549 9.3C4.92549 9.3 4.72549 9.4 4.72549 9.6C4.72549 9.7 4.72549 9.9 4.82549 10L8.22549 13.3C8.42549 13.5 8.52549 13.7 8.42549 14L7.62549 18.6C7.62549 18.7 7.62549 18.8 7.72549 18.9C7.82549 19 7.92549 19 8.02549 19C8.12549 19 8.12549 19 8.22549 19L12.3255 16.8C12.4255 16.7 12.5255 16.7 12.6255 16.7C12.7255 16.7 12.8255 16.7 12.9255 16.8L17.0255 19C17.1255 19 17.1255 19 17.2255 19C17.3255 19 17.4255 18.9 17.5255 18.9C17.6255 18.8 17.6255 18.7 17.6255 18.6L16.8255 14C16.8255 13.8 16.8255 13.5 17.0255 13.3L20.4255 10C20.5255 9.9 20.5255 9.7 20.5255 9.6C20.5255 9.5 20.3255 9.4 20.2255 9.3L15.6255 8.6C15.4255 8.6 15.1255 8.4 15.0255 8.2L12.9255 4C12.9255 3.9 12.7255 3.8 12.6255 3.8Z" fill="#3354F4"/>
<path d="M5.92549 3.9C5.72549 3.9 5.42549 3.8 5.32549 3.6L4.32549 2.2C4.22549 2 4.12549 1.8 4.12549 1.6C4.12549 1.4 4.22549 1.2 4.42549 1.1C4.62549 1 4.72549 1 4.92549 1C5.12549 1 5.42549 1.1 5.52549 1.3L6.52549 2.7C6.72549 3 6.72549 3.5 6.32549 3.7C6.22549 3.8 6.12549 3.9 5.92549 3.9Z" fill="#3354F4"/>
<path d="M0.725483 16.7C0.425483 16.7 0.125483 16.5 0.0254834 16.2C-0.0745166 15.8 0.125483 15.4 0.525483 15.3L2.22548 14.8C2.32548 14.8 2.42548 14.8 2.42548 14.8C2.72548 14.8 3.02548 15 3.12548 15.3C3.22548 15.5 3.12548 15.7 3.12548 15.9C3.02548 15.9 2.82548 16 2.62548 16.1L1.02548 16.6C0.925483 16.7 0.825483 16.7 0.725483 16.7Z" fill="#3354F4"/>
<path d="M19.3255 3.9C19.1255 3.9 19.0255 3.9 18.9255 3.8C18.7255 3.7 18.6255 3.5 18.6255 3.3C18.6255 3.1 18.6255 2.9 18.7255 2.7L19.7255 1.3C19.8255 1.1 20.1255 1 20.3255 1C20.5255 1 20.6255 1 20.7255 1.1C21.0255 1.3 21.1255 1.8 20.9255 2.1L19.9255 3.5C19.8255 3.8 19.5255 3.9 19.3255 3.9Z" fill="#3354F4"/>
<path d="M24.4255 16.7C24.3255 16.7 24.2255 16.7 24.2255 16.7L22.5255 16.2C22.1255 16.1 21.9255 15.7 22.0255 15.3C22.1255 15 22.4255 14.8 22.7255 14.8C22.8255 14.8 22.9255 14.8 22.9255 14.8L24.6255 15.3C25.0255 15.4 25.2255 15.8 25.1255 16.2C25.1255 16.5 24.8255 16.7 24.4255 16.7Z" fill="#3354F4"/>
<path d="M12.6255 25C12.2255 25 11.9255 24.7 11.9255 24.3V22.6C11.9255 22.2 12.2255 21.9 12.6255 21.9C13.0255 21.9 13.3255 22.2 13.3255 22.6V24.3C13.3255 24.7 13.0255 25 12.6255 25Z" fill="#3354F4"/>
</svg>
