<svg width="26" height="26" viewBox="0 0 26 26" fill="none" xmlns="http://www.w3.org/2000/svg">
<g clip-path="url(#clip0_505_26)">
<path d="M7.69999 7.99998C7.69999 7.79998 7.59999 7.59998 7.49999 7.49998C7.29999 7.39998 7.09999 7.29998 6.69999 7.19998C6.29999 7.09998 5.99999 6.89998 5.79999 6.79998C5.19999 6.49998 4.89999 6.09998 4.89999 5.49998C4.89999 5.29998 4.99999 4.99998 5.19999 4.79998C5.39999 4.59998 5.59999 4.39998 5.89999 4.29998C6.19999 4.19998 6.49999 4.09998 6.89999 4.09998C7.29999 4.09998 7.59999 4.19998 7.89999 4.29998C8.19999 4.39998 8.39999 4.59998 8.59999 4.89998C8.79999 5.09998 8.79999 5.39998 8.79999 5.69998H7.69999C7.69999 5.49998 7.59999 5.29998 7.49999 5.09998C7.29999 4.99998 7.09999 4.89998 6.79999 4.89998C6.59999 4.89998 6.39999 4.99998 6.19999 5.09998C6.09999 5.19998 5.99999 5.39998 5.99999 5.49998C5.99999 5.69998 6.09999 5.89998 6.19999 5.99998C6.39999 6.09998 6.69999 6.19998 6.99999 6.29998C7.59999 6.49998 7.99999 6.69998 8.29999 6.99998C8.59999 7.29998 8.69999 7.59998 8.69999 7.99998C8.69999 8.39998 8.49999 8.79998 8.19999 9.09998C7.89999 9.29998 7.39999 9.39998 6.89999 9.39998C6.49999 9.39998 6.09999 9.29998 5.79999 9.19998C5.39999 8.99998 5.19999 8.79998 4.99999 8.59998C4.79999 8.39998 4.79999 7.99998 4.79999 7.69998H5.89999C5.89999 8.29998 6.19999 8.59998 6.89999 8.59998C7.19999 8.59998 7.39999 8.49998 7.49999 8.39998C7.59999 8.29998 7.69999 8.19998 7.69999 7.99998Z" fill="black"/>
<path d="M6.10004 20.5H8.40004V21.4H5.10004V16.1H6.20004V20.5H6.10004Z" fill="black"/>
<path d="M16.8 17.9L17.8 16.1H19L17.5 18.7L19.1 21.4H17.8L16.8 19.6L15.8 21.4H14.5L16.1 18.7L14.6 16.1H15.9L16.8 17.9Z" fill="black"/>
<path d="M20.7 20.5H23V21.4H19.6V16.1H20.7V20.5Z" fill="black"/>
<path d="M17.4 4.09998L18.8 7.99998L20.2 4.09998H21.6V9.39998H20.5V7.99998L20.6 5.49998L19.2 9.49998H18.4L17 5.49998V7.99998V9.49998H16V4.09998H17.4Z" fill="black"/>
<path d="M2.70001 0.799988H12.7V12.8H0.700012V2.79999C0.800012 1.59999 1.60001 0.799988 2.70001 0.799988Z" stroke="black" stroke-width="1.5" stroke-miterlimit="10"/>
<path d="M12.8 0.799988H22.8C23.9 0.799988 24.8 1.69999 24.8 2.79999V12.8H12.8V0.799988Z" stroke="black" stroke-width="1.5" stroke-miterlimit="10"/>
<path d="M0.799988 12.8H12.8V24.8H2.79999C1.69999 24.8 0.799988 23.9 0.799988 22.8V12.8Z" stroke="black" stroke-width="1.5" stroke-miterlimit="10"/>
<path d="M12.8 12.8H24.8V22.8C24.8 23.9 23.9 24.8 22.8 24.8H12.8V12.8Z" stroke="black" stroke-width="1.5" stroke-miterlimit="10"/>
</g>
<defs>
<clipPath id="clip0_505_26">
<rect width="25.5" height="25.5" fill="white"/>
</clipPath>
</defs>
</svg>
