<svg width="29" height="26" viewBox="0 0 29 26" fill="none" xmlns="http://www.w3.org/2000/svg">
<path d="M7.7 25C7.6 25 7.4 25 7.3 25C5.3 24.8 4.7 23.4 4.3 21.2L2.7 9.7H1.7C1.2 9.7 1 9.3 1 8.9C1 8.5 1.2 8.2 1.7 8.2H9.1L12.8 1.4C12.9 1.1 13.1 1 13.3 1C13.6 1 13.8 1.2 14 1.4C14.1 1.6 14.1 1.9 14 2.1L10.8 8.2H18.2L15 2.1C14.9 1.8 14.9 1.6 15 1.4C15.1 1.2 15.4 1 15.7 1C15.9 1 16.2 1.1 16.3 1.4L19.9 8.1L27.3 8.2C27.8 8.2 28 8.6 28 8.9C28 9.3 27.7 9.6 27.3 9.6H26.4L24.7 21.4C24.4 23.6 23.5 24.7 21.8 24.9H21.6H21.4H7.7V25ZM14.5 18.6C15.5 18.6 16.5 19 17.3 19.8C18 20.6 18.4 21.6 18.4 22.6C18.4 22.9 18.4 23.2 18.3 23.4V23.5H20.8V23.4C20.8 22.7 20.8 22 20.8 21.4V21.3H20.7C20.4 21.2 20.2 21.2 20 21.1C19.5 21 19.4 20.7 19.3 20.6C19.2 20.3 19.2 20 19.4 19.7C19.5 19.5 19.7 19.2 19.8 19V18.9L19.7 18.8C19.1 18.2 18.6 17.7 18.1 17.2L18 17.1H17.9C17.6 17.2 17.4 17.4 17.3 17.5C17.1 17.6 16.9 17.7 16.7 17.7C16.6 17.7 16.5 17.7 16.4 17.6C16.2 17.5 15.9 17.3 15.9 16.8C15.9 16.7 15.8 16.5 15.8 16.4C15.8 16.3 15.7 16 15.7 16H13.2V16.1C13.2 16.2 13.2 16.3 13.1 16.3C13 16.5 13 16.6 13 16.7C12.9 17.2 12.7 17.4 12.5 17.5C12.4 17.6 12.3 17.6 12.2 17.6C12 17.6 11.8 17.5 11.6 17.4L11.1 17.1L11 17.2L10.8 17V17.2L9.7 18.2L9.1 18.8V18.9C9.3 19.2 9.4 19.4 9.5 19.6C9.8 20 9.7 20.4 9.6 20.5C9.7 20.7 9.5 21 9 21.1C8.7 21.2 8.5 21.2 8.3 21.3H8.2L8.1 21.4C8.1 22.1 8.1 22.8 8.1 23.4V23.5H10.7V23.4C10.6 23.1 10.6 22.8 10.6 22.5C10.6 21.5 11 20.5 11.8 19.7C12.5 19 13.5 18.6 14.5 18.6ZM14.4 20.1C13.8 20.1 13.2 20.3 12.8 20.8C12.3 21.3 12.1 21.9 12.1 22.5C12.1 22.8 12.2 23.1 12.3 23.4V23.5H16.7V23.4C16.8 23.1 16.9 22.8 16.9 22.5C16.9 21.8 16.6 21.2 16.2 20.8C15.8 20.4 15.2 20.1 14.4 20.1ZM5.8 21.1C5.9 21.9 6 22.7 6.5 23.1L6.7 23.3V23.1C6.7 22.5 6.7 22 6.7 21.4C6.7 20.6 7.1 20.1 7.9 19.9H8L7.9 19.8C7.7 19.5 7.7 19.2 7.7 19C7.7 18.6 7.9 18.3 8.2 17.9C8.7 17.3 9.3 16.8 9.8 16.3C10.2 16 10.5 15.8 10.9 15.8C11.2 15.8 11.4 15.9 11.7 16L11.8 16.1V16C12 15.4 12.4 15.1 12.7 14.9L12.9 14.8H16.2L16.3 14.9C16.6 15 17 15.3 17.2 16V16.1L17.3 16C17.6 15.8 17.9 15.8 18.1 15.8C18.5 15.8 18.8 16 19.1 16.3C19.7 16.9 20.2 17.4 20.8 18C21.3 18.5 21.4 19.1 21 19.8L20.9 19.9L21 20C21.8 20.2 22.2 20.7 22.2 21.5C22.2 22.1 22.2 22.6 22.2 23.2V23.4L22.4 23.2C22.8 22.8 23 22.2 23 21.6L24.7 9.8H20.5L21 10.8L21.6 10.9C22.1 10.9 22.3 11.3 22.3 11.6C22.3 12 22 12.3 21.6 12.3H19.3C18.8 12.3 18.6 12 18.6 11.6C18.6 11.3 18.8 10.9 19.3 10.8H19.5L19 9.8H10.1L9.5 10.7H9.7C10.2 10.8 10.4 11.1 10.3 11.5C10.3 11.8 10 12.2 9.6 12.2H7.3C6.8 12.2 6.6 11.8 6.6 11.5C6.6 11.2 6.8 10.8 7.3 10.8H7.8L8.4 9.7H4.1L5.8 21.1Z" fill="#3354F4"/>
</svg>
