<svg width="34" height="26" viewBox="0 0 34 26" fill="none" xmlns="http://www.w3.org/2000/svg">
<path d="M17.1595 0C16.0308 0 15.0149 0.902949 14.9021 1.91877C14.6763 3.04745 15.3536 4.06327 16.3694 4.51475V7.11073C16.5951 6.99786 16.9337 6.99786 17.1595 6.99786C17.4981 6.99786 17.7238 6.99786 17.9495 7.11073V4.51475C18.9654 4.17614 19.5297 3.04745 19.4168 2.03164C19.304 0.902949 18.2881 0 17.1595 0ZM17.8367 2.59598C17.7238 2.82172 17.4981 3.04745 17.2723 3.04745C16.9337 3.04745 16.5951 2.70885 16.5951 2.37024C16.5951 2.1445 16.8208 1.8059 17.0466 1.69303C17.1595 1.69303 17.1595 1.69303 17.2723 1.69303C17.4981 1.69303 17.6109 1.8059 17.7238 1.91877C17.8367 2.03164 17.9495 2.37024 17.8367 2.59598Z" fill="#3354F4"/>
<path d="M32.6554 5.27877C32.2039 4.8273 31.6395 4.60156 30.9623 4.60156C30.398 4.60156 29.8336 4.8273 29.3822 5.27877C28.705 5.95599 28.4792 6.9718 28.9307 7.87475L25.7443 11.0611L27.3245 11.7383L30.0594 9.00344C30.398 9.11631 30.6237 9.22918 30.9623 9.22918C31.7524 9.22918 32.4296 8.89057 32.7682 8.32623C33.5583 7.31041 33.4454 6.06886 32.6554 5.27877ZM31.5267 7.42328C31.4138 7.53615 31.1881 7.64902 31.0752 7.64902C30.8495 7.64902 30.7366 7.53615 30.6237 7.42328C30.5109 7.31041 30.398 7.08467 30.398 6.9718C30.398 6.74607 30.5109 6.6332 30.6237 6.52033C30.7366 6.40746 30.9623 6.29459 31.0752 6.29459C31.3009 6.29459 31.4138 6.40746 31.5267 6.52033C31.6395 6.6332 31.7524 6.85894 31.7524 6.9718C31.7524 7.08467 31.6395 7.19754 31.5267 7.42328Z" fill="#3354F4"/>
<path d="M1.44467 8.21336C1.89614 8.7777 2.57336 9.11631 3.25057 9.11631C3.58918 9.11631 3.92778 9.00344 4.15352 8.89057L6.88841 11.6255L8.46857 10.9483L5.39507 7.87475C5.84655 6.9718 5.62081 5.95599 4.9436 5.27877C4.49212 4.8273 3.92778 4.60156 3.25057 4.60156C2.68623 4.60156 2.12188 4.8273 1.67041 5.27877C0.880327 6.06886 0.767458 7.31041 1.44467 8.21336ZM2.57336 6.85894C2.57336 6.6332 2.68623 6.52033 2.79909 6.40746C2.91196 6.29459 3.1377 6.18172 3.25057 6.18172C3.47631 6.18172 3.58918 6.29459 3.70204 6.40746C3.92778 6.52033 3.92778 6.74607 3.92778 6.85894C3.92778 7.08467 3.81491 7.19754 3.70204 7.31041C3.70204 7.53615 3.47631 7.53615 3.25057 7.53615C3.02483 7.53615 2.91196 7.42328 2.79909 7.31041C2.68623 7.19754 2.57336 7.08467 2.57336 6.85894Z" fill="#3354F4"/>
<path d="M17.1595 26C17.0466 26 16.9337 26 16.8209 25.8871L8.46858 22.2753C8.12997 22.1624 7.90424 21.8238 7.90424 21.4852V12.9799C7.90424 12.6413 8.12997 12.3027 8.46858 12.1898L16.8209 8.57802C16.9337 8.57802 17.0466 8.46515 17.1595 8.46515C17.2723 8.46515 17.3852 8.46515 17.4981 8.57802L25.8504 12.1898C26.189 12.3027 26.4147 12.6413 26.4147 12.9799V21.4852C26.4147 21.8238 26.189 22.1624 25.8504 22.2753L17.4981 25.8871C17.3852 26 17.2723 26 17.1595 26ZM17.9495 17.2689V23.9683L24.7217 21.0338V14.3343L17.9495 17.2689ZM9.59727 21.0338L16.3694 23.8555L16.2565 17.156L9.59727 14.3343V21.0338ZM10.8388 13.0928L17.1595 15.6887L23.593 12.9799L17.2723 10.3839L10.8388 13.0928Z" fill="#3354F4"/>
</svg>
