<svg width="26" height="26" viewBox="0 0 26 26" fill="none" xmlns="http://www.w3.org/2000/svg">
<path d="M11.2427 25C11.1423 25 11.0418 25 10.9414 24.8996L1.50209 20.5816C1.20084 20.4812 1 20.2803 1 19.9791V8.73222C1 8.43096 1.20084 8.12971 1.40167 8.02929L10.841 3.7113C10.9414 3.7113 11.0418 3.61088 11.1423 3.61088C11.2427 3.61088 11.3431 3.61088 11.4435 3.7113L13.4519 4.61506V4.51464C14.4561 2.40586 16.5649 1 18.8745 1C22.1883 1 24.7992 3.61088 24.7992 6.92469C24.7992 9.23431 23.4937 11.2427 21.3849 12.2469H21.2845V19.7782C21.2845 20.0795 21.0837 20.3808 20.8828 20.4812L11.4435 24.7992C11.4435 25 11.3431 25 11.2427 25ZM11.9456 13.5523V23.0921L19.8787 19.477V12.8494H19.7782C19.477 12.8494 19.1757 12.9498 18.9749 12.9498C17.7699 12.9498 16.6653 12.5481 15.6611 11.9456L11.9456 13.5523ZM2.50628 19.477L10.4393 23.0921V13.5523L2.50628 9.93724V19.477ZM3.61088 8.73222L11.2427 12.1464L14.4561 10.7406L14.3556 10.6402C13.4519 9.63598 13.0502 8.33054 13.0502 7.0251C13.0502 6.72385 13.0502 6.52301 13.1506 6.22176V6.12134L11.2427 5.21757L3.61088 8.73222ZM18.9749 2.60669C16.5649 2.60669 14.5565 4.61506 14.5565 7.0251C14.5565 9.43515 16.5649 11.4435 18.9749 11.4435C21.3849 11.4435 23.3933 9.43515 23.3933 7.0251C23.3933 4.61506 21.3849 2.60669 18.9749 2.60669Z" fill="#3354F4"/>
<path d="M18.3724 9.03348C18.1715 9.03348 18.0711 8.93306 17.9707 8.83264L16.2636 7.12553C16.0627 6.92469 16.0627 6.52301 16.2636 6.22176C16.364 6.22176 16.4644 6.12134 16.6652 6.12134C16.8661 6.12134 16.9665 6.22176 17.0669 6.32218L18.3724 7.62762L20.8828 5.21758C20.9832 5.11716 21.1841 5.01674 21.2845 5.01674C21.3849 5.01674 21.3849 5.01674 21.4853 5.01674C21.6862 5.11716 21.887 5.21758 21.887 5.41841C21.9874 5.61925 21.887 5.82009 21.6862 6.02092L18.774 8.83264C18.6736 9.03348 18.4728 9.03348 18.3724 9.03348Z" fill="#3354F4"/>
</svg>
