<svg width="42" height="26" viewBox="0 0 42 26" fill="none" xmlns="http://www.w3.org/2000/svg">
<path d="M36.7 17.1C36.5 17.1 36.4 17 36.2 16.9C35.9 16.6 35.9 16.2 36.2 15.9L39.2 12.9L36.2 9.90001C35.9 9.60001 35.9 9.20001 36.2 8.90001C36.3 8.80001 36.5 8.70001 36.7 8.70001C36.9 8.70001 37 8.80001 37.2 8.90001L40.7 12.4C40.8 12.5 40.9 12.7 40.9 12.9C40.9 13.1 40.8 13.2 40.7 13.4L37.2 16.9C37.1 17 36.9 17.1 36.7 17.1Z" fill="#3354F4"/>
<path d="M5.2 17.1C5 17.1 4.9 17 4.7 16.9L1.2 13.4C1.1 13.2 1 13.1 1 12.9C1 12.7 1.1 12.6 1.2 12.4L4.7 8.90001C4.8 8.80001 5 8.70001 5.2 8.70001C5.4 8.70001 5.5 8.80001 5.7 8.90001C6 9.20001 6 9.60001 5.7 9.90001L2.7 12.9L5.7 15.9C6 16.2 6 16.6 5.7 16.9C5.5 17 5.4 17.1 5.2 17.1Z" fill="#3354F4"/>
<path d="M20.9 24.8C20.8 24.8 20.7 24.8 20.6 24.7L10.5 20.7C10.2 20.6 10 20.3 10 20V6.5C10 6.2 10.2 5.9 10.4 5.8L20.5 1.1C20.7 1 20.8 1 20.9 1C21 1 21.1 1 21.2 1.1L31.4 5.8C31.6 5.9 31.8 6.1 31.8 6.4V20C31.8 20.3 31.6 20.6 31.3 20.7L21.2 24.8C21.1 24.8 21 24.8 20.9 24.8ZM21.7 11.1V23L30.3 19.5V7.6L21.7 11.1ZM11.6 19.5L20.2 23V11.1L11.6 7.6V19.5ZM12.7 6.4L20.9 9.7L24.2 8.4L15.9 4.9L12.7 6.4ZM17.7 4.1L26.1 7.7L29.2 6.5L20.9 2.6L17.7 4.1Z" fill="#3354F4"/>
</svg>
