<svg width="28" height="26" viewBox="0 0 28 26" fill="none" xmlns="http://www.w3.org/2000/svg">
<path d="M13.6569 25C13.4561 25 13.2552 24.8996 13.0544 24.6987L10.5439 21.7866H1.80753C0.803347 21.7866 0 20.9833 0 19.9791V2.90795C0 1.80335 0.803347 1 1.80753 1H25.5063C26.5105 1 27.3138 1.80335 27.3138 2.80753V19.8787C27.3138 20.8828 26.5105 21.6862 25.5063 21.6862H16.569L14.159 24.5983C14.0586 24.8996 13.8577 25 13.6569 25ZM1.80753 2.50628C1.60669 2.50628 1.50628 2.60669 1.50628 2.80753V19.8787C1.50628 20.0795 1.60669 20.1799 1.80753 20.1799H10.9456C11.1464 20.1799 11.3473 20.2803 11.5481 20.4812L13.6569 22.9916L15.6653 20.5816C15.7657 20.3808 16.0669 20.2803 16.2678 20.2803H25.6067C25.8075 20.2803 25.9079 20.1799 25.9079 19.9791V2.90795C25.9079 2.70711 25.8075 2.60669 25.6067 2.60669H1.80753V2.50628ZM16.7699 15.7615C15.364 15.7615 14.2594 14.6569 14.159 13.251C14.159 11.9456 14.3598 10.6402 14.9623 9.43515C15.4644 8.43096 16.1674 7.62762 17.272 6.92469C17.3724 6.92469 17.3724 6.82427 17.4728 6.82427H17.5732L17.7741 7.0251C17.8745 7.12552 17.8745 7.22594 17.7741 7.42678L17.4728 7.92887C17.272 8.33054 17.0711 8.6318 16.8703 9.03347C16.569 9.63598 16.3682 10.1381 16.2678 10.7406C16.3682 10.7406 16.569 10.7406 16.569 10.7406H16.6695C16.8703 10.7406 17.1715 10.7406 17.3724 10.841C18.5774 11.1423 19.2803 12.3473 19.1799 13.5523C19.0795 14.7573 18.0753 15.7615 16.8703 15.8619C16.9707 15.7615 16.8703 15.7615 16.7699 15.7615ZM10.5439 15.7615C9.13808 15.7615 8.03347 14.6569 7.93305 13.251C7.93305 11.9456 8.13389 10.6402 8.63598 9.53557C9.13808 8.53138 9.841 7.72803 10.9456 7.0251C11.046 7.0251 11.046 6.92469 11.1464 6.92469H11.2469L11.3473 7.0251C11.4477 7.12552 11.5481 7.22594 11.3473 7.42678L11.046 7.92887C10.8452 8.33054 10.6444 8.6318 10.4435 9.03347C10.1423 9.63598 9.94142 10.1381 9.841 10.7406C9.94142 10.7406 10.1423 10.7406 10.2427 10.7406H10.3431C10.5439 10.7406 10.6444 10.7406 10.8452 10.7406C12.0502 10.9414 12.954 12.1464 12.954 13.3515C12.8536 14.5565 11.8494 15.6611 10.6444 15.7615C10.7448 15.7615 10.6444 15.7615 10.5439 15.7615Z" fill="#3354F4"/>
</svg>
