<svg width="26" height="26" viewBox="0 0 26 26" fill="none" xmlns="http://www.w3.org/2000/svg">
<path d="M12.9333 25C9.74014 25 6.75302 23.764 4.48692 21.4979C1.08778 18.0987 0.0577377 12.9485 1.91181 8.41631C3.66289 3.88412 7.98907 1 12.9333 1C19.5255 1 24.9848 6.35622 24.9848 13.0515C24.9848 17.8927 22.1007 22.3219 17.5685 24.176C16.0234 24.691 14.4783 25 12.9333 25ZM12.9333 2.54506C10.1522 2.54506 7.47405 3.67811 5.51697 5.63519C2.52984 8.62232 1.6028 13.1545 3.25087 17.0687C4.89894 20.9828 8.7101 23.5579 12.9333 23.5579C18.7015 23.5579 23.4397 18.8197 23.4397 13.0515C23.4397 8.82833 20.8646 5.01717 16.9504 3.3691C15.6114 2.85408 14.2723 2.54506 12.9333 2.54506ZM12.9333 20.5708C12.5213 20.5708 12.1092 20.2618 12.1092 19.7468V18.3047H9.53413C9.12211 18.3047 8.7101 17.9957 8.7101 17.4807C8.7101 16.9657 9.01911 16.6567 9.53413 16.6567H14.0663C14.8904 16.6567 15.5084 16.0386 15.5084 15.2146C15.5084 14.3906 14.8904 13.7725 14.0663 13.7725H11.8002C10.1522 13.7725 8.8131 12.4335 8.8131 10.7854C8.8131 9.13734 10.1522 7.69528 11.8002 7.69528H12.1092V6.25322C12.1092 5.8412 12.4183 5.42919 12.9333 5.42919C13.4483 5.42919 13.7573 5.7382 13.7573 6.25322V7.69528H16.3324C16.7444 7.69528 17.1565 8.00429 17.1565 8.51931C17.1565 9.03434 16.7444 9.24034 16.2294 9.24034H11.6972C10.9762 9.24034 10.2552 9.96137 10.2552 10.7854C10.2552 11.6094 10.8732 12.2275 11.6972 12.2275H13.9633C15.6114 12.2275 16.9504 13.5665 16.9504 15.2146C16.9504 16.8627 15.6114 18.2017 13.9633 18.2017H13.6543V19.6438C13.6543 20.1588 13.3453 20.5708 12.9333 20.5708Z" fill="#3354F4"/>
</svg>
