<svg width="26" height="26" viewBox="0 0 26 26" fill="none" xmlns="http://www.w3.org/2000/svg">
<path d="M4.1 25C2.4 25 1 23.6 1 21.9V4.1C1 2.4 2.4 1 4.1 1H21.9C23.6 1 25 2.4 25 4.1V21.9C25 23.6 23.6 25 21.9 25H4.1ZM9.2 15.6C9 15.6 8.8 15.7 8.7 15.8L2.6 20.9V21.9C2.6 22.8 3.3 23.5 4.2 23.5H22C22.9 23.5 23.6 22.8 23.6 21.9V19.8L19.8 16.8C19.7 16.7 19.5 16.6 19.3 16.6C19.1 16.6 18.9 16.7 18.8 16.8L15.9 19.1C15.5 19.4 15 19.6 14.5 19.6C13.9 19.6 13.3 19.4 12.9 18.9L9.9 15.8C9.5 15.7 9.4 15.6 9.2 15.6ZM4.1 2.5C3.7 2.5 3.3 2.7 3 3C2.7 3.3 2.5 3.7 2.5 4.1V18.9L7.6 14.6C8 14.2 8.5 14.1 9.1 14.1C9.7 14.1 10.3 14.3 10.7 14.8L13.7 17.8C13.9 17.9 14 18 14.2 18C14.4 18 14.6 17.9 14.7 17.8L17.6 15.7C18 15.4 18.5 15.2 19 15.2C19.5 15.2 20 15.4 20.4 15.7L23.2 17.9V4.1C23.2 3.7 23 3.3 22.7 3C22.4 2.7 22 2.5 21.6 2.5H4.1Z" fill="#3354F4"/>
<path d="M16.7 12.5C15.4 12.5 14.2 11.7 13.7 10.5C13.2 9.3 13.5 7.9 14.4 7C15 6.4 15.8 6 16.7 6C17.1 6 17.5 6.1 17.9 6.2C19.1 6.7 19.9 7.9 19.9 9.2C19.9 11 18.5 12.5 16.7 12.5ZM16.7 7.5C16 7.5 15.4 7.9 15.1 8.6C14.8 9.2 15 10 15.5 10.5C15.8 10.8 16.3 11 16.7 11C16.9 11 17.2 11 17.4 10.9C18 10.6 18.4 10 18.4 9.3C18.4 8.3 17.6 7.5 16.7 7.5Z" fill="#3354F4"/>
</svg>
