<svg width="27" height="26" viewBox="0 0 27 26" fill="none" xmlns="http://www.w3.org/2000/svg">
<path d="M17.2 11.8C16.8 11.8 16.5 11.5 16.5 11.1C16.5 10.7 16.8 10.4 17.2 10.4H22.1C22.5 10.4 22.8 10.7 22.8 11.1C22.8 11.5 22.5 11.8 22.1 11.8H17.2Z" fill="#3354F4"/>
<path d="M17.2 15.7C16.8 15.7 16.5 15.4 16.5 15C16.5 14.6 16.8 14.3 17.2 14.3H21C21.4 14.3 21.7 14.6 21.7 15C21.7 15.4 21.4 15.7 21 15.7H17.2Z" fill="#3354F4"/>
<path d="M17.2 19.5C16.8 19.5 16.5 19.2 16.5 18.8C16.5 18.4 16.8 18.1 17.2 18.1H19.9C20.3 18.1 20.6 18.4 20.6 18.8C20.6 19.2 20.3 19.5 19.9 19.5H17.2Z" fill="#3354F4"/>
<path d="M2.9 25C1.3 25 0 23.7 0 22.1V3.9C0 2.3 1.3 1 2.9 1H23.2C24.8 1 26.1 2.3 26.1 3.9V22C26.1 23.6 24.8 24.9 23.2 24.9H2.9V25ZM1.5 22.1C1.5 22.9 2.1 23.5 2.9 23.5H23.2C24 23.5 24.6 22.9 24.6 22.1V6.4L1.5 6.3V22.1ZM2.9 2.5C2.1 2.5 1.5 3.1 1.5 3.9V4.7L24.6 4.8L24.7 3.9C24.7 3.1 24.1 2.5 23.3 2.5H2.9Z" fill="#3354F4"/>
<path d="M8.70002 20.6C8.60002 20.6 8.60002 20.6 8.50002 20.6L3.70002 18.5C3.50002 18.4 3.40002 18.2 3.40002 18V12.5C3.40002 12.3 3.50002 12.1 3.70002 12L8.50002 9.89999C8.60002 9.89999 8.60002 9.89999 8.70002 9.89999C8.80002 9.89999 8.80002 9.89999 8.90002 9.89999L13.7 12C13.9 12.1 14 12.3 14 12.5V18C14 18.2 13.9 18.4 13.7 18.5L8.90002 20.6C8.90002 20.6 8.80002 20.6 8.70002 20.6ZM9.30002 14.8V19.2L13 17.6V13.2L9.30002 14.8ZM4.40002 17.5L8.20002 19.2V14.9L4.40002 13.2V17.5ZM5.30002 12.4L8.70002 13.9L12.2 12.4L8.70002 10.9L5.30002 12.4Z" fill="#3354F4"/>
</svg>
