<svg width="26" height="26" viewBox="0 0 26 26" fill="none" xmlns="http://www.w3.org/2000/svg">
<rect width="26" height="26"/>
<g clip-path="url(#clip0_1_2)">
<path d="M22.2704 16H3.72959C2.22553 16 1 14.6531 1 13C1 11.3469 2.22553 10 3.72959 10H22.2704C23.7745 10 25 11.3469 25 13C25 14.6531 23.7745 16 22.2704 16ZM3.72959 11.898C3.18182 11.898 2.72689 12.3878 2.72689 13C2.72689 13.6122 3.17253 14.102 3.72959 14.102H22.2704C22.8182 14.102 23.2731 13.6122 23.2731 13C23.2731 12.3878 22.8275 11.898 22.2704 11.898H3.72959Z" fill="#3354F4"/>
<path d="M11.0921 12.4694H4.01741C3.75077 12.4694 3.53462 12.7047 3.53462 12.9949C3.53462 13.2851 3.75077 13.5204 4.01741 13.5204H11.0921C11.3587 13.5204 11.5749 13.2851 11.5749 12.9949C11.5749 12.7047 11.3587 12.4694 11.0921 12.4694Z" fill="#3354F4"/>
</g>
<defs>
<clipPath id="clip0_1_2">
<rect width="24" height="6" transform="translate(1 10)"/>
</clipPath>
</defs>
</svg>
