<svg width="27" height="26" viewBox="0 0 27 26" fill="none" xmlns="http://www.w3.org/2000/svg">
<path d="M10.9 25C9.7 25 8.6 24.3 8.1 23.1C7.6 22 7.9 20.7 8.8 19.8C9.4 19.2 10.1 18.9 10.9 18.9C11.3 18.9 11.7 19 12.1 19.1C13.2 19.6 14 20.7 14 21.9C13.9 23.7 12.5 25 10.9 25ZM10.9 20.5C10.3 20.5 9.8 20.9 9.5 21.4C9.3 22 9.4 22.6 9.8 23C10.1 23.3 10.5 23.4 10.9 23.4C11.1 23.4 11.3 23.4 11.5 23.3C12.1 23.1 12.4 22.5 12.4 21.9C12.4 21.2 11.7 20.5 10.9 20.5Z" fill="#3354F4"/>
<path d="M21 25C19.8 25 18.7 24.3 18.2 23.1C17.7 22 18 20.7 18.9 19.8C19.5 19.2 20.2 18.9 21 18.9C21.4 18.9 21.8 19 22.2 19.1C23.3 19.6 24.1 20.7 24.1 21.9C24 23.7 22.7 25 21 25ZM21 20.5C20.4 20.5 19.9 20.9 19.6 21.4C19.4 22 19.5 22.6 19.9 23C20.2 23.3 20.6 23.4 21 23.4C21.2 23.4 21.4 23.4 21.6 23.3C22.2 23.1 22.5 22.5 22.5 21.9C22.5 21.2 21.8 20.5 21 20.5Z" fill="#3354F4"/>
<path d="M9.9 16.6C8.5 16.6 7.2 15.6 7 14.2L4.6 2.5H0.8C0.3 2.5 0 2.2 0 1.8C0 1.3 0.3 1 0.8 1H5.3C5.6 1 6 1.3 6 1.6L8.4 13.8C8.6 14.5 9.2 15 9.9 15H21.4C22.1 15 22.7 14.5 22.9 13.8L24.7 5.4C24.8 5 24.7 4.5 24.4 4.1C24.1 3.8 23.7 3.6 23.3 3.6H22.2C21.8 3.6 21.4 3.3 21.4 2.8C21.4 2.4 21.7 2 22.2 2H23.3C24.3 2 25.1 2.4 25.7 3.1C26.3 3.8 26.5 4.7 26.3 5.7L24.5 14.1C24.2 15.5 23 16.5 21.6 16.5L9.9 16.6Z" fill="#3354F4"/>
<path d="M15.4 11.5C15 11.5 14.6 11.2 14.6 10.7V8.1H12C11.6 8.1 11.2 7.8 11.2 7.3C11.2 6.9 11.5 6.5 12 6.5H14.6V4C14.6 3.6 14.9 3.2 15.4 3.2C15.8 3.2 16.2 3.5 16.2 4V6.6H18.8C19.2 6.6 19.6 6.9 19.6 7.4C19.6 7.8 19.3 8.2 18.8 8.2H16.2V10.8C16.1 11.2 15.8 11.5 15.4 11.5Z" fill="#3354F4"/>
</svg>
