<svg width="26" height="26" viewBox="0 0 26 26" fill="none" xmlns="http://www.w3.org/2000/svg">
<path d="M24.2 9.4C23.9 9.4 23.6 9.1 23.5 8.8C23.5 8.7 23.5 8.6 23.5 8.5V3.2C23.5 2.1 22.9 1.5 21.8 1.5H18.8C18.1 1.5 17.3 1.5 16.6 1.5C16.1 1.5 15.7 1.2 15.7 0.7C15.7 0.5 15.8 0.3 15.9 0.2C15.9 0.1 16.2 0 16.5 0H22C23.7 0 25 1.3 25 3C25 4.9 25 6.7 25 8.6C25 9 24.7 9.3 24.2 9.4Z" fill="#3354F4"/>
<path d="M16.4 23.9C16 23.9 15.7 23.6 15.6 23.2C15.6 22.9 15.8 22.5 16.2 22.4C16.3 22.4 16.3 22.4 16.4 22.4H21.8C22.9 22.4 23.5 21.8 23.5 20.7V19.3C23.5 18 23.5 16.7 23.5 15.4C23.5 15 23.7 14.5 24.3 14.5C24.8 14.5 25.1 14.9 25.1 15.4C25.1 15.4 25.1 20.3 25.1 20.9C25.1 22.6 23.8 23.9 22.1 23.9H19.4H16.4Z" fill="#3354F4"/>
<path d="M3.9 23.9C2.4 23.9 1 22.6 1 21C1 19.1 1 17.2 1 15.4C1 14.9 1.4 14.6 1.8 14.6C1.9 14.6 2.1 14.6 2.2 14.7C2.5 14.9 2.6 15.1 2.6 15.4V20.7C2.6 21.8 3.2 22.4 4.3 22.4H7.3C8.1 22.4 8.8 22.4 9.6 22.4C10 22.4 10.5 22.6 10.5 23.2C10.5 23.4 10.4 23.6 10.3 23.7C10.1 23.9 9.9 24 9.6 24H5C4.6 24 4.3 23.9 3.9 23.9Z" fill="#3354F4"/>
<path d="M1.8 9.4C1.3 9.4 1 9 1 8.5C1 8.5 1 3.6 1 3C1 1.3 2.3 0 4 0H6.6C7.6 0 8.6 0 9.6 0C9.9 0 10.2 0.2 10.3 0.4C10.4 0.6 10.4 0.9 10.3 1.2C10.1 1.4 9.9 1.5 9.6 1.5H4.3C3.2 1.5 2.6 2.1 2.6 3.2V4.7C2.6 6 2.6 7.2 2.6 8.5C2.6 9 2.2 9.4 1.8 9.4Z" fill="#3354F4"/>
<path d="M13 19.5C12.6 19.5 12.3 19.2 12.2 18.9C12.2 18.8 12.2 18.6 12.2 18.5V5.5C12.2 5.3 12.2 5.2 12.2 5.1C12.3 4.7 12.6 4.5 13 4.5C13.4 4.5 13.7 4.8 13.8 5.1C13.8 5.2 13.8 5.4 13.8 5.5V18.5C13.8 19 13.6 19.3 13.3 19.4C13.2 19.4 13.1 19.5 13 19.5Z" fill="#3354F4"/>
<path d="M7.40001 17.2C7.10001 17.2 6.70001 17 6.70001 16.6C6.70001 16.5 6.70001 16.4 6.70001 16.3V7.5C6.70001 7 7.00001 6.7 7.50001 6.7C8.00001 6.7 8.30001 7 8.30001 7.5C8.30001 10.5 8.30001 13.4 8.30001 16.4C8.20001 16.9 7.90001 17.2 7.40001 17.2Z" fill="#3354F4"/>
<path d="M18.6 17.2C18.3 17.2 18.1 17.1 18 16.9C17.9 16.8 17.9 16.6 17.9 16.5C17.9 16.5 17.9 9.7 17.9 7.6C17.9 7.1 18.2 6.8 18.7 6.8C19.1 6.8 19.5 7.1 19.5 7.6C19.5 7.6 19.5 15.5 19.5 16.6C19.5 16.9 19.3 17.2 19 17.3C18.8 17.2 18.7 17.2 18.6 17.2Z" fill="#3354F4"/>
</svg>
