<svg width="26" height="26" viewBox="0 0 26 26" fill="none" xmlns="http://www.w3.org/2000/svg">
<path d="M4.3 25C4.1 25 3.9 24.9 3.8 24.8L1.3 22.3C1.1 22.1 1 21.9 1 21.7C1 21.5 1.1 21.3 1.2 21.2C1.4 21.1 1.6 21 1.8 21C2 21 2.2 21.1 2.3 21.2L3.5 22.4V3.6L2.3 4.8C2.2 5 2 5 1.8 5C1.6 5 1.4 5 1.2 4.8C1.1 4.7 1 4.5 1 4.3C1 4.1 1.1 3.9 1.2 3.8L3.7 1.3C3.9 1.1 4.1 1 4.3 1C4.5 1 4.7 1.1 4.8 1.2L7.3 3.7C7.4 3.8 7.5 4 7.5 4.2C7.5 4.4 7.4 4.7 7.3 4.8C7.2 5 7 5 6.8 5C6.6 5 6.4 5 6.2 4.8L5 3.6V22.4L6.2 21.2C6.4 21.1 6.6 21 6.8 21C7 21 7.2 21.1 7.3 21.2C7.4 21.3 7.5 21.5 7.5 21.7C7.5 21.9 7.4 22.1 7.3 22.2L4.8 24.7C4.7 24.9 4.5 25 4.3 25Z" fill="#3354F4"/>
<path d="M11.8 5C11.3 5 11 4.7 11 4.3C11 3.9 11.3 3.5 11.8 3.5H24.3C24.7 3.5 25.1 3.8 25.1 4.3C25 4.7 24.7 5 24.2 5H11.8Z" fill="#3354F4"/>
<path d="M11.8 11.3C11.4 11.3 11 11 11 10.5C11 10.1 11.3 9.70001 11.8 9.70001H21.8C22.2 9.70001 22.6 10 22.6 10.5C22.6 10.9 22.3 11.3 21.8 11.3H11.8Z" fill="#3354F4"/>
<path d="M11.8 17.5C11.4 17.5 11 17.2 11 16.7C11 16.3 11.3 15.9 11.8 15.9H19.3C19.7 15.9 20.1 16.2 20.1 16.7C20.1 17.1 19.8 17.5 19.3 17.5H11.8Z" fill="#3354F4"/>
<path d="M11.8 23.8C11.4 23.8 11 23.5 11 23C11 22.6 11.3 22.2 11.8 22.2H16.8C17.2 22.2 17.6 22.5 17.6 23C17.6 23.4 17.3 23.8 16.8 23.8H11.8Z" fill="#3354F4"/>
</svg>
