<svg width="36" height="24" viewBox="0 0 36 24" fill="none" xmlns="http://www.w3.org/2000/svg">
<g clip-path="url(#clip0_505_57)">
<path fill-rule="evenodd" clip-rule="evenodd" d="M32.9 0H2.3C1 0 0 1 0 2.3V14C0 15.3 1 16.3 2.3 16.3H15.3V16.1C15.2 15.7 15.2 15.3 15.3 14.9H2.3C1.8 14.9 1.4 14.5 1.4 14V2.3C1.4 1.8 1.8 1.4 2.3 1.4H32.9C33.4 1.4 33.8 1.8 33.8 2.3V14C33.8 14.5 33.4 14.9 32.9 14.9H26C26.3 15.3 26.6 15.8 26.7 16.3H33C34.3 16.3 35.3 15.3 35.3 14V2.3C35.2 1 34.2 0 32.9 0Z" fill="black"/>
<path fill-rule="evenodd" clip-rule="evenodd" d="M24.6 18.1L24.1 18.4L26.3 20.3C26.6 20.6 26.7 20.9 26.7 21.3C26.7 21.7 26.6 22 26.3 22.3L25 23.6C24.7 23.9 24.4 24 24 24C23.6 24 23.3 23.9 23 23.6L20.8 21.5L20.5 22.1C20.2 22.6 19.6 22.9 19 22.8C18.5 22.7 18 22.2 17.9 21.7L16.6 15.8C16.5 15.4 16.7 14.9 17 14.6C17.3 14.2 17.8 14.1 18.3 14.2L24.2 15.4C24.8 15.6 25.2 16 25.3 16.6C25.4 17.2 25.1 17.8 24.6 18.1ZM24.3 22.4L25 21.7C25.2 21.6 25.2 21.3 24.8 21.2L21.9 18.5C21.8 18.3 21.8 18 22 17.9L23.7 16.9L17.9 15.6L19.2 21.5L20.2 19.7C20.3 19.5 20.6 19.4 20.8 19.6L23.7 22.4C23.9 22.6 24.1 22.6 24.3 22.4Z" fill="black"/>
<path d="M7 12.2V4H9.9C10.9 4 11.7 4.2 12.2 4.6C12.7 5 13 5.5 13 6.3C13 6.7 12.9 7.1 12.7 7.4C12.5 7.7 12.2 7.9 11.8 8.1C12.2 8.2 12.6 8.4 12.8 8.7C13 9 13.1 9.4 13.1 9.8C13.1 10.6 12.8 11.2 12.3 11.6C11.8 12 11.1 12.2 10.1 12.2H7ZM8.7 7.5H10C10.9 7.5 11.3 7.1 11.3 6.5C11.3 6.1 11.2 5.9 11 5.7C10.8 5.5 10.4 5.5 10 5.5H8.7V7.5ZM8.7 8.7V10.9H10.2C10.6 10.9 10.9 10.8 11.1 10.6C11.3 10.4 11.4 10.1 11.4 9.8C11.4 9 11 8.7 10.2 8.7H8.7Z" fill="black"/>
<path d="M20.6 4V9.4C20.6 10.3 20.3 11 19.8 11.5C19.2 12 18.5 12.3 17.5 12.3C16.5 12.3 15.8 12 15.2 11.5C14.6 11 14.3 10.3 14.3 9.4V4H16V9.4C16 9.9 16.1 10.3 16.4 10.6C16.7 10.9 17 11 17.4 11C18.4 11 18.8 10.5 18.9 9.5V4H20.6Z" fill="black"/>
<path d="M24.8 7.7L26.5 4H28.4L25.7 9.2V12.2H24V9.2L21.2 4H23.1L24.8 7.7Z" fill="black"/>
</g>
<defs>
<clipPath id="clip0_505_57">
<rect width="35.3" height="24" fill="white"/>
</clipPath>
</defs>
</svg>
