<svg width="26" height="26" viewBox="0 0 26 26" fill="none" xmlns="http://www.w3.org/2000/svg">
<path d="M3.6 25.1C2.1 25.1 1 23.9 1 22.5V3.6C1 2.2 2.2 1 3.6 1H22.4C23.9 1 25 2.2 25 3.6V22.4C25 23.9 23.8 25 22.4 25H3.6V25.1ZM2.5 22.5C2.5 23.1 3 23.6 3.6 23.6H22.4C23 23.6 23.5 23.1 23.5 22.5V6.2H2.4V22.5H2.5ZM3.6 2.5C3 2.5 2.5 3 2.5 3.6V4.8H23.6V3.7C23.6 3.1 23.1 2.6 22.5 2.6H3.6V2.5Z" fill="#3354F4"/>
<path d="M13 21.2C12.9 21.2 12.8 21.2 12.7 21.1L7.20001 18.7C6.90001 18.6 6.70001 18.3 6.70001 18V11.7C6.70001 11.4 6.90001 11.1 7.20001 11L12.7 8.6C12.8 8.6 12.9 8.5 13 8.5C13.1 8.5 13.2 8.5 13.3 8.6L18.8 11C19.1 11.1 19.3 11.4 19.3 11.7V18C19.3 18.3 19.1 18.6 18.8 18.7L13.3 21.1C13.3 21.2 13.2 21.2 13 21.2ZM13.8 14.7V19.4L17.8 17.6V13L13.8 14.7ZM8.30001 17.6L12.3 19.3L12.2 14.6L8.20001 12.9V17.6H8.30001ZM9.40001 11.8L13 13.3L16.7 11.7L13 10.3L9.40001 11.8Z" fill="#3354F4"/>
</svg>
