<svg width="42" height="26" viewBox="0 0 42 26" fill="none" xmlns="http://www.w3.org/2000/svg">
<path d="M37.1008 17.7395C36.8992 17.7395 36.6975 17.6387 36.5966 17.5378C36.2941 17.2353 36.2941 16.7311 36.5966 16.4286L40.0252 13L36.5966 9.57145C36.2941 9.26893 36.2941 8.76473 36.5966 8.46221C36.6975 8.36137 36.8992 8.26053 37.1008 8.26053C37.3025 8.26053 37.5042 8.36137 37.605 8.46221L41.5378 12.395C41.6387 12.4958 41.7395 12.6975 41.7395 12.8992C41.7395 13.1009 41.6387 13.3025 41.5378 13.4034L37.605 17.3362C37.5042 17.6387 37.3025 17.7395 37.1008 17.7395Z" fill="#3354F4"/>
<path d="M5.7395 17.7395C5.53782 17.7395 5.33613 17.6386 5.23529 17.5378L1.30252 13.605C1.10084 13.4033 1 13.2017 1 13C1 12.7983 1.10084 12.5966 1.20168 12.4958L5.13445 8.56301C5.23529 8.46217 5.43697 8.36133 5.63866 8.36133C5.84034 8.36133 6.04202 8.46217 6.14286 8.56301C6.44538 8.86553 6.44538 9.36973 6.14286 9.67225L2.71429 13.1008L6.14286 16.5294C6.44538 16.8319 6.44538 17.3361 6.14286 17.6386C6.14286 17.6386 5.94118 17.7395 5.7395 17.7395Z" fill="#3354F4"/>
<path d="M11.9916 25C10.5798 25 9.36975 23.7899 9.36975 22.3782V3.62185C9.36975 2.21008 10.5798 1 11.9916 1H30.7479C32.1597 1 33.3698 2.21008 33.3698 3.62185V22.3782C33.3698 23.7899 32.1597 25 30.7479 25H11.9916ZM10.8824 22.3782C10.8824 22.9832 11.3866 23.4874 11.9916 23.4874H30.7479C31.3529 23.4874 31.8571 22.9832 31.8571 22.3782V6.2437H10.8824V22.3782ZM11.9916 2.51261C11.3866 2.51261 10.8824 3.01681 10.8824 3.62185V4.73109H31.8571V3.62185C31.8571 3.01681 31.3529 2.51261 30.7479 2.51261H11.9916Z" fill="#3354F4"/>
<path d="M21.3698 21.1681C21.2689 21.1681 21.1681 21.1681 21.0673 21.0672L15.521 18.7479C15.2185 18.6471 15.0168 18.3446 15.0168 18.042V11.7899C15.0168 11.4874 15.2185 11.1849 15.521 11.084L21.0673 8.76472C21.1681 8.76472 21.2689 8.66388 21.3698 8.66388C21.4706 8.66388 21.5715 8.66388 21.6723 8.76472L27.2185 11.084C27.521 11.1849 27.7227 11.4874 27.7227 11.7899V18.042C27.7227 18.3446 27.521 18.6471 27.2185 18.7479L21.6723 21.1681C21.5715 21.1681 21.4706 21.1681 21.3698 21.1681ZM22.1765 14.6135V19.2521L26.2101 17.5378V12.8992L22.1765 14.6135ZM16.6303 17.5378L20.6639 19.2521V14.6135L16.6303 12.8992V17.5378ZM17.8404 11.7899L21.3698 13.3025L25 11.7899L21.3698 10.2773L17.8404 11.7899Z" fill="#3354F4"/>
</svg>
