<svg width="26" height="26" viewBox="0 0 26 26" fill="none" xmlns="http://www.w3.org/2000/svg">
<path fill-rule="evenodd" clip-rule="evenodd" d="M12.9041 25C9.20405 25 5.60405 23.7 2.30405 21.2C2.00405 21 1.90405 20.6 2.10405 20.3L6.70405 8.7L5.70405 8.5C4.50405 8.3 3.70405 7.3 3.70405 6.1V3.5C3.70405 2.1 4.80405 1 6.20405 1H9.50405C10.1041 1 10.8041 1.4 11.0041 2.1C11.3041 3 12.1041 3.6 13.0041 3.6C13.9041 3.6 14.8041 3 15.1041 2.2C15.3041 1.5 15.9041 1 16.6041 1C17.4041 1 18.7041 1 19.8041 1C21.2041 1 22.3041 2.1 22.3041 3.5V6C22.3041 7.2 21.5041 8.2 20.3041 8.4L19.3041 8.6L24.0041 20.3C24.1041 20.6 24.0041 21 23.7041 21.2C20.3041 23.7 16.6041 25 12.9041 25ZM6.20405 2.5C5.70405 2.5 5.20405 2.9 5.20405 3.5V6.9L7.90405 7C8.20405 7 8.40405 7.1 8.60405 7.3C8.70405 7.5 8.70405 7.8 8.60405 8L3.70405 20.4L4.30405 20.8C7.00405 22.6 9.90405 23.5 12.9041 23.5C15.9041 23.5 18.9041 22.6 21.8041 20.8L22.4041 20.4L17.5041 8C17.4041 7.8 17.4041 7.5 17.6041 7.3C17.7041 7.1 18.0041 7 18.2041 7H20.7041L20.9041 2.7L20.1041 2.6C19.4041 2.5 18.5041 2.5 17.7041 2.5H16.7041L16.4041 3C15.7041 4.3 14.5041 5.1 13.0041 5.1C11.6041 5.1 10.3041 4.3 9.70405 3L9.50405 2.5H6.20405Z" fill="#3354F4"/>
</svg>
