<svg width="26" height="26" viewBox="0 0 26 26" fill="none" xmlns="http://www.w3.org/2000/svg">
<path d="M22.6 6.3L16.5 0.2C16.3 0.1 16.2 0 15.9 0H5.3C4 0 3 1 3 2.3V23.7C3 25 4 26 5.3 26H20.5C21.8 26 22.8 25 22.8 23.7V6.9C22.8 6.6 22.7 6.5 22.6 6.3ZM16.7 2.6L20.2 6.1H17.5C17.1 6.1 16.7 5.8 16.7 5.3V2.6ZM20.5 24.5H5.3C4.9 24.5 4.5 24.2 4.5 23.7V2.3C4.5 1.9 4.8 1.5 5.3 1.5H15.2V5.3C15.2 6.6 16.2 7.6 17.5 7.6H21.3V23.7C21.3 24.1 20.9 24.5 20.5 24.5Z" fill="#3354F4"/>
<path d="M12.9 20.4C12.8 20.4 12.8 20.4 12.7 20.4L7.89998 18.3C7.69998 18.2 7.59998 18 7.59998 17.8V12.3C7.59998 12.1 7.69998 11.9 7.89998 11.8L12.7 9.70001C12.8 9.70001 12.8 9.70001 12.9 9.70001C13 9.70001 13 9.70001 13.1 9.70001L17.9 11.8C18.1 11.9 18.2 12.1 18.2 12.3V17.8C18.2 18 18.1 18.2 17.9 18.3L13.1 20.4C13 20.4 13 20.4 12.9 20.4ZM13.5 14.7V19.1L17.2 17.5V13.1L13.5 14.7ZM8.59998 17.4L12.4 19V14.7L8.59998 13V17.4ZM9.39998 12.2L12.8 13.7L16.3 12.2L12.8 10.7L9.39998 12.2Z" fill="#3354F4"/>
</svg>
