<svg width="26" height="26" viewBox="0 0 26 26" fill="none" xmlns="http://www.w3.org/2000/svg">
<g clip-path="url(#clip0_106_137)">
<path d="M17.9 0C11.6 0 7.7 6.9 10.9 12.2H1.8C0.8 12.2 0 13 0 14V24.2C0 25.2 0.8 26 1.8 26H12C13 26 13.8 25.2 13.8 24.2V15C19.2 18.2 26 14.3 26 8C26 3.6 22.3 0 17.9 0ZM5.5 13.8H8.3V16L7.5 15.5C7.1 15.3 6.6 15.3 6.2 15.5L5.5 16V13.8ZM12.2 24.2C12.2 24.3 12.1 24.5 11.9 24.5H1.8C1.7 24.5 1.5 24.4 1.5 24.2V14C1.5 13.9 1.6 13.7 1.8 13.7H4V16.4C4 17.4 5.1 18 5.9 17.5L6.9 16.9L7.9 17.5C8.7 18 9.8 17.4 9.8 16.4V13.7H12C12.1 13.7 12.3 13.8 12.3 14L12.2 24.2ZM17.9 14.7C14.3 14.7 11.3 11.8 11.3 8.1C11.3 4.4 14.2 1.5 17.9 1.5C21.5 1.5 24.5 4.4 24.5 8.1C24.5 11.8 21.5 14.7 17.9 14.7Z" fill="#3354F4"/>
<path d="M8.69999 20.4H5.09999C4.69999 20.4 4.29999 20.7 4.29999 21.2C4.29999 21.6 4.59999 22 5.09999 22H8.69999C9.09999 22 9.49999 21.7 9.49999 21.2C9.39999 20.7 9.09999 20.4 8.69999 20.4ZM18.7 7.4C18.2 7.2 17.6 7 17.2 6.7C17 6.6 17 5.4 18.5 6.1C18.8 6.2 19.2 6.2 19.4 5.9C19.7 5.5 19.6 4.9 19.2 4.7C19 4.6 18.7 4.5 18.5 4.4V4.3C18.5 3.9 18.2 3.5 17.8 3.5C17.4 3.5 17 3.8 17 4.3V4.5C15.6 5 15.2 7 16.3 7.9C16.8 8.3 17.5 8.6 18.2 8.8C19.1 9.1 18.7 10.3 17.8 10.3C17.2 10.3 17.1 10.3 16.7 10C16.4 9.8 15.9 9.8 15.7 10.2C15.4 10.6 15.5 11.1 15.9 11.3C16.4 11.6 16.7 11.7 17.1 11.8C17.1 12.3 17.4 12.6 17.8 12.6C18.2 12.6 18.6 12.3 18.6 11.8V11.6C20.6 11 20.9 8.1 18.7 7.4Z" fill="#3354F4"/>
</g>
<defs>
<clipPath id="clip0_106_137">
<rect width="26" height="26" fill="white"/>
</clipPath>
</defs>
</svg>
