<?xml version="1.0" encoding="utf-8"?>
<!-- Generator: Adobe Illustrator 25.2.1, SVG Export Plug-In . SVG Version: 6.00 Build 0)  -->
<svg version="1.1" id="Layer_1" xmlns="http://www.w3.org/2000/svg" xmlns:xlink="http://www.w3.org/1999/xlink" x="0px" y="0px"
	 viewBox="0 0 256 256" style="enable-background:new 0 0 256 256;" xml:space="preserve">
<style type="text/css">
	.st0{fill:#FFFFFF;}
	.st1{fill:url(#SVGID_1_);}
	.st2{fill:url(#SVGID_2_);}
	.st3{fill:url(#SVGID_3_);}
	.st4{fill:url(#SVGID_4_);}
	.st5{fill:url(#SVGID_5_);}
	.st6{fill:url(#SVGID_6_);}
</style>
<path class="st0" d="M206.3,77.9c0-7-5.7-12.7-12.7-12.7H66.1c-7,0-12.7,5.7-12.7,12.7L24,234.5c0,11.2,9.1,20.3,20.3,20.3h167.5
	c11.2,0,20.3-9.1,20.3-20.3L206.3,77.9z M85.2,98.8c-4.7,0-8.4-3.8-8.4-8.4c0-4.7,3.8-8.4,8.4-8.4c4.6,0,8.4,3.8,8.4,8.4
	C93.6,95,89.8,98.8,85.2,98.8z M170.8,98.8c-4.6,0-8.4-3.8-8.4-8.4c0-4.7,3.8-8.4,8.4-8.4c4.7,0,8.4,3.8,8.4,8.4
	C179.2,95,175.4,98.8,170.8,98.8z"/>
<g>
	<path class="st0" d="M170.8,91.7c-1.5,0-2.7-1.2-2.7-2.7V46.6c0-22.1-18-40.1-40.1-40.1s-40.1,18-40.1,40.1v42.4
		c0,1.5-1.2,2.7-2.7,2.7s-2.7-1.2-2.7-2.7V46.6c0-25.1,20.4-45.4,45.4-45.4c25.1,0,45.4,20.4,45.4,45.4v42.4
		C173.4,90.5,172.3,91.7,170.8,91.7z"/>
</g>
<g>
	<linearGradient id="SVGID_1_" gradientUnits="userSpaceOnUse" x1="203.8045" y1="185.0586" x2="79.6306" y2="237.7542">
		<stop  offset="0" style="stop-color:#26C4F0"/>
		<stop  offset="1" style="stop-color:#3235EF"/>
	</linearGradient>
	<path class="st1" d="M136.4,204.1c-4.4,1.6-6.6,6.7-5.1,11.1c1.7,4.6,6.7,7,11.1,5.4c4.4-1.6,6.7-6.7,5.1-11.2
		C145.9,204.9,140.8,202.5,136.4,204.1z"/>
	<linearGradient id="SVGID_2_" gradientUnits="userSpaceOnUse" x1="204.5535" y1="186.8234" x2="80.3796" y2="239.519">
		<stop  offset="0" style="stop-color:#26C4F0"/>
		<stop  offset="1" style="stop-color:#3235EF"/>
	</linearGradient>
	<path class="st2" d="M171.2,191.4c-4.5,1.6-6.9,6.7-5.3,11.2c1.7,4.6,6.7,7,11.2,5.3c4.6-1.6,7-6.6,5.4-11.2
		C180.9,192.3,176,189.8,171.2,191.4z"/>
	<linearGradient id="SVGID_3_" gradientUnits="userSpaceOnUse" x1="183.6619" y1="137.7147" x2="59.488" y2="190.4104">
		<stop  offset="0" style="stop-color:#26C4F0"/>
		<stop  offset="1" style="stop-color:#3235EF"/>
	</linearGradient>
	<path class="st3" d="M179.2,181.8c5.1-3.3,7.2-8,6.3-13.9c-1.9-13-3.9-26-5.9-38.9c-0.1-0.9-0.4-1.7-0.9-2.5
		c-1.4-2-3.7-2.6-6.3-1.7c-23.2,8.4-46.4,16.9-69.7,25.3c-0.3,0.1-0.7,0.2-1,0.4c-0.6,0.3-1,0.1-1.3-0.5c-0.9-1.8-1.9-3.5-2.9-5.3
		c-3.2-6.2-8.5-8.2-15.1-5.8c-2.5,0.9-5,1.9-7.5,2.7c-2.7,0.9-4.1,2.6-4.2,5.4c0.3,0.8,0.6,1.6,0.8,2.4c1.8,2.2,4.1,2.6,6.7,1.6
		c2.5-0.9,5.1-1.9,7.6-2.8c1.7-0.6,1.9-0.5,2.7,1.1c3.6,6.7,7.2,13.3,10.8,20c0.9,1.8,1.9,3.5,2.8,5.2l2.4-0.9
		c0.9-0.3,1.9-0.5,2.8-0.5c3.4,0,6.4,2.1,7.6,5.3c1.5,4.2-0.6,8.9-4.8,10.4l-0.1,0c0.7,1.4,1.5,2.8,2.2,4.2
		c3.6,6.8,10.5,9.5,17.7,6.9c15.2-5.6,30.5-11.1,45.8-16.7C177.1,182.9,178.2,182.4,179.2,181.8z"/>
	<linearGradient id="SVGID_4_" gradientUnits="userSpaceOnUse" x1="179.4871" y1="127.7561" x2="55.3132" y2="180.4517">
		<stop  offset="0" style="stop-color:#26C4F0"/>
		<stop  offset="1" style="stop-color:#3235EF"/>
	</linearGradient>
	<path class="st4" d="M90.8,166.6c-0.7-1.8-2.7-2.7-4.5-2.1l-31.9,11.6c-1.8,0.7-2.7,2.7-2.1,4.5c0.5,1.4,1.8,2.3,3.3,2.3
		c0.4,0,0.8-0.1,1.2-0.2L88.7,171C90.5,170.4,91.4,168.4,90.8,166.6z"/>
	<linearGradient id="SVGID_5_" gradientUnits="userSpaceOnUse" x1="193.7458" y1="161.3558" x2="69.5719" y2="214.0515">
		<stop  offset="0" style="stop-color:#26C4F0"/>
		<stop  offset="1" style="stop-color:#3235EF"/>
	</linearGradient>
	<path class="st5" d="M96.8,199.4L74,207.7c-1.8,0.7-2.7,2.7-2.1,4.5c0.5,1.4,1.8,2.3,3.3,2.3c0.4,0,0.8-0.1,1.2-0.2l22.8-8.3
		c1.8-0.7,2.7-2.7,2.1-4.5C100.6,199.7,98.6,198.8,96.8,199.4z"/>
	<linearGradient id="SVGID_6_" gradientUnits="userSpaceOnUse" x1="187.496" y1="146.6286" x2="63.3221" y2="199.3242">
		<stop  offset="0" style="stop-color:#26C4F0"/>
		<stop  offset="1" style="stop-color:#3235EF"/>
	</linearGradient>
	<path class="st6" d="M110.8,180.1c-0.7-1.8-2.6-2.7-4.5-2.1l-23,8.4c-1.8,0.7-2.7,2.6-2.1,4.5c0.5,1.4,1.8,2.3,3.3,2.3
		c0.4,0,0.8-0.1,1.2-0.2l23-8.4C110.5,183.9,111.4,181.9,110.8,180.1z"/>
</g>
</svg>
