<svg xmlns="http://www.w3.org/2000/svg" width="48" height="51" viewBox="0 0 48 51" fill="none">
    <path d="M37.7802 51.0003H4.0838C3.0103 51.0031 1.9791 50.5822 1.21438 49.8292C0.449668 49.0761 0.0132497 48.0519 0 46.979L5.92453 15.422C5.92453 14.7438 6.19338 14.0933 6.67223 13.6128C7.15108 13.1323 7.8009 12.8611 8.47943 12.8584H34.1189C34.4557 12.8584 34.7892 12.9247 35.1004 13.0535C35.4116 13.1824 35.6944 13.3712 35.9326 13.6093C36.1707 13.8473 36.3597 14.1299 36.4886 14.4409C36.6175 14.752 36.6838 15.0853 36.6838 15.422L41.864 46.9288C41.864 47.4643 41.7583 47.9946 41.553 48.4892C41.3476 48.9839 41.0466 49.4331 40.6673 49.8114C40.2879 50.1896 39.8377 50.4893 39.3423 50.6933C38.8468 50.8973 38.316 51.0016 37.7802 51.0003Z" fill="url(#paint0_linear_1_690)"/>
    <path d="M12.3227 19.624C13.2559 19.624 14.0125 18.8678 14.0125 17.935C14.0125 17.0023 13.2559 16.2461 12.3227 16.2461C11.3894 16.2461 10.6328 17.0023 10.6328 17.935C10.6328 18.8678 11.3894 19.624 12.3227 19.624Z" fill="white"/>
    <path d="M29.5414 19.624C30.4747 19.624 31.2313 18.8678 31.2313 17.935C31.2313 17.0023 30.4747 16.2461 29.5414 16.2461C28.6081 16.2461 27.8516 17.0023 27.8516 17.935C27.8516 18.8678 28.6081 19.624 29.5414 19.624Z" fill="white"/>
    <path fill-rule="evenodd" clip-rule="evenodd" d="M20.9324 1.06564C18.7902 1.06564 16.7357 1.91616 15.221 3.43009C13.7063 4.94402 12.8553 6.99736 12.8553 9.13838V17.6736C12.8553 17.9678 12.6166 18.2064 12.3222 18.2064C12.0277 18.2064 11.7891 17.9678 11.7891 17.6736V9.13838C11.7891 6.71473 12.7524 4.39035 14.4671 2.67657C16.1818 0.962791 18.5074 0 20.9324 0C23.3573 0 25.6829 0.962791 27.3976 2.67657C29.1123 4.39035 30.0757 6.71473 30.0757 9.13838V17.6736C30.0757 17.9678 29.837 18.2064 29.5425 18.2064C29.2481 18.2064 29.0094 17.9678 29.0094 17.6736V9.13838C29.0094 6.99736 28.1585 4.94402 26.6437 3.43009C25.129 1.91616 23.0745 1.06564 20.9324 1.06564Z" fill="#0A539B"/>
    <g filter="url(#filter0_d_1_690)">
        <path d="M24.8658 41.8816C24.7421 41.561 24.5261 41.2843 24.2452 41.0863C23.9643 40.8882 23.6309 40.7778 23.2873 40.7689C22.9436 40.76 22.605 40.8531 22.3142 41.0363C22.0234 41.2196 21.7934 41.4848 21.6533 41.7986C21.5132 42.1123 21.4691 42.4605 21.5268 42.7992C21.5845 43.138 21.7412 43.452 21.9773 43.7018C22.2133 43.9516 22.5181 44.1259 22.8532 44.2027C23.1882 44.2796 23.5386 44.2555 23.86 44.1335C24.2846 43.9587 24.6258 43.6275 24.813 43.2084C25.0002 42.7893 25.0191 42.3143 24.8658 41.8816ZM31.9069 39.3281C31.79 38.9986 31.5782 38.7111 31.2981 38.5019C31.0179 38.2926 30.6821 38.171 30.3328 38.1523C29.9836 38.1336 29.6367 38.2187 29.3358 38.3969C29.0349 38.5751 28.7936 38.8384 28.6423 39.1535C28.4909 39.4686 28.4364 39.8214 28.4855 40.1675C28.5346 40.5136 28.6851 40.8374 28.9181 41.098C29.1511 41.3587 29.4562 41.5445 29.7948 41.6321C30.1333 41.7196 30.4903 41.705 30.8205 41.59C31.2638 41.4329 31.6269 41.1068 31.8305 40.683C32.034 40.2592 32.0615 39.7721 31.9069 39.3281ZM32.5204 33.5073C32.1382 30.8934 31.7258 28.2896 31.3235 25.6758C31.3016 25.5015 31.2433 25.3336 31.1525 25.1832C31.0157 24.9857 30.8127 24.8437 30.5802 24.7828C30.3477 24.7219 30.1012 24.7463 29.8851 24.8514C25.1911 26.5404 20.5171 28.2394 15.8634 29.9484L15.6622 30.0188C15.6386 30.034 15.6117 30.0435 15.5838 30.0465C15.5559 30.0496 15.5276 30.0461 15.5013 30.0364C15.4749 30.0266 15.4512 30.0109 15.432 29.9904C15.4128 29.9699 15.3986 29.9452 15.3906 29.9183L14.8072 28.8426C14.6894 28.5649 14.517 28.3137 14.3003 28.1039C14.0835 27.8941 13.8268 27.7299 13.5454 27.6211C13.2639 27.5124 12.9635 27.4612 12.6619 27.4707C12.3603 27.4802 12.0636 27.5501 11.7896 27.6764C11.2867 27.8473 10.7837 28.0484 10.2909 28.2092C10.0445 28.2652 9.82539 28.4052 9.67118 28.6052C9.51697 28.8052 9.43732 29.0527 9.44595 29.305L9.61694 29.7876C9.76881 29.9898 9.98599 30.1333 10.2316 30.1938C10.4773 30.2543 10.7363 30.2279 10.9648 30.1193L12.5038 29.5563C12.8357 29.4357 12.886 29.4659 13.0469 29.7775C13.7712 31.1246 14.4954 32.4617 15.2095 33.7988L15.7829 34.8041L16.2556 34.6332C16.4361 34.5682 16.6272 34.5376 16.8189 34.5427C17.2006 34.5452 17.5692 34.6814 17.8607 34.9277C18.1521 35.1739 18.3478 35.5146 18.4137 35.8903C18.4795 36.2661 18.4113 36.653 18.221 36.9836C18.0306 37.3142 17.7302 37.5675 17.3721 37.6995C17.513 37.9809 17.6638 38.2524 17.8147 38.5339C18.1195 39.1776 18.6595 39.6802 19.3237 39.9383C19.9879 40.1963 20.7257 40.1902 21.3855 39.9212L30.5992 36.5735C30.8331 36.4868 31.0587 36.3791 31.2732 36.2518C31.7361 35.9758 32.1036 35.5651 32.3265 35.0746C32.5494 34.5841 32.6171 34.0373 32.5204 33.5073Z" fill="white"/>
    </g>
    <path opacity="0.5" fill-rule="evenodd" clip-rule="evenodd" d="M13.4377 33.2585C13.5697 33.6211 13.3825 34.022 13.0196 34.1539L6.60223 36.4862C6.23939 36.6181 5.83828 36.431 5.70634 36.0684C5.5744 35.7057 5.76158 35.3048 6.12442 35.1729L12.5418 32.8406C12.9047 32.7087 13.3058 32.8958 13.4377 33.2585Z" fill="white"/>
    <path opacity="0.5" fill-rule="evenodd" clip-rule="evenodd" d="M15.5445 40.2856C15.6765 40.6482 15.4895 41.0491 15.1267 41.1811L10.54 42.85C10.1772 42.982 9.776 42.795 9.64393 42.4324C9.51186 42.0698 9.6989 41.6689 10.0617 41.5369L14.6484 39.868C15.0112 39.736 15.4124 39.923 15.5445 40.2856Z" fill="white"/>
    <path d="M12.1696 38.6043C12.0265 38.6028 11.8873 38.5577 11.7704 38.4751C11.6536 38.3925 11.5648 38.2762 11.5157 38.1419C11.4822 38.0562 11.4663 37.9647 11.469 37.8727C11.4718 37.7808 11.493 37.6904 11.5315 37.6068C11.57 37.5233 11.625 37.4484 11.6931 37.3866C11.7613 37.3248 11.8412 37.2773 11.9281 37.2471L16.5652 35.5582C16.7399 35.4875 16.9356 35.4892 17.1091 35.5627C17.2827 35.6362 17.4199 35.7756 17.4906 35.9503C17.5613 36.1249 17.5597 36.3205 17.4861 36.4939C17.4125 36.6674 17.273 36.8045 17.0983 36.8752L12.4613 38.5541C12.3688 38.5916 12.2693 38.6087 12.1696 38.6043Z" fill="white"/>
    <defs>
        <filter id="filter0_d_1_690" x="9.44531" y="24.75" width="23.578" height="19.9568" filterUnits="userSpaceOnUse" color-interpolation-filters="sRGB">
            <feFlood flood-opacity="0" result="BackgroundImageFix"/>
            <feColorMatrix in="SourceAlpha" type="matrix" values="0 0 0 0 0 0 0 0 0 0 0 0 0 0 0 0 0 0 127 0" result="hardAlpha"/>
            <feOffset dx="0.46" dy="0.46"/>
            <feColorMatrix type="matrix" values="0 0 0 0 0 0 0 0 0 0 0 0 0 0 0 0 0 0 0.25 0"/>
            <feBlend mode="normal" in2="BackgroundImageFix" result="effect1_dropShadow_1_690"/>
            <feBlend mode="normal" in="SourceGraphic" in2="effect1_dropShadow_1_690" result="shape"/>
        </filter>
        <linearGradient id="paint0_linear_1_690" x1="39.3594" y1="15.3818" x2="4.34481" y2="51.8737" gradientUnits="userSpaceOnUse">
            <stop stop-color="#26C4F0"/>
            <stop offset="1" stop-color="#3235EF"/>
        </linearGradient>
    </defs>
</svg>