<svg width="44" height="26" viewBox="0 0 44 26" fill="none" xmlns="http://www.w3.org/2000/svg">
<path fill-rule="evenodd" clip-rule="evenodd" d="M7.3 25C5.6 25 4 24.3 2.8 23.2C1.7 22 1 20.4 1 18.7V7.3C1 5.6 1.7 4 2.8 2.8C4 1.7 5.6 1 7.3 1H18.7C20.4 1 22 1.7 23.2 2.8C24.3 4 25 5.6 25 7.3V9.2C25 9.6 24.7 10 24.2 10C23.7 10 23.4 9.7 23.4 9.2V7.3C23.4 6 22.9 4.8 22 3.9C21.1 3 19.9 2.5 18.6 2.5H7.3C6 2.5 4.8 3 3.9 3.9C3 4.8 2.6 6 2.6 7.3V18.7C2.6 20 3.1 21.2 4 22.1C4.9 23 6.1 23.5 7.4 23.5H18.8C20.1 23.5 21.3 23 22.2 22.1C23.1 21.2 23.6 20 23.6 18.7V16.7C23.6 16.3 23.9 15.9 24.4 15.9C24.9 15.9 25.2 16.2 25.2 16.7V18.7C25.2 20.4 24.5 22 23.4 23.2C22 24.3 20.4 25 18.7 25H7.3ZM29 21.6C28.6 21.6 28.2 21.3 28.2 20.8C28.2 20.3 28.5 20 29 20H39.2C39.6 20 40 20.3 40 20.8C40 21.3 39.7 21.6 39.2 21.6H29ZM13.3 15.1C12.1 15.1 11.2 14.1 11.2 13C11.2 11.9 12.2 10.9 13.3 10.9C14.4 10.9 15.4 11.9 15.4 13C15.4 14.1 14.5 15.1 13.3 15.1ZM24.2 14.2C23.8 14.2 23.4 13.9 23.4 13.4V12.4C23.4 12 23.7 11.6 24.2 11.6C24.7 11.6 25 12 25 12.4V13.4C25 13.9 24.7 14.2 24.2 14.2ZM29 13.8C28.6 13.8 28.2 13.5 28.2 13C28.2 12.5 28.5 12.2 29 12.2H42.2C42.6 12.2 43 12.5 43 13C43 13.5 42.7 13.8 42.2 13.8H29ZM29 5.9C28.6 5.9 28.2 5.6 28.2 5.1C28.2 4.6 28.5 4.3 29 4.3H42.2C42.6 4.3 43 4.6 43 5.1C43 5.6 42.7 5.9 42.2 5.9H29Z" fill="#3354F4"/>
</svg>
