<svg width="26" height="26" viewBox="0 0 26 26" fill="none" xmlns="http://www.w3.org/2000/svg">
<path d="M20 25C16.8 25 14.2 22.4215 14.2 19.2479C14.2 18.6529 14.3 18.0579 14.5 17.562L10.1 15.7769C9.1 16.7686 7.8 17.2645 6.4 17.2645C3.4 17.2645 1 14.8843 1 11.9091C1 8.93388 3.4 6.55372 6.4 6.55372C8.1 6.55372 9.7 7.34711 10.7 8.73554L15.9 6.2562C15.8 6.05785 15.8 5.76033 15.8 5.36364C15.8 2.8843 17.8 1 20.2 1C22.7 1 24.6 2.98347 24.6 5.36364C24.6 7.7438 22.6 9.72727 20.2 9.72727C18.6 9.72727 17.2 8.83471 16.4 7.54545L11.4 10.0248C11.7 10.6198 11.8 11.2149 11.8 11.9091C11.8 12.9008 11.5 13.7934 11 14.5868L15 16.2727C16 14.5868 17.8 13.4959 19.9 13.4959C23.1 13.4959 25.7 16.0744 25.7 19.2479C25.7 22.4215 23.1 25 20 25ZM20 15.0826C17.6 15.0826 15.7 16.9669 15.7 19.3471C15.7 21.7273 17.6 23.6116 20 23.6116C22.4 23.6116 24.3 21.7273 24.3 19.3471C24.2 16.9669 22.3 15.0826 20 15.0826ZM6.5 8.04132C4.4 8.04132 2.6 9.72727 2.6 11.9091C2.6 14.0909 4.3 15.7769 6.5 15.7769C8.7 15.7769 10.4 14.0909 10.4 11.9091C10.4 9.72727 8.6 8.04132 6.5 8.04132ZM20.4 2.58678C18.8 2.58678 17.4 3.87603 17.4 5.56198C17.4 7.24793 18.7 8.53719 20.4 8.53719C22 8.53719 23.4 7.24793 23.4 5.56198C23.4 3.87603 22 2.58678 20.4 2.58678Z" fill="#3354F4"/>
</svg>
