<svg width="27" height="26" viewBox="0 0 27 26" fill="none" xmlns="http://www.w3.org/2000/svg">
<path d="M19.9375 21.6C19.6375 21.6 19.4375 21.4 19.4375 21.1V17.1L17.9375 18.6C17.8375 18.7 17.7375 18.8 17.5375 18.8C17.3375 18.8 17.2375 18.7 17.1375 18.6C17.0375 18.5 16.9375 18.4 16.9375 18.2C16.9375 18.1 17.0375 17.9 17.1375 17.8L19.6375 15.3C19.8375 15.2 19.8375 15.2 19.9375 15.2H20.0375C20.1375 15.2 20.1375 15.2 20.1375 15.2C20.2375 15.2 20.3375 15.3 20.4375 15.3L22.8375 17.7C22.9375 17.8 23.0375 17.9 23.0375 18.1C23.0375 18.3 22.9375 18.4 22.8375 18.5C22.7375 18.6 22.6375 18.7 22.4375 18.7C22.3375 18.7 22.1375 18.6 22.0375 18.5L20.5375 17V21C20.4375 21.4 20.2375 21.6 19.9375 21.6Z" fill="#3354F4"/>
<path d="M19.9375 25C18.4375 25 17.0375 24.5 15.8375 23.6C14.2375 24 12.8375 24.1 11.5375 24.1C7.9375 24.1 4.5375 22.9 1.3375 20.5C1.0375 20.3 0.9375 19.9 1.0375 19.6L5.5375 8.4L4.6375 8.3C3.5375 8.1 2.6375 7.1 2.6375 5.9V3.4C2.6375 2.1 3.7375 1 5.1375 1H8.2375C8.9375 1 9.5375 1.5 9.8375 2.1C10.1375 2.9 10.8375 3.4 11.7375 3.4C12.6375 3.4 13.3375 2.9 13.6375 2.1C13.8375 1.5 14.4375 1 15.1375 1C15.8375 1 17.1375 1 18.2375 1C19.6375 1 20.7375 2.1 20.7375 3.4V5.9C20.7375 7 19.9375 8 18.8375 8.3L17.9375 8.5L19.3375 11.9C19.4375 11.9 19.5375 11.9 19.6375 11.9H19.9375C23.5375 11.9 26.5375 14.9 26.5375 18.5C26.4375 22.1 23.5375 25 19.9375 25ZM19.9375 13.3C19.3375 13.3 18.7375 13.4 18.1375 13.6C16.1375 14.3 14.8375 16.3 14.8375 18.4C14.8375 19.6 15.2375 20.7 16.0375 21.7C16.5375 22.3 17.1375 22.7 17.8375 23.1C18.4375 23.4 19.1375 23.5 19.9375 23.5C22.7375 23.5 25.0375 21.2 25.0375 18.4C25.0375 15.7 22.8375 13.4 20.0375 13.3H19.9375ZM5.1375 2.6C4.6375 2.6 4.2375 3 4.2375 3.4V6.5L6.6375 6.7C6.9375 6.7 7.2375 6.8 7.3375 7.1C7.5375 7.3 7.5375 7.6 7.4375 7.8L2.8375 19.6L3.3375 20C5.9375 21.7 8.7375 22.6 11.5375 22.6C12.4375 22.6 13.3375 22.5 14.3375 22.3L14.6375 22.2L14.4375 22C13.7375 20.9 13.3375 19.7 13.3375 18.4C13.3375 15.7 15.0375 13.2 17.5375 12.3H17.6375L15.9375 7.9C15.8375 7.7 15.8375 7.4 16.0375 7.2C16.1375 7 16.4375 6.8 16.7375 6.8H19.0375L19.2375 2.8L18.5375 2.7C17.8375 2.6 17.0375 2.6 16.2375 2.6H15.3375L14.9375 3C14.3375 4.3 13.0375 5 11.6375 5C10.3375 5.1 9.0375 4.3 8.4375 3L8.2375 2.6H5.1375Z" fill="#3354F4"/>
</svg>
