<svg width="28" height="26" viewBox="0 0 28 26" fill="none" xmlns="http://www.w3.org/2000/svg">
<path d="M11.8 21.6C11.7 21.6 11.6 21.6 11.5 21.5L6.5 19.4C6.2 19.3 6 19 6 18.7V13C6 12.7 6.2 12.4 6.5 12.3L11.5 10.2C11.6 10.2 11.7 10.1 11.8 10.1C11.9 10.1 12 10.1 12.1 10.2L17.1 12.3C17.4 12.4 17.6 12.7 17.6 13V18.7C17.6 19 17.4 19.3 17.1 19.4L12.1 21.5C12 21.6 11.9 21.6 11.8 21.6ZM12.6 19.7L16 18.2V14.2L12.6 15.7V19.7ZM11.1 19.7V15.7L7.7 14.2V18.2L11.1 19.7ZM11.8 14.3L14.8 13L11.8 11.7L8.8 13L11.8 14.3Z" fill="#3354F4"/>
<path d="M3.4 25C2.1 25 1 23.9 1 22.6V5.7C1 4.4 2.1 3.3 3.4 3.3H16.7C17.7 1.9 19.4 1 21.3 1C24.5 1 27.1 3.6 27.1 6.8C27.1 9.5 25.2 11.8 22.7 12.4V22.6C22.7 23.9 21.6 25 20.3 25H3.4ZM2.5 22.6C2.5 23.1 2.9 23.6 3.5 23.6H20.3C20.8 23.6 21.2 23.2 21.2 22.6V12.6C18.6 12.5 16.3 10.7 15.7 8.2H2.5V22.6ZM21.3 2.5C20.3 2.5 19.3 2.9 18.5 3.5C18.1 3.8 17.7 4.3 17.5 4.7C17.2 5.3 17 6.1 17 6.8C17 7.2 17.1 7.6 17.2 8C17.7 9.8 19.4 11.1 21.3 11.1C21.7 11.1 22.1 11 22.5 10.9C24.3 10.4 25.6 8.7 25.6 6.8C25.6 4.4 23.7 2.5 21.3 2.5ZM15.5 6.7C15.5 6 15.6 5.4 15.9 4.8H3.4C2.9 4.8 2.4 5.2 2.4 5.7V6.7H15.5Z" fill="#3354F4"/>
<path d="M21.4 9.80001C21 9.80001 20.7 9.50001 20.7 9.10001V6.20001L19.8 7.10001C19.7 7.20001 19.5 7.30001 19.3 7.30001C19.1 7.30001 18.9 7.20001 18.8 7.10001C18.5 6.80001 18.5 6.30001 18.8 6.00001L20.9 3.90001C21 3.80001 21.1 3.80001 21.1 3.70001C21.2 3.70001 21.3 3.60001 21.4 3.60001C21.5 3.60001 21.6 3.60001 21.7 3.70001C21.8 3.70001 21.9 3.80001 21.9 3.90001L24.1 6.00001C24.4 6.30001 24.4 6.80001 24.1 7.10001C24 7.20001 23.8 7.30001 23.6 7.30001C23.4 7.30001 23.1 7.20001 23 7.10001L22.1 6.20001V9.10001C22.1 9.50001 21.8 9.80001 21.4 9.80001Z" fill="#3354F4"/>
</svg>
