<svg width="33" height="26" viewBox="0 0 33 26" fill="none" xmlns="http://www.w3.org/2000/svg">
<path d="M29 19.3236C28.8 19.3236 28.6 19.2241 28.5 19.1245C28.2 18.8257 28.2 18.3278 28.5 18.1286L31.1 15.5394L28.5 13.0498C28.2 12.751 28.2 12.2531 28.5 12.0539C28.6 11.9544 28.8 11.8548 29 11.8548C29.2 11.8548 29.4 11.9544 29.5 12.0539L32.6 15.1411C32.7 15.2407 32.8 15.4398 32.8 15.639C32.8 15.8382 32.7 16.0373 32.6 16.1369L29.5 19.2241C29.3 19.2241 29.2 19.3236 29 19.3236Z" fill="#3354F4"/>
<path d="M4.8 19.3237C4.6 19.3237 4.4 19.2241 4.3 19.1245L1.2 16.0373C1.1 15.9378 1 15.7386 1 15.5394C1 15.3403 1.1 15.1411 1.2 15.0415L4.3 11.9544C4.4 11.8548 4.6 11.7552 4.8 11.7552C5 11.7552 5.2 11.8548 5.3 11.9544C5.6 12.2531 5.6 12.751 5.3 12.9502L2.7 15.5394L5.3 18.029C5.6 18.3278 5.6 18.8257 5.3 19.0249C5.2 19.2241 5 19.3237 4.8 19.3237Z" fill="#3354F4"/>
<path d="M16.9 22.0125C16.8 22.0125 16.7 22.0125 16.6 21.9129L12.4 20.1203C12.1 20.0208 12 19.722 12 19.4232V14.6432C12 14.3444 12.2 14.0457 12.4 13.9461L16.6 12.1535C16.7 12.1535 16.8 12.054 16.9 12.054C17 12.054 17.1 12.054 17.2 12.1535L21.4 13.9461C21.7 14.0457 21.8 14.3444 21.8 14.6432V19.4232C21.8 19.722 21.6 20.0208 21.4 20.1203L17.2 21.9129C17.1 21.9129 17 22.0125 16.9 22.0125ZM13.4 19.0249L16.2 20.1203V16.834L13.4 15.7386V19.0249ZM17.6 16.9336V20.1203L20.4 18.9253V15.7386L17.6 16.9336ZM16.9 15.639L19.3 14.6432L16.9 13.6473L14.5 14.6432L16.9 15.639Z" fill="#3354F4"/>
<path d="M9.7 24.9004C8.5 24.9004 7.5 23.9046 7.5 22.7095V8.36929C7.5 7.17427 8.5 6.17842 9.7 6.17842H19C19.3 3.29046 21.8 1 24.9 1C28.2 1 30.9 3.6888 30.9 6.9751C30.9 9.76349 29 12.1535 26.3 12.751L26.4 22.8091C26.4 24.0041 25.4 25 24.2 25H9.7V24.9004ZM9 22.7095C9 23.1079 9.3 23.4066 9.7 23.4066H24.1C24.5 23.4066 24.8 23.1079 24.8 22.7095V12.751C24.7 12.751 24.7 12.751 24.6 12.751C22.9 12.751 21.2 11.8548 20.1 10.4606L9 10.5602V22.7095ZM24.9 2.39419C22.7 2.39419 20.8 3.98755 20.5 6.17842C20.5 6.37759 20.4 6.57676 20.4 6.87552C20.4 7.07469 20.4 7.27386 20.5 7.57261C20.6 8.07054 20.8 8.66805 21 9.06639C21.3 9.56432 21.6 10.0622 22.1 10.361C22.9 11.0581 23.9 11.3568 24.9 11.3568C25.4 11.3568 25.8 11.2573 26.2 11.1577C28.1 10.5602 29.4 8.86722 29.4 6.87552C29.4 4.48548 27.3 2.39419 24.9 2.39419ZM9.7 7.6722C9.3 7.6722 9 7.97095 9 8.36929V9.16597L19.3 9.06639C19.1 8.56847 19 8.07054 18.9 7.57261L9.7 7.6722Z" fill="#3354F4"/>
<path d="M24.9 10.0623C24.5 10.0623 24.2 9.7635 24.2 9.36516V6.37761L23.2 7.37346C23.1 7.47304 22.9 7.57263 22.7 7.57263C22.5 7.57263 22.3 7.47304 22.2 7.37346C22 7.0747 21.9 6.97512 21.9 6.77595C21.9 6.57678 22 6.37761 22.1 6.27802L24.4 3.98757C24.5 3.88798 24.5 3.88798 24.6 3.7884C24.7 3.7884 24.8 3.68881 24.9 3.68881C25 3.68881 25.1 3.68881 25.2 3.7884C25.3 3.7884 25.4 3.88798 25.4 3.98757L27.6 6.17844C27.7 6.27802 27.8 6.47719 27.8 6.67636C27.8 6.87553 27.7 7.0747 27.6 7.17429C27.5 7.27387 27.3 7.37346 27.1 7.37346C26.9 7.37346 26.7 7.27387 26.6 7.17429L25.6 6.17844V9.16599C25.6 9.66392 25.3 10.0623 24.9 10.0623Z" fill="#3354F4"/>
</svg>
