<svg width="24" height="24" viewBox="0 0 24 24" fill="none" xmlns="http://www.w3.org/2000/svg">
<path d="M23 4.94C22.3 3.84 21.3 3.04 20.2 2.54C18.9 1.94 17.4 1.84 15.9 2.24C14.5 2.54 13.2 3.34 12 4.34C10.8 3.24 9.5 2.54 8.1 2.24C6.7 1.94 5.2 2.04 3.9 2.54C2.7 3.04 1.7 3.84 1 4.94C0.3 6.04 0 7.44 0 8.84C0.1 15.24 9.7 21.14 11.6 22.24C11.8 22.34 12.1 22.34 12.3 22.24C14.2 21.14 23.8 15.24 23.9 8.84C24 7.44 23.7 6.04 23 4.94ZM22.5 8.84C22.5 10.94 21.1 13.34 18.5 15.84C16.1 18.14 13.4 19.94 12 20.74C10.6 19.94 7.9 18.14 5.5 15.84C2.9 13.34 1.5 10.94 1.5 8.84C1.5 6.54 2.6 4.74 4.4 3.94C5 3.64 5.7 3.54 6.3 3.54C8 3.54 9.8 4.34 11.4 5.94C11.7 6.24 12.2 6.24 12.5 5.94C14.6 3.74 17.3 3.04 19.5 3.94C21.4 4.74 22.5 6.54 22.5 8.84Z" fill="#3354F4"/>
</svg>
